v 1.6541150 3.3366630 0.9700974
vn 0.0000000 -0.9198999 -0.3921534
vt 0.4273048 1.1213220
v 1.6541150 3.2165740 1.1133220
vn 0.0000000 -0.5505848 -0.8347793
vt 0.4273048 1.2844470
v 0.9704510 3.3366630 0.9700974
vn 0.0000000 -0.9198995 -0.3921543
vt 0.0411321 1.1213220
v 0.9704510 3.2165740 1.1133220
vn 0.0000000 -0.5505835 -0.8347801
vt 0.0411321 1.2844470
v 1.6541150 3.0238020 1.1764460
vn 0.0000000 0.0568647 -0.9983819
vt 0.4273048 1.4411350
v 0.9704504 3.0238020 1.1764460
vn 0.0000000 0.0568649 -0.9983819
vt 0.0411321 1.4411350
v 0.9704504 3.5054281 0.4357390
vn 0.0000000 -0.8291078 -0.5590889
vt 0.0411321 0.7393248
v 1.6541150 3.5054281 0.4357390
vn 0.0000000 -0.8291083 -0.5590881
vt 0.4273048 0.7393248
v 1.6541150 3.7399089 0.3720965
vn 0.0000000 -0.5196777 -0.8543624
vt 0.4273048 0.5714049
v 0.9704504 3.7399089 0.3720965
vn 0.0000000 -0.5196764 -0.8543632
vt 0.0411321 0.5714049
v 1.6541150 3.7456760 0.0560177
vn 0.0000000 -0.0213856 0.9997713
vt 0.4273048 0.1732235
v 1.6541150 3.8648100 0.2171408
vn 0.0000000 -0.9998336 -0.0182399
vt 0.4273048 0.3777649
v 0.9704504 3.7456760 0.0560177
vn 0.0000000 -0.0213856 0.9997713
vt 0.0411321 0.1732235
v 0.9704504 3.8648100 0.2171408
vn 0.0000000 -0.9998337 -0.0182397
vt 0.0411321 0.3777649
v 0.9704504 -3.6899230 0.0555413
vn 0.0000000 0.0000000 1.0000000
vt 0.0411321 -5.0479178
v 1.6541150 -3.6899230 0.0555413
vn 0.0000000 0.0000000 1.0000000
vt 0.4273048 -5.0479178
v 0.9704504 2.4378581 1.0689690
vn 0.0000000 -0.0056500 -0.9999840
vt 0.0411321 1.8663480
v 1.6541150 2.4378581 1.0689690
vn 0.0000000 -0.0056500 -0.9999840
vt 0.4273048 1.8663480
v 1.6485070 -1.6189300 0.6391704
vn -0.1387305 0.0042828 -0.9903209
vt 0.4294820 5.0034242
v 0.9719043 -1.5943739 0.7340594
vn -0.1182509 -0.0158419 -0.9928574
vt 0.0433093 5.0034232
v 1.6573150 -0.8851593 0.6411098
vn -0.1065269 0.1979470 -0.9744070
vt 0.4273048 4.4628692
v 0.9772044 -0.8838792 0.7059873
vn -0.0722748 0.1622757 -0.9840950
vt 0.0411321 4.4628692
v 1.6541150 -0.4809655 0.8875462
vn -0.0336097 0.6359702 -0.7709814
vt 0.4273048 4.1612110
v 0.9704504 -0.4809655 0.8875462
vn 0.0000000 0.6026300 -0.7980207
vt 0.0411321 4.1612110
v 1.6541150 -0.1786095 1.1838230
vn 0.0000000 -0.0867913 -0.9962265
vt 0.4273048 3.8239839
v 0.9704504 -0.1786095 1.1838230
vn 0.0000000 -0.0867913 -0.9962265
vt 0.0411321 3.8239839
v 1.6541150 0.7534121 1.0281200
vn 0.0000000 0.0002498 -1.0000000
vt 0.4273048 3.1169620
v 0.9704504 0.7534121 1.0281200
vn 0.0000000 0.0002497 -1.0000000
vt 0.0411321 3.1169620
v 1.6541150 1.6378720 1.1842771
vn 0.0000000 0.0242434 -0.9997061
vt 0.4273048 2.4478171
v 0.9704504 1.6378720 1.1842771
vn 0.0000000 0.0242434 -0.9997061
vt 0.0411321 2.4478171
v 1.6541150 -0.3306551 1.1225640
vn 0.0000000 0.6998904 -0.7142503
vt 0.4273048 3.9604070
v 0.9704504 -0.3306551 1.1225640
vn 0.0000000 0.6998906 -0.7142501
vt 0.0411321 3.9604070
v 1.5968070 -3.6899230 0.0000000
vn 0.0000000 -1.0000000 0.0000000
vt 0.3952482 -0.1953061
v 1.6541150 -3.6899230 0.0555413
vn 0.0000000 -1.0000000 0.0000000
vt 0.4265307 -0.1649882
v 1.0276680 -3.6899230 0.0000000
vn 0.0000000 -1.0000000 0.0000000
vt 0.0721303 -0.1953061
v 0.9704504 -3.6899230 0.0555413
vn 0.0000000 -1.0000000 0.0000000
vt 0.0408971 -0.1649882
v 1.6485070 -1.6189300 0.6391704
vn -0.0180854 -0.9916521 0.1276678
vt 0.4265307 -0.1649882
v 1.5589761 -1.6086950 0.7059900
vn -0.0180854 -0.9916521 0.1276675
vt 0.3952482 -0.1953061
v 0.9719043 -1.5943739 0.7340594
vn -0.0180857 -0.9916536 0.1276562
vt 0.0408971 -0.1649882
v 1.0362329 -1.5897239 0.7793012
vn -0.0180857 -0.9916539 0.1276541
vt 0.0721303 -0.1953061
v 1.5968070 -0.3601812 1.1709980
vn 0.0000000 -0.6745759 0.7382055
vt 0.4897318 3.9604070
v 1.5968070 -0.1779207 1.2379900
vn 0.0000000 0.0800030 0.9967946
vt 0.4897338 3.8239839
v 1.0276680 -0.3601812 1.1709980
vn 0.0000000 -0.6745760 0.7382055
vt 0.8139827 3.9604070
v 1.0276680 -0.1779207 1.2379900
vn 0.0000000 0.0800054 0.9967945
vt 0.8139827 3.8239839
v 1.5968070 -3.6899230 0.0000000
vn 0.0000000 0.0000000 -1.0000000
vt 0.4896764 -5.0479178
v 1.0276680 -3.6899230 0.0000000
vn 0.0000000 0.0000000 -1.0000000
vt 0.8139295 -5.0479178
v 1.5968070 3.7576189 -0.0000732
vn 0.0000000 0.0289597 -0.9995806
vt 0.4897296 0.1732235
v 1.0276680 3.7576189 -0.0000732
vn 0.0000000 0.0289597 -0.9995806
vt 0.8139828 0.1732235
v 1.5968070 3.5429571 0.4809298
vn 0.0000000 0.8358328 0.5489841
vt 0.4897296 0.7393248
v 1.0276690 3.5429571 0.4809298
vn 0.0000000 0.8358334 0.5489833
vt 0.8139827 0.7393248
v 1.5968070 3.3872690 0.9913947
vn 0.0000000 0.9159513 0.4012894
vt 0.4897296 1.1213220
v 1.0276690 3.3872690 0.9913947
vn 0.0000000 0.9159515 0.4012890
vt 0.8139827 1.1213220
v 1.5968070 3.2460570 1.1586111
vn 0.0000000 0.5541512 0.8324161
vt 0.4897296 1.2844470
v 1.0276690 3.2460570 1.1586111
vn 0.0000000 0.5541506 0.8324165
vt 0.8139828 1.2844470
v 1.5968070 3.0280089 1.2305590
vn 0.0000000 -0.0441908 0.9990231
vt 0.4897296 1.4411350
v 1.0276690 3.0280089 1.2305590
vn 0.0000000 -0.0441908 0.9990231
vt 0.8139828 1.4411350
v 1.5968070 1.6367810 1.2384270
vn 0.0000000 -0.0244042 0.9997022
vt 0.4897338 2.4478180
v 1.0276690 1.6367810 1.2384270
vn 0.0000000 -0.0244070 0.9997022
vt 0.8139827 2.4478180
v 1.5968070 0.7519009 1.0817420
vn 0.0000000 -0.0002405 1.0000000
vt 0.4897281 3.1169400
v 1.0276430 0.7519009 1.0817420
vn 0.0000000 -0.0002405 1.0000000
vt 0.8139827 3.1169600
v 0.9704504 3.0238020 1.1764460
vn -0.6849828 -0.0419707 0.7273493
vt 0.0411755 1.4411290
v 1.0276690 3.0280089 1.2305590
vn -0.6848792 -0.0385296 0.7276373
vt 0.0047231 1.4411290
v 0.9704510 3.2165740 1.1133220
vn -0.6869711 0.3931754 0.6111332
vt 0.0411755 1.2844410
v 1.0276690 3.2460570 1.1586111
vn -0.6872423 0.3921213 0.6115055
vt 0.0047231 1.2844410
v 1.0276690 3.3872690 0.9913947
vn -0.6923656 0.6631699 0.2843162
vt 0.0047231 1.1213150
v 0.9704510 3.3366630 0.9700974
vn -0.6897771 0.6618377 0.2935617
vt 0.0411755 1.1213150
v 1.0276690 3.5429571 0.4809298
vn -0.7009549 0.5973059 0.3897282
vt 0.0047231 0.7393182
v 0.9704504 3.5054281 0.4357390
vn -0.7036538 0.5819950 0.4076190
vt 0.0411755 0.7393182
v 0.9704504 3.7399089 0.3720965
vn -0.6696659 0.4002227 0.6255953
vt 0.0411755 0.5713983
v 1.0276690 3.7644069 0.4171982
vn -0.6621931 0.3982345 0.6347517
vt 0.0047231 0.5713983
v 0.9704504 3.8648100 0.2171408
vn -0.6662593 0.7439516 0.0513285
vt 0.0411755 0.3777583
v 1.0276690 3.9152620 0.2203365
vn -0.6663521 0.7435345 0.0559593
vt 0.0047231 0.3777583
v 0.9704504 3.7456760 0.0560177
vn -0.7022194 0.0236958 -0.7115663
vt 0.0411755 0.1732169
v 1.0276680 3.7576189 -0.0000732
vn -0.7016160 0.0156440 -0.7123834
vt 0.0047231 0.1732169
v 1.0276680 -3.6899230 0.0000000
vn -0.6965386 0.0000000 -0.7175193
vt 0.0047230 -5.0479250
v 0.9704504 -3.6899230 0.0555413
vn -0.6965142 0.0000000 -0.7175430
vt 0.0411754 -5.0479250
v 0.9704504 -0.3306551 1.1225640
vn -0.6932091 -0.5138481 0.5053924
vt 0.0411755 3.9604011
v 1.0276680 -0.3601812 1.1709980
vn -0.6923791 -0.4899414 0.5296873
vt 0.0047230 3.9604011
v 0.9704504 -0.1786095 1.1838230
vn -0.6880686 0.0542454 0.7236153
vt 0.0411755 3.8239770
v 1.0276680 -0.1779207 1.2379900
vn -0.6864989 0.0633713 0.7243642
vt 0.0047231 3.8239770
v 1.0276690 1.6367810 1.2384270
vn -0.6874285 -0.0179251 0.7260309
vt 0.0047231 2.4478109
v 0.9704504 1.6378720 1.1842771
vn -0.6873983 -0.0175023 0.7260697
vt 0.0411755 2.4478109
v 1.0276430 0.7519009 1.0817420
vn -0.6841788 0.0010155 0.7293136
vt 0.0047231 3.1169560
v 0.9704504 0.7534121 1.0281200
vn -0.6839876 -0.0015597 0.7294921
vt 0.0411755 3.1169560
v 1.6541150 2.4378581 1.0689690
vn 0.6857288 0.0070386 0.7278231
vt 0.4273015 1.8663480
v 1.6541150 3.0238020 1.1764460
vn 0.6844133 -0.0420012 0.7278835
vt 0.4273015 1.4411350
v 1.5968070 2.4397490 1.1229440
vn 0.6855267 0.0015563 0.7280458
vt 0.4621923 1.8663480
v 1.5968070 3.0280089 1.2305590
vn 0.6843094 -0.0385569 0.7281717
vt 0.4621923 1.4411350
v 1.6541150 3.2165740 1.1133220
vn 0.6863997 0.3934688 0.6115863
vt 0.4273015 1.2844470
v 1.5968070 3.2460570 1.1586111
vn 0.6866710 0.3924165 0.6119577
vt 0.4621923 1.2844470
v 1.5968070 3.3872690 0.9913947
vn 0.6917976 0.6636683 0.2845358
vt 0.4621923 1.1213220
v 1.6541150 3.3366630 0.9700974
vn 0.6892052 0.6623375 0.2937777
vt 0.4273015 1.1213220
v 1.5968070 3.5429571 0.4809298
vn 0.7003977 0.5977610 0.3900320
vt 0.4621923 0.7393248
v 1.6541150 3.5054281 0.4357390
vn 0.7030956 0.5824551 0.4079249
vt 0.4273015 0.7393248
v 1.6541150 3.7399089 0.3720965
vn 0.6690890 0.4004976 0.6260365
vt 0.4273015 0.5714049
v 1.5968070 3.7644069 0.4171982
vn 0.6616043 0.3985276 0.6351816
vt 0.4621923 0.5714049
v 1.5968070 3.7576189 -0.0000732
vn 0.7010543 0.0156610 -0.7129359
vt 0.4621923 0.1732235
v 1.6541150 3.7456760 0.0560177
vn 0.7016572 0.0237101 -0.7121202
vt 0.4273015 0.1732235
v 1.5968070 -3.6899230 0.0000000
vn 0.6959728 0.0000000 -0.7180682
vt 0.4621921 -5.0479178
v 1.6541150 -3.6899230 0.0555413
vn 0.6959484 0.0000000 -0.7180918
vt 0.4273014 -5.0479178
v 1.6573150 -0.8851593 0.6411098
vn 0.7493213 -0.1306943 0.6491815
vt 0.4273014 4.4628692
v 1.6541150 -0.4809655 0.8875462
vn 0.6909732 -0.4650666 0.5534158
vt 0.4273015 4.1612110
v 1.6056510 -0.8925957 0.6989417
vn 0.7454008 -0.1549793 0.6483510
vt 0.4621923 4.4628692
v 1.5968070 -0.5139579 0.9309175
vn 0.6880161 -0.4807166 0.5436410
vt 0.4621923 4.1612110
v 1.5968070 3.7644069 0.4171982
vn 0.0000000 0.5734321 0.8192531
vt 0.4897296 0.5714049
v 1.0276690 3.7644069 0.4171982
vn 0.0000000 0.5734331 0.8192524
vt 0.8139827 0.5714049
v 1.6541150 3.8648100 0.2171408
vn 0.6656798 0.7444680 0.0513615
vt 0.4273015 0.3777649
v 1.5968070 3.9152620 0.2203365
vn 0.6657709 0.7440543 0.0559679
vt 0.4621923 0.3777649
v 1.5968070 3.9152620 0.2203365
vn 0.0000000 0.9998677 -0.0162655
vt 0.4897296 0.3777649
v 1.0276690 3.9152620 0.2203365
vn 0.0000000 0.9998677 -0.0162654
vt 0.8139827 0.3777649
v 1.5968070 2.4397490 1.1229440
vn 0.0000000 0.0056553 0.9999840
vt 0.4897299 1.8663480
v 1.0276690 2.4397490 1.1229440
vn 0.0000000 0.0056553 0.9999840
vt 0.8139828 1.8663480
v 1.0276690 2.4397490 1.1229440
vn -0.6860958 0.0015535 0.7275096
vt 0.0047231 1.8663410
v 0.9704504 2.4378581 1.0689690
vn -0.6862977 0.0070363 0.7272867
vt 0.0411755 1.8663410
v 1.6541150 1.6378720 1.1842771
vn 0.6868263 -0.0175270 0.7266102
vt 0.4273015 2.4478180
v 1.5968070 1.6367810 1.2384270
vn 0.6868612 -0.0179498 0.7265669
vt 0.4621923 2.4478180
v 1.5968070 -0.1779207 1.2379900
vn 0.6859258 0.0634302 0.7249017
vt 0.4621923 3.8239839
v 1.6541150 -0.1786095 1.1838230
vn 0.6874903 0.0543076 0.7241601
vt 0.4273015 3.8239839
v 1.5968070 0.7519009 1.0817420
vn 0.6834490 0.0010153 0.7299976
vt 0.4621923 3.1169620
v 1.6541150 0.7534121 1.0281200
vn 0.6832488 -0.0015597 0.7301840
vt 0.4273015 3.1169620
v 1.5968070 -0.5139579 0.9309175
vn 0.0306484 -0.6441672 0.7642705
vt 0.4897309 4.1612110
v 1.0276680 -0.5139579 0.9309175
vn 0.0000000 -0.6203094 0.7843572
vt 0.8139827 4.1612110
v 1.0276680 -0.5139579 0.9309175
vn -0.6843029 -0.4481325 0.5752450
vt 0.0047230 4.1612039
v 0.9704504 -0.4809655 0.8875462
vn -0.6896570 -0.4367738 0.5775828
vt 0.0411755 4.1612039
v 1.6541150 -0.3306551 1.1225640
vn 0.6926427 -0.5142294 0.5057809
vt 0.4273015 3.9604070
v 1.5968070 -0.3601812 1.1709980
vn 0.6918072 -0.4903196 0.5300846
vt 0.4621923 3.9604070
v 1.0394710 -0.8915300 0.7529510
vn 0.0739559 -0.1649788 0.9835205
vt 0.8139827 4.4628692
v 1.6056510 -0.8925957 0.6989417
vn 0.1055266 -0.1888652 0.9763166
vt 0.4897296 4.4628692
v 0.9772044 -0.8838792 0.7059873
vn -0.6115513 -0.1084154 0.7837418
vt 0.0411755 4.4628620
v 1.0394710 -0.8915300 0.7529510
vn -0.6061898 -0.1137349 0.7871457
vt 0.0047231 4.4628620
v 1.5994920 -1.6101650 0.7003078
vn 0.1389090 0.0006932 0.9903049
vt 0.4880684 5.0080452
v 1.0362329 -1.5897239 0.7793012
vn 0.1205243 0.0159723 0.9925819
vt 0.8123215 5.0080438
v 0.9719043 -1.5943739 0.7340594
vn -0.5782025 0.0336734 0.8151981
vt 0.0466484 5.0697389
v 1.0362329 -1.5897239 0.7793012
vn -0.5765610 0.0334842 0.8163677
vt 0.0101917 5.0696459
v 1.6485070 -1.6189300 0.6391704
vn 0.7794000 -0.0110116 0.6264299
vt 0.4260642 5.0136561
v 1.5994920 -1.6101650 0.7003078
vn 0.7774109 -0.0106511 0.6289030
vt 0.4609560 5.0136251
v 1.3172330 3.4479301 0.3458675
vn 0.9098105 -0.3253366 -0.2576837
vt 0.8737969 0.5609159
v 1.3668700 3.5101531 0.4425613
vn 0.9086409 -0.3505022 -0.2269799
vt 0.9967785 0.5763931
v 1.3172290 3.2260549 0.9235554
vn 0.9195359 -0.3725489 -0.1251438
vt 0.8737969 1.0019660
v 1.3668700 3.3366630 0.9700974
vn 0.9236161 -0.3641329 -0.1197517
vt 0.9967785 0.9989891
v 1.3172290 3.6768939 0.1710816
vn 0.9188006 -0.0026580 0.3947132
vt 0.8737969 0.2122545
v 1.3668700 3.7456760 0.0560178
vn 0.9198092 -0.0075821 0.3922927
vt 0.9967785 0.2534871
v 1.3172311 3.7162631 0.2243496
vn 0.9481276 -0.3178323 -0.0060717
vt 0.8737969 0.3175982
v 1.3668700 3.8648100 0.2171409
vn 0.9485486 -0.3164542 0.0105974
vt 0.9967785 0.3240719
v 1.3172290 -3.6899221 0.1737243
vn 0.9219703 0.0001389 0.3872606
vt 0.8722165 -5.0479178
v 1.3668700 -3.6899230 0.0555413
vn 0.9219305 0.0001372 0.3873554
vt 0.9968350 -5.0479178
v 1.3668700 1.6378720 1.1842771
vn 0.9240794 0.0099244 -0.3820718
vt 0.9967785 2.3893180
v 1.3668700 0.7454698 1.0339150
vn 0.9229510 -0.0034319 -0.3849021
vt 0.9968467 3.1034720
v 1.3172380 1.6402880 1.0643010
vn 0.9241508 0.0097085 -0.3819047
vt 0.8737969 2.3880751
v 1.3172330 0.7583321 0.9148772
vn 0.9231280 0.0042897 -0.3844687
vt 0.8766591 3.0835061
v 1.3668700 3.0238020 1.1764460
vn 0.9198558 0.0654419 -0.3867594
vt 0.9967785 1.2403760
v 1.3668700 2.4383571 1.0773860
vn 0.9237471 -0.0006649 -0.3830026
vt 0.9971989 1.7220581
v 1.3172290 3.0144999 1.0568070
vn 0.9200208 0.0654702 -0.3863619
vt 0.8737969 1.2468740
v 1.3172330 2.4349141 0.9575787
vn 0.9238829 -0.0037905 -0.3826565
vt 0.8744274 1.7256840
v 1.3172330 3.4479301 0.3458675
vn -0.9094433 -0.3259717 -0.2581768
vt 0.8737969 0.5609159
v 1.3172290 3.2260549 0.9235554
vn -0.9192050 -0.3732768 -0.1254056
vt 0.8737969 1.0019660
v 1.2674820 3.5101521 0.4425610
vn -0.9082744 -0.3511635 -0.2274244
vt 0.9967785 0.5760961
v 1.2674720 3.3366630 0.9700975
vn -0.9233020 -0.3648463 -0.1200025
vt 0.9967785 0.9981871
v 1.3172330 3.6886351 0.2601208
vn -0.9241555 -0.1553035 -0.3490236
vt 0.8737969 0.4040259
v 1.2674780 3.7399089 0.3720965
vn -0.9271743 -0.1808391 -0.3280929
vt 0.9967785 0.4024763
v 1.3668700 3.7399089 0.3720965
vn 0.9274797 -0.1804534 -0.3274416
vt 0.9967785 0.4023991
v 1.3172330 3.6886351 0.2601208
vn 0.9244738 -0.1549682 -0.3483292
vt 0.8737969 0.4040259
v 1.3172311 3.7162631 0.2243496
vn -0.9479005 -0.3185091 -0.0060614
vt 0.8737969 0.3175982
v 1.2674741 3.8648090 0.2171408
vn -0.9483225 -0.3171301 0.0106289
vt 0.9967785 0.3240674
v 1.3172290 3.6768939 0.1710816
vn -0.9184690 -0.0026640 0.3954841
vt 0.8737969 0.2122545
v 1.2674720 3.7456760 0.0560178
vn -0.9194809 -0.0075982 0.3930614
vt 0.9967785 0.2535419
v 1.3172290 -3.6899221 0.1737243
vn -0.9216751 0.0001392 0.3879626
vt 0.8722165 -5.0479178
v 1.2674820 -3.6899230 0.0555414
vn -0.9216349 0.0001374 0.3880582
vt 0.9968414 -5.0479178
v 1.3668700 -0.3306551 1.1225640
vn 0.9154527 0.3390176 -0.2168258
vt 0.9967785 3.8746140
v 1.3668700 -0.4809655 0.8875462
vn 0.9245448 0.2500437 -0.2875674
vt 0.9967785 4.0594020
v 1.3172290 -0.2652390 1.0152570
vn 0.9155708 0.3388785 -0.2165445
vt 0.8737969 3.8919580
v 1.3172290 -0.4078627 0.7914462
vn 0.9186314 0.2452191 -0.3098127
vt 0.8737969 4.0702538
v 1.3733640 -0.8825577 0.6705499
vn 0.8781648 0.0796268 -0.4716844
vt 1.0008050 4.4213500
v 1.3115910 -0.8678534 0.5597804
vn 0.8751655 0.0673130 -0.4791183
vt 0.8687464 4.4349370
v 1.2980430 -1.5948430 0.5704315
vn 0.8611624 -0.0196670 -0.5079495
vt 0.8658006 5.0647030
v 1.3642280 -1.5817660 0.6813899
vn 0.8596553 -0.0191470 -0.5105156
vt 0.9862725 5.0461621
v 1.3172290 -0.1801352 1.0638330
vn 0.9222622 -0.0617963 -0.3815936
vt 0.8737969 3.8069940
v 1.3668700 -0.1786095 1.1838230
vn 0.9225558 -0.0617891 -0.3808845
vt 0.9967785 3.7997439

g group_155262976_2822784383808
f 1/1/1 2/2/2 3/3/3 
f 3/3/3 2/2/2 4/4/4 
f 2/2/2 5/5/5 4/4/4 
f 4/4/4 5/5/5 6/6/6 
f 7/7/7 8/8/8 3/3/3 
f 3/3/3 8/8/8 1/1/1 
f 9/9/9 8/8/8 10/10/10 
f 10/10/10 8/8/8 7/7/7 
f 11/11/11 12/12/12 13/13/13 
f 13/13/13 12/12/12 14/14/14 
f 15/15/15 16/16/16 13/13/13 
f 13/13/13 16/16/16 11/11/11 
f 6/6/6 5/5/5 17/17/17 
f 17/17/17 5/5/5 18/18/18 
f 19/19/19 20/20/20 21/21/21 
f 21/21/21 20/20/20 22/22/22 
f 21/21/21 22/22/22 23/23/23 
f 23/23/23 22/22/22 24/24/24 
f 25/25/25 26/26/26 27/27/27 
f 27/27/27 26/26/26 28/28/28 
f 29/29/29 30/30/30 18/18/18 
f 18/18/18 30/30/30 17/17/17 
f 12/12/12 9/9/9 14/14/14 
f 14/14/14 9/9/9 10/10/10 
f 25/25/25 31/31/31 26/26/26 
f 26/26/26 31/31/31 32/32/32 
f 31/31/31 23/23/23 32/32/32 
f 32/32/32 23/23/23 24/24/24 
f 33/33/33 34/34/34 35/35/35 
f 35/35/35 34/34/34 36/36/36 
f 37/37/37 38/38/38 39/39/39 
f 39/39/39 38/38/38 40/40/40 
f 41/41/41 42/42/42 43/43/43 
f 43/43/43 42/42/42 44/44/44 
f 45/45/45 46/46/46 47/47/47 
f 47/47/47 46/46/46 48/48/48 
f 49/49/49 50/50/50 51/51/51 
f 51/51/51 50/50/50 52/52/52 
f 53/53/53 51/51/51 54/54/54 
f 54/54/54 51/51/51 52/52/52 
f 55/55/55 53/53/53 56/56/56 
f 56/56/56 53/53/53 54/54/54 
f 57/57/57 58/58/58 59/59/59 
f 59/59/59 58/58/58 60/60/60 
f 61/61/61 62/62/62 63/63/63 
f 63/63/63 62/62/62 64/64/64 
f 65/65/65 66/66/66 64/64/64 
f 64/64/64 66/66/66 63/63/63 
f 65/65/65 67/67/67 66/66/66 
f 66/66/66 67/67/67 68/68/68 
f 68/68/68 67/67/67 69/69/69 
f 69/69/69 67/67/67 70/70/70 
f 71/71/71 72/72/72 73/73/73 
f 73/73/73 72/72/72 74/74/74 
f 74/74/74 75/75/75 73/73/73 
f 73/73/73 75/75/75 76/76/76 
f 77/77/77 78/78/78 79/79/79 
f 79/79/79 78/78/78 80/80/80 
f 81/81/81 82/82/82 83/83/83 
f 83/83/83 82/82/82 84/84/84 
f 85/85/85 86/86/86 87/87/87 
f 87/87/87 86/86/86 88/88/88 
f 86/86/86 89/89/89 88/88/88 
f 88/88/88 89/89/89 90/90/90 
f 91/91/91 90/90/90 92/92/92 
f 92/92/92 90/90/90 89/89/89 
f 91/91/91 92/92/92 93/93/93 
f 93/93/93 92/92/92 94/94/94 
f 94/94/94 95/95/95 93/93/93 
f 93/93/93 95/95/95 96/96/96 
f 97/97/97 98/98/98 99/99/99 
f 99/99/99 98/98/98 100/100/100 
f 101/101/101 102/102/102 103/103/103 
f 103/103/103 102/102/102 104/104/104 
f 49/49/49 105/105/105 50/50/50 
f 50/50/50 105/105/105 106/106/106 
f 69/69/69 70/70/70 71/71/71 
f 71/71/71 70/70/70 72/72/72 
f 95/95/95 107/107/107 96/96/96 
f 96/96/96 107/107/107 108/108/108 
f 105/105/105 109/109/109 106/106/106 
f 106/106/106 109/109/109 110/110/110 
f 109/109/109 47/47/47 110/110/110 
f 110/110/110 47/47/47 48/48/48 
f 107/107/107 98/98/98 108/108/108 
f 108/108/108 98/98/98 97/97/97 
f 57/57/57 111/111/111 58/58/58 
f 58/58/58 111/111/111 112/112/112 
f 81/81/81 113/113/113 82/82/82 
f 82/82/82 113/113/113 114/114/114 
f 85/85/85 87/87/87 115/115/115 
f 115/115/115 87/87/87 116/116/116 
f 112/112/112 111/111/111 56/56/56 
f 56/56/56 111/111/111 55/55/55 
f 114/114/114 113/113/113 61/61/61 
f 61/61/61 113/113/113 62/62/62 
f 42/42/42 59/59/59 44/44/44 
f 44/44/44 59/59/59 60/60/60 
f 80/80/80 83/83/83 79/79/79 
f 79/79/79 83/83/83 84/84/84 
f 117/117/117 118/118/118 119/119/119 
f 119/119/119 118/118/118 120/120/120 
f 121/121/121 41/41/41 122/122/122 
f 122/122/122 41/41/41 43/43/43 
f 78/78/78 77/77/77 123/123/123 
f 123/123/123 77/77/77 124/124/124 
f 125/125/125 118/118/118 126/126/126 
f 126/126/126 118/118/118 117/117/117 
f 102/102/102 125/125/125 104/104/104 
f 104/104/104 125/125/125 126/126/126 
f 122/122/122 127/127/127 121/121/121 
f 121/121/121 127/127/127 128/128/128 
f 124/124/124 129/129/129 123/123/123 
f 123/123/123 129/129/129 130/130/130 
f 131/131/131 128/128/128 132/132/132 
f 132/132/132 128/128/128 127/127/127 
f 129/129/129 133/133/133 130/130/130 
f 130/130/130 133/133/133 134/134/134 
f 135/135/135 101/101/101 136/136/136 
f 136/136/136 101/101/101 103/103/103 
f 29/29/29 27/27/27 30/30/30 
f 30/30/30 27/27/27 28/28/28 
f 116/116/116 119/119/119 115/115/115 
f 115/115/115 119/119/119 120/120/120 
f 137/137/137 138/138/138 139/139/139 
f 139/139/139 138/138/138 140/140/140 
f 141/141/141 142/142/142 143/143/143 
f 143/143/143 142/142/142 144/144/144 
f 145/145/145 146/146/146 141/141/141 
f 141/141/141 146/146/146 142/142/142 
f 147/147/147 148/148/148 149/149/149 
f 149/149/149 148/148/148 150/150/150 
f 151/151/151 152/152/152 153/153/153 
f 153/153/153 152/152/152 154/154/154 
f 155/155/155 156/156/156 157/157/157 
f 157/157/157 156/156/156 158/158/158 
f 155/155/155 157/157/157 159/159/159 
f 159/159/159 157/157/157 160/160/160 
f 161/161/161 138/138/138 162/162/162 
f 162/162/162 138/138/138 137/137/137 
f 159/159/159 160/160/160 163/163/163 
f 163/163/163 160/160/160 164/164/164 
f 144/144/144 161/161/161 143/143/143 
f 143/143/143 161/161/161 162/162/162 
f 165/165/165 163/163/163 166/166/166 
f 166/166/166 163/163/163 164/164/164 
f 167/167/167 165/165/165 168/168/168 
f 168/168/168 165/165/165 166/166/166 
f 169/169/169 170/170/170 171/171/171 
f 171/171/171 170/170/170 172/172/172 
f 170/170/170 173/173/173 172/172/172 
f 172/172/172 173/173/173 174/174/174 
f 174/174/174 173/173/173 175/175/175 
f 175/175/175 173/173/173 176/176/176 
f 150/150/150 148/148/148 177/177/177 
f 177/177/177 148/148/148 178/178/178 
f 154/154/154 152/152/152 149/149/149 
f 149/149/149 152/152/152 147/147/147 
