v -0.9704509 3.2226140 1.1115320
vn 0.0000000 -0.4988281 -0.8667009
vt 0.0432419 -2.9295909
v -1.6541150 3.2226140 1.1115320
vn 0.0000000 -0.6731399 -0.7395151
vt 0.4294146 -2.9295909
v -0.9704509 3.3442719 0.9431601
vn 0.0000000 -0.9512625 -0.3083823
vt 0.0432419 -3.1178942
v -1.6541150 3.3442719 0.9431601
vn 0.0000000 -0.9512623 -0.3083830
vt 0.4294146 -3.1178942
v -1.6541150 3.0238020 1.1764470
vn 0.0000000 -0.2110655 -0.9774719
vt 0.4294146 -2.7459660
v -0.9704506 3.0238020 1.1764470
vn 0.0000000 -0.1084053 -0.9941068
vt 0.0432419 -2.7459660
v -0.9704506 -2.0512979 0.0555412
vn 0.0000000 0.1638369 0.9864874
vt 0.0432419 3.3647039
v -0.9704506 2.3708270 0.0555411
vn 0.0000000 -0.1774776 0.9841248
vt 0.0432419 6.6011930
v -1.6541150 -2.0512979 0.0555412
vn 0.0000000 0.1638369 0.9864874
vt 0.4294146 3.3647039
v -1.6541150 2.3708270 0.0555411
vn 0.0000000 -0.3549553 0.9348833
vt 0.4294146 6.6019702
v -0.9704506 -3.2071550 0.8387709
vn 0.0000000 0.9549564 -0.2967463
vt 0.0432419 2.1546681
v -0.9704506 -3.1963520 0.6221786
vn 0.0000000 0.9753772 0.2205432
vt 0.0432419 2.3315370
v -1.6541150 -3.2071540 0.8387709
vn 0.0000000 0.9924454 -0.1226876
vt 0.4294146 2.1546681
v -1.6541150 -3.1963511 0.6221786
vn 0.0000000 0.9209331 0.3897208
vt 0.4294146 2.3315370
v -0.9704506 -3.1079681 1.0320590
vn 0.0000000 0.6778033 -0.7352433
vt 0.0432419 1.9761730
v -1.6541150 -3.1079681 1.0320590
vn 0.0000000 0.7976985 -0.6030566
vt 0.4294146 1.9761730
v -0.9704505 -2.9252040 1.1496080
vn 0.0000000 0.3074148 -0.9515757
vt 0.0432419 1.7966650
v -1.6541150 -2.9252040 1.1496080
vn 0.0000000 0.3074150 -0.9515756
vt 0.4294146 1.7966650
v -0.9704506 -1.8992790 1.2044320
vn 0.0000000 0.0336935 -0.9994323
vt 0.0432419 1.0059170
v -1.6541150 -1.8992790 1.2044320
vn 0.0000000 0.0140034 -0.9999020
vt 0.4294146 1.0059170
v -1.3172380 3.1406381 0.6560376
vn -0.9221626 -0.2037228 0.3288057
vt 0.8737969 -3.5195599
v -1.3668700 3.2230480 0.5679009
vn -0.9138658 -0.2114228 0.3466261
vt 0.9967785 -3.4919748
v -1.3172290 2.3570170 0.1705478
vn -0.9223775 -0.1062545 0.3713891
vt 0.8849444 -4.3989782
v -1.3668700 2.3708839 0.0555411
vn -0.9172973 -0.1101936 0.3826527
vt 0.9983078 -4.3989782
v -1.3172290 -2.0543759 0.1737244
vn -0.9206679 0.0870837 0.3805089
vt 0.8737969 2.9009230
v -1.3172290 2.3570170 0.1705478
vn -0.9223775 -0.1062545 0.3713891
vt 0.8752601 6.6407180
v -1.3668700 -2.0512979 0.0555414
vn -0.9193786 0.0442175 0.3908808
vt 0.9967785 2.9051671
v -1.3668700 2.3708839 0.0555411
vn -0.9172973 -0.1101936 0.3826527
vt 0.9967474 6.6467628
v -1.3668700 -2.9254251 1.1495640
vn -0.9172493 0.0212674 -0.3977455
vt 0.9967785 1.5556480
v -1.3668700 -1.8992790 1.2044320
vn -0.9223101 0.0088121 -0.3863502
vt 0.9967785 0.7665060
v -1.3172290 -2.8849120 1.0372519
vn -0.9206006 0.0197857 -0.3900039
vt 0.8737969 1.5558110
v -1.3172380 -1.9000150 1.0844340
vn -0.9240313 0.0080783 -0.3822316
vt 0.8737969 0.7667968
v -1.3172290 3.0144999 1.0568080
vn -0.9238935 -0.0021622 -0.3826438
vt 0.8737969 -3.0553732
v -1.3668700 3.0238020 1.1764470
vn -0.9237051 -0.0021777 -0.3830982
vt 0.9967785 -3.0599623
v -1.2674720 2.3708839 0.0555411
vn 0.9169598 -0.1104021 0.3834008
vt 0.9983065 -4.3989782
v -1.2674810 3.2230480 0.5679009
vn 0.9135016 -0.2118375 0.3473322
vt 0.9967785 -3.4919748
v -1.3172290 2.3570170 0.1705478
vn 0.9220566 -0.1064658 0.3721245
vt 0.8849444 -4.3989782
v -1.3172380 3.1406381 0.6560376
vn 0.9218130 -0.2041447 0.3295236
vt 0.8737969 -3.5195599
v -1.3172290 -2.0543759 0.1737244
vn 0.9203680 0.0872409 0.3811978
vt 0.8737969 2.9009230
v -1.2674810 -2.0512979 0.0555414
vn 0.9190657 0.0442957 0.3916073
vt 0.9967785 2.9051521
v -1.3172290 2.3570170 0.1705478
vn 0.9220566 -0.1064658 0.3721245
vt 0.8752601 6.6407180
v -1.2674720 2.3708839 0.0555411
vn 0.9169598 -0.1104021 0.3834008
vt 0.9967477 6.6467619
v -1.3172290 -2.8359280 0.4483629
vn 0.9217215 0.1285844 0.3659174
vt 0.8737969 2.2412729
v -1.2674820 -2.8860071 0.3406509
vn 0.9170906 0.1304759 0.3767239
vt 0.9967785 2.2358580
v -0.9704506 -3.0784571 0.4394008
vn 0.0000000 0.7347205 0.6783701
vt 0.0432419 2.4961300
v -0.9704506 -2.8866119 0.3408708
vn 0.0000000 0.3910843 0.9203548
vt 0.0432419 2.6863191
v -1.6541150 -3.0784571 0.4394008
vn 0.0000000 0.6029067 0.7978117
vt 0.4294146 2.4961300
v -1.6541150 -2.8866119 0.3408708
vn 0.0000000 0.3910843 0.9203549
vt 0.4294146 2.6863191
v -1.3668700 -2.8860071 0.3406509
vn -0.9174012 0.1302417 0.3760481
vt 0.9967785 2.2359970
v -1.3172290 -2.8359280 0.4483629
vn -0.9220170 0.1283507 0.3652546
vt 0.8737969 2.2412729
v -1.5968070 -1.8989470 1.2585860
vn 0.0000000 -0.0246766 0.9996955
vt 0.4882920 1.0059170
v -1.0276680 -1.8989470 1.2585860
vn 0.0000000 -0.0246765 0.9996955
vt 0.8125451 1.0059170
v -1.5968070 3.0280089 1.2305590
vn 0.0000000 0.1624475 0.9867172
vt 0.4882920 -2.7459660
v -1.0276690 3.0280089 1.2305580
vn 0.0000000 0.1624473 0.9867173
vt 0.8125452 -2.7459660
v -1.5968070 -2.9437621 1.2010140
vn 0.0000000 -0.3097677 0.9508123
vt 0.4882920 1.7966650
v -1.0276680 -2.9437611 1.2010140
vn 0.0000000 -0.3097678 0.9508123
vt 0.8125451 1.7966470
v -1.5968070 -3.2599680 0.8501520
vn 0.0000000 -0.9924595 0.1225734
vt 0.4882920 2.1546681
v -1.0276680 -3.2599690 0.8501520
vn 0.0000000 -0.9554656 0.2951026
vt 0.8125451 2.1546800
v -1.5968070 -3.1490381 1.0680290
vn 0.0000000 -0.7996358 0.6004854
vt 0.4882920 1.9761730
v -1.0276680 -3.1490381 1.0680290
vn 0.0000000 -0.6801937 0.7330324
vt 0.8125451 1.9761810
v -1.5968070 -3.2480960 0.6055039
vn 0.0000000 -0.9200097 -0.3918957
vt 0.4882920 2.3323939
v -1.0276680 -3.2480969 0.6055039
vn 0.0000000 -0.9752848 -0.2209516
vt 0.8125451 2.3324039
v -1.5968070 -3.1157780 0.4022121
vn 0.0000000 -0.6129292 -0.7901378
vt 0.4882920 2.4961300
v -1.0276680 -3.1157780 0.4022121
vn 0.0000000 -0.7373428 -0.6755188
vt 0.8125451 2.4961300
v -1.5968070 -2.9103920 0.2913157
vn 0.0000000 -0.3754727 -0.9268335
vt 0.4882919 2.6863201
v -1.0276680 -2.9103920 0.2913157
vn 0.0000000 -0.4260124 -0.9047173
vt 0.8125451 2.6862869
v -1.0276680 -2.0596189 0.0000000
vn 0.0000000 -0.2186008 -0.9758144
vt 0.8125451 3.3647020
v -1.5968070 -2.0596189 0.0000000
vn 0.0000000 -0.1093005 -0.9940088
vt 0.4882919 3.3647039
v -1.0276680 2.3870931 0.0000000
vn 0.0000000 0.1786380 -0.9839149
vt 0.8125452 6.6022639
v -1.5968070 2.3870931 0.0000000
vn 0.0000000 0.3572761 -0.9339988
vt 0.4882920 6.6024270
v -1.5968070 3.2543011 1.1554040
vn 0.0000000 0.5909203 0.8067300
vt 0.4882919 -2.9295909
v -1.0276690 3.2543011 1.1554040
vn 0.0000000 0.5909197 0.8067304
vt 0.8125452 -2.9295909
v -1.5968070 3.3958690 0.9600334
vn 0.0000000 0.9124134 0.4092700
vt 0.4882920 -3.1178942
v -1.0276690 3.3958690 0.9600334
vn 0.0000000 0.9786759 0.2054108
vt 0.8125451 -3.1178942
v -0.9704506 -1.8992790 1.2044320
vn 0.6872379 -0.0173340 0.7262256
vt 0.4688572 1.0059170
v -0.9704506 3.0238020 1.1764470
vn 0.6880634 0.0792768 0.7213071
vt 0.4688572 -2.7459660
v -1.0276680 -1.8989470 1.2585860
vn 0.6842929 -0.0177848 0.7289904
vt 0.4293154 1.0059170
v -1.0276690 3.0280089 1.2305580
vn 0.6822900 0.1563689 0.7141632
vt 0.4293154 -2.7459660
v -0.9704509 3.2226140 1.1115320
vn 0.6898118 0.4278006 0.5840774
vt 0.4688572 -2.9295909
v -1.0276690 3.2543011 1.1554040
vn 0.6871452 0.4294966 0.5859729
vt 0.4293154 -2.9295909
v -0.9704506 -2.0512979 0.0555412
vn 0.6981161 -0.1566234 -0.6986437
vt 0.4688572 3.3647039
v -1.0276680 -2.0596189 0.0000000
vn 0.7002137 -0.0781703 -0.7096410
vt 0.4293154 3.3647039
v -0.9704506 2.3708270 0.0555411
vn 0.7049987 0.1914432 -0.6828810
vt 0.4688572 6.6011930
v -1.0276680 2.3870931 0.0000000
vn 0.7110977 0.1888948 -0.6772436
vt 0.4293154 6.6035280
v -0.9704506 -3.0784571 0.4394008
vn 0.6853189 -0.4438657 -0.5773398
vt 0.4688572 2.4961300
v -0.9704506 -3.1963520 0.6221786
vn 0.6864909 -0.6919338 -0.2235127
vt 0.4688572 2.3315370
v -1.0276680 -3.1157780 0.4022121
vn 0.6791764 -0.5411373 -0.4958728
vt 0.4293154 2.4961300
v -1.0276680 -3.2480969 0.6055039
vn 0.6888057 -0.6897746 -0.2230644
vt 0.4293154 2.3315370
v -1.0276680 -3.2599690 0.8501520
vn 0.6857515 -0.7223783 0.0889638
vt 0.4293154 2.1546681
v -0.9704506 -3.2071550 0.8387709
vn 0.6869389 -0.6943054 0.2146044
vt 0.4688572 2.1546681
v -1.0276680 -3.1490381 1.0680290
vn 0.6877534 -0.5799876 0.4365886
vt 0.4293154 1.9761730
v -0.9704506 -3.1079681 1.0320590
vn 0.6901432 -0.4910661 0.5315604
vt 0.4688572 1.9761730
v -1.0276680 -2.9437611 1.2010140
vn 0.6885336 -0.2835360 0.6674795
vt 0.4293154 1.7966650
v -0.9704505 -2.9252040 1.1496080
vn 0.6919600 -0.1609607 0.7037635
vt 0.4688572 1.7966650
v -1.5968070 3.2543011 1.1554040
vn -0.6865728 0.4298170 0.5864087
vt 0.0428439 -2.9295909
v -1.6541150 3.2226140 1.1115320
vn -0.6892419 0.4281201 0.5845159
vt 0.0033021 -2.9295909
v -1.5968070 3.0280089 1.2305590
vn -0.6817166 0.1564822 0.7146858
vt 0.0428439 -2.7459660
v -1.6541150 3.0238020 1.1764470
vn -0.6874920 0.0793343 0.7218454
vt 0.0033021 -2.7459660
v -1.5968070 3.3958690 0.9600334
vn -0.6872808 0.6908743 0.2243612
vt 0.0428439 -3.1178942
v -1.6541150 3.3442719 0.9431601
vn -0.6876985 0.6906397 0.2238025
vt 0.0033021 -3.1178942
v -1.5968070 3.3962290 0.7171771
vn -0.6884711 0.6900589 -0.2232179
vt 0.0428439 -3.3059092
v -1.6541150 3.3445401 0.7341410
vn -0.6901430 0.6884481 -0.2230288
vt 0.0033021 -3.3059092
v -1.5968070 3.2596869 0.5289497
vn -0.6873029 0.4917379 -0.5346107
vt 0.0428439 -3.4919429
v -1.6541150 3.2226470 0.5676408
vn -0.6827226 0.4924917 -0.5397609
vt 0.0033021 -3.4919429
v -1.5968070 2.3870931 0.0000000
vn -0.7105404 0.1890457 -0.6777862
vt 0.0428439 -4.3989782
v -1.6541150 2.3708270 0.0555411
vn -0.7044373 0.1915908 -0.6834187
vt 0.0033021 -4.3989782
v -1.5968070 2.3870931 0.0000000
vn -0.7105404 0.1890457 -0.6777862
vt 0.0428439 6.6036348
v -1.5968070 -2.0596189 0.0000000
vn -0.6996470 -0.0782307 -0.7101929
vt 0.0428439 3.3647039
v -1.6541150 2.3708270 0.0555411
vn -0.7044373 0.1915908 -0.6834187
vt 0.0033021 6.6019702
v -1.6541150 -2.0512979 0.0555412
vn -0.6975480 -0.1567439 -0.6991840
vt 0.0033021 3.3647039
v -1.5968070 -3.2599680 0.8501520
vn -0.6851743 -0.7229177 0.0890284
vt 0.0428439 2.1546681
v -1.5968070 -3.1490381 1.0680290
vn -0.6871789 -0.5804220 0.4369160
vt 0.0428439 1.9761730
v -1.6541150 -3.2071540 0.8387709
vn -0.6863633 -0.6948248 0.2147653
vt 0.0033021 2.1546681
v -1.6541150 -3.1079681 1.0320590
vn -0.6895701 -0.4914365 0.5319616
vt 0.0033021 1.9761730
v -1.5968070 -2.9437621 1.2010140
vn -0.6879603 -0.2837495 0.6679797
vt 0.0428439 1.7966650
v -1.5968070 -1.8989470 1.2585860
vn -0.6837171 -0.0177980 0.7295301
vt 0.0428439 1.0059170
v -1.6541150 -2.9252040 1.1496080
vn -0.6913880 -0.1610830 0.7042974
vt 0.0033021 1.7966650
v -1.6541150 -1.8992790 1.2044320
vn -0.6866618 -0.0173472 0.7267700
vt 0.0033021 1.0059170
v -0.9704506 -2.8866119 0.3408708
vn 0.6923941 -0.2820979 -0.6640868
vt 0.4688572 2.6863191
v -1.0276680 -2.9103920 0.2913157
vn 0.6859363 -0.2887215 -0.6679307
vt 0.4293154 2.6863191
v -1.5968070 -3.1157780 0.4022121
vn -0.6785939 -0.5415371 -0.4962337
vt 0.0428439 2.4961300
v -1.6541150 -3.0784571 0.4394008
vn -0.6847411 -0.4441977 -0.5777699
vt 0.0033021 2.4961300
v -1.5968070 -2.9103920 0.2913157
vn -0.6853595 -0.2889364 -0.6684296
vt 0.0428439 2.6863191
v -1.6541150 -2.8866119 0.3408708
vn -0.6918216 -0.2823130 -0.6645918
vt 0.0033021 2.6863191
v -1.0276690 3.3958690 0.9600334
vn 0.6878521 0.6903598 0.2241936
vt 0.4293154 -3.1178942
v -0.9704509 3.3442719 0.9431601
vn 0.6882699 0.6901248 0.2236348
vt 0.4688572 -3.1178942
v -1.5968070 3.3962290 0.7171771
vn 0.0000000 0.9790558 -0.2035922
vt 0.4882920 -3.3059092
v -1.0276690 3.3962290 0.7171771
vn 0.0000000 0.9126527 -0.4087359
vt 0.8125451 -3.3059521
v -0.9704506 3.3445401 0.7341410
vn 0.0000000 -0.9506941 0.3101303
vt 0.0432419 -3.3059092
v -1.6541150 3.3445401 0.7341410
vn 0.0000000 -0.9506943 0.3101297
vt 0.4294146 -3.3059092
v -0.9704506 3.3445401 0.7341410
vn 0.6907127 0.6879311 -0.2228607
vt 0.4688572 -3.3059092
v -1.0276690 3.3962290 0.7171771
vn 0.6890416 0.6895432 -0.2230515
vt 0.4293154 -3.3059092
v -1.5968070 3.2596869 0.5289497
vn 0.0000000 0.7251507 -0.6885902
vt 0.4882920 -3.4919429
v -1.0276690 3.2596869 0.5289497
vn 0.0000000 0.6263930 -0.7795075
vt 0.8125451 -3.4919748
v -0.9704506 3.2226470 0.5676408
vn 0.0000000 -0.6743418 0.7384194
vt 0.0432419 -3.4919429
v -1.6541150 3.2226470 0.5676408
vn 0.0000000 -0.6743419 0.7384193
vt 0.4294146 -3.4919429
v -1.0276690 3.2596869 0.5289497
vn 0.6878743 0.4913730 -0.5342112
vt 0.4293154 -3.4919429
v -0.9704506 3.2226470 0.5676408
vn 0.6832964 0.4921299 -0.5393647
vt 0.4688572 -3.4919429
v -1.5968070 2.3870931 0.0000000
vn 0.0000000 0.3572761 -0.9339988
vt 0.4882919 -4.3989782
v -1.0276680 2.3870931 0.0000000
vn 0.0000000 0.1786380 -0.9839149
vt 0.8125451 -4.3989782
v -0.9704506 2.3708270 0.0555411
vn 0.0000000 -0.1774776 0.9841248
vt 0.0432419 -4.3989782
v -1.6541150 2.3708270 0.0555411
vn 0.0000000 -0.3549553 0.9348833
vt 0.4294146 -4.3989782
v -1.0276680 2.3870931 0.0000000
vn 0.7110977 0.1888948 -0.6772436
vt 0.4293154 -4.3989782
v -0.9704506 2.3708270 0.0555411
vn 0.7049987 0.1914432 -0.6828810
vt 0.4688572 -4.3989782
v -1.5968070 -3.2480960 0.6055039
vn -0.6882294 -0.6902949 -0.2232339
vt 0.0428439 2.3315370
v -1.6541150 -3.1963511 0.6221786
vn -0.6859130 -0.6924527 -0.2236799
vt 0.0033021 2.3315370

g group_155264488_2822788354528
f 1/1/1 2/2/2 3/3/3 
f 3/3/3 2/2/2 4/4/4 
f 2/2/2 1/1/1 5/5/5 
f 5/5/5 1/1/1 6/6/6 
f 7/7/7 8/8/8 9/9/9 
f 9/9/9 8/8/8 10/10/10 
f 11/11/11 12/12/12 13/13/13 
f 13/13/13 12/12/12 14/14/14 
f 15/15/15 11/11/11 16/16/16 
f 16/16/16 11/11/11 13/13/13 
f 17/17/17 18/18/18 19/19/19 
f 19/19/19 18/18/18 20/20/20 
f 19/19/19 20/20/20 6/6/6 
f 6/6/6 20/20/20 5/5/5 
f 21/21/21 22/22/22 23/23/23 
f 23/23/23 22/22/22 24/24/24 
f 25/25/25 26/26/26 27/27/27 
f 27/27/27 26/26/26 28/28/28 
f 29/29/29 30/30/30 31/31/31 
f 31/31/31 30/30/30 32/32/32 
f 32/32/32 30/30/30 33/33/33 
f 33/33/33 30/30/30 34/34/34 
f 35/35/35 36/36/36 37/37/37 
f 37/37/37 36/36/36 38/38/38 
f 39/39/39 40/40/40 41/41/41 
f 41/41/41 40/40/40 42/42/42 
f 43/43/43 44/44/44 39/39/39 
f 39/39/39 44/44/44 40/40/40 
f 45/45/45 46/46/46 47/47/47 
f 47/47/47 46/46/46 48/48/48 
f 27/27/27 49/49/49 25/25/25 
f 25/25/25 49/49/49 50/50/50 
f 51/51/51 52/52/52 53/53/53 
f 53/53/53 52/52/52 54/54/54 
f 51/51/51 55/55/55 52/52/52 
f 52/52/52 55/55/55 56/56/56 
f 57/57/57 58/58/58 59/59/59 
f 59/59/59 58/58/58 60/60/60 
f 61/61/61 62/62/62 57/57/57 
f 57/57/57 62/62/62 58/58/58 
f 63/63/63 64/64/64 61/61/61 
f 61/61/61 64/64/64 62/62/62 
f 65/65/65 66/66/66 63/63/63 
f 63/63/63 66/66/66 64/64/64 
f 67/67/67 68/68/68 69/69/69 
f 69/69/69 68/68/68 70/70/70 
f 71/71/71 72/72/72 73/73/73 
f 73/73/73 72/72/72 74/74/74 
f 54/54/54 72/72/72 53/53/53 
f 53/53/53 72/72/72 71/71/71 
f 75/75/75 76/76/76 77/77/77 
f 77/77/77 76/76/76 78/78/78 
f 76/76/76 79/79/79 78/78/78 
f 78/78/78 79/79/79 80/80/80 
f 81/81/81 82/82/82 83/83/83 
f 83/83/83 82/82/82 84/84/84 
f 85/85/85 86/86/86 87/87/87 
f 87/87/87 86/86/86 88/88/88 
f 88/88/88 86/86/86 89/89/89 
f 89/89/89 86/86/86 90/90/90 
f 89/89/89 90/90/90 91/91/91 
f 91/91/91 90/90/90 92/92/92 
f 93/93/93 94/94/94 77/77/77 
f 77/77/77 94/94/94 75/75/75 
f 95/95/95 96/96/96 97/97/97 
f 97/97/97 96/96/96 98/98/98 
f 95/95/95 99/99/99 96/96/96 
f 96/96/96 99/99/99 100/100/100 
f 101/101/101 102/102/102 99/99/99 
f 99/99/99 102/102/102 100/100/100 
f 101/101/101 103/103/103 102/102/102 
f 102/102/102 103/103/103 104/104/104 
f 105/105/105 106/106/106 103/103/103 
f 103/103/103 106/106/106 104/104/104 
f 107/107/107 108/108/108 109/109/109 
f 109/109/109 108/108/108 110/110/110 
f 111/111/111 112/112/112 113/113/113 
f 113/113/113 112/112/112 114/114/114 
f 115/115/115 116/116/116 117/117/117 
f 117/117/117 116/116/116 118/118/118 
f 118/118/118 116/116/116 98/98/98 
f 98/98/98 116/116/116 97/97/97 
f 119/119/119 85/85/85 120/120/120 
f 120/120/120 85/85/85 87/87/87 
f 12/12/12 45/45/45 14/14/14 
f 14/14/14 45/45/45 47/47/47 
f 121/121/121 122/122/122 123/123/123 
f 123/123/123 122/122/122 124/124/124 
f 80/80/80 79/79/79 125/125/125 
f 125/125/125 79/79/79 126/126/126 
f 73/73/73 74/74/74 127/127/127 
f 127/127/127 74/74/74 128/128/128 
f 129/129/129 3/3/3 130/130/130 
f 130/130/130 3/3/3 4/4/4 
f 126/126/126 131/131/131 125/125/125 
f 125/125/125 131/131/131 132/132/132 
f 127/127/127 128/128/128 133/133/133 
f 133/133/133 128/128/128 134/134/134 
f 129/129/129 130/130/130 135/135/135 
f 135/135/135 130/130/130 136/136/136 
f 132/132/132 131/131/131 137/137/137 
f 137/137/137 131/131/131 138/138/138 
f 133/133/133 134/134/134 139/139/139 
f 139/139/139 134/134/134 140/140/140 
f 141/141/141 135/135/135 142/142/142 
f 142/142/142 135/135/135 136/136/136 
f 143/143/143 137/137/137 144/144/144 
f 144/144/144 137/137/137 138/138/138 
f 7/7/7 9/9/9 46/46/46 
f 46/46/46 9/9/9 48/48/48 
f 108/108/108 123/123/123 110/110/110 
f 110/110/110 123/123/123 124/124/124 
f 66/66/66 65/65/65 67/67/67 
f 67/67/67 65/65/65 68/68/68 
f 119/119/119 120/120/120 81/81/81 
f 81/81/81 120/120/120 82/82/82 
f 145/145/145 146/146/146 121/121/121 
f 121/121/121 146/146/146 122/122/122 
f 145/145/145 111/111/111 146/146/146 
f 146/146/146 111/111/111 113/113/113 
f 59/59/59 60/60/60 55/55/55 
f 55/55/55 60/60/60 56/56/56 
f 17/17/17 15/15/15 18/18/18 
f 18/18/18 15/15/15 16/16/16 
f 91/91/91 92/92/92 93/93/93 
f 93/93/93 92/92/92 94/94/94 
f 112/112/112 115/115/115 114/114/114 
f 114/114/114 115/115/115 117/117/117 
