v 1.4680001 1.7739190 0.8483983
vn 0.0000000 0.7096272 -0.7045774
vt 0.3726704 0.7599931
v 1.1510000 1.7739190 0.8483984
vn 0.0000000 0.7096285 -0.7045761
vt 0.4025838 0.7599931
v 1.4680001 1.8343890 0.9943214
vn 0.0000000 1.0000000 0.0000000
vt 0.3726704 0.7369871
v 1.1510000 1.8343890 0.9943214
vn 0.0000000 1.0000000 0.0000000
vt 0.4025838 0.7369871
v 1.4680001 1.6294200 0.7878831
vn 0.0000000 0.0000000 -1.0000000
vt 0.3726704 0.7483271
v 1.1510000 1.6294200 0.7878831
vn 0.0000000 0.0000000 -1.0000000
vt 0.4025838 0.7483271
v 1.4680001 1.4819440 0.8483983
vn 0.0000000 -0.7045280 -0.7096761
vt 0.3726704 0.7599931
v 1.1510000 1.4819440 0.8483983
vn 0.0000000 -0.7045279 -0.7096763
vt 0.4025838 0.7599931
v 1.4680001 1.4214730 0.9943213
vn 0.0000000 -1.0000000 0.0000000
vt 0.3726704 0.7369871
v 1.1510000 1.4214730 0.9943214
vn 0.0000000 -1.0000000 0.0000000
vt 0.4025838 0.7369871
v 1.4680001 1.4819440 1.1403739
vn 0.0000000 -0.7072174 0.7069962
vt 0.3726704 0.7483271
v 1.1510000 1.4819440 1.1403739
vn 0.0000000 -0.7072172 0.7069964
vt 0.4025838 0.7483271
v 1.4680001 1.6279310 1.2008440
vn 0.0000000 0.0000000 1.0000000
vt 0.3726704 0.7599931
v 1.1510000 1.6279310 1.2008440
vn 0.0000000 0.0000000 1.0000000
vt 0.4025838 0.7599931
v 1.4680001 1.7739190 1.1403739
vn 0.0000000 0.7072175 0.7069961
vt 0.3726704 0.7483271
v 1.1510000 1.7739190 1.1403739
vn 0.0000000 0.7072177 0.7069959
vt 0.4025838 0.7483271
v 1.4680001 1.7739190 1.1403739
vn 1.0000000 0.0000000 0.0000000
vt 0.5881779 0.4214883
v 1.4680001 1.6279310 1.2008440
vn 1.0000000 0.0000000 0.0000000
vt 0.5945602 0.4064698
v 1.4680001 1.8343890 0.9943214
vn 1.0000000 0.0000000 0.0000000
vt 0.5730376 0.4275959
v 1.4680001 1.4819440 1.1403739
vn 1.0000000 0.0000000 0.0000000
vt 0.5884527 0.3913381
v 1.4680001 1.4214730 0.9943213
vn 1.0000000 0.0000000 0.0000000
vt 0.5734265 0.3849573
v 1.4680001 1.4819440 0.8483983
vn 1.0000000 0.0000000 0.0000000
vt 0.5583001 0.3910652
v 1.4680001 1.6294200 0.7878831
vn 1.0000000 0.0000000 0.0000000
vt 0.5519117 0.4062369
v 1.4680001 1.7739190 0.8483983
vn 1.0000000 0.0000000 0.0000000
vt 0.5580248 0.4212151
v 1.4680001 1.7739190 0.8483983
vn 0.0000000 0.7096272 -0.7045774
vt 0.3726704 0.7599931
v 1.1510000 1.7739190 0.8483984
vn 0.0000000 0.7096285 -0.7045761
vt 0.4025838 0.7599931
v 1.4680001 1.8343890 0.9943214
vn 0.0000000 1.0000000 0.0000000
vt 0.3726704 0.7369871
v 1.1510000 1.8343890 0.9943214
vn 0.0000000 1.0000000 0.0000000
vt 0.4025838 0.7369871
v 1.4680001 1.6294200 0.7878831
vn 0.0000000 0.0000000 -1.0000000
vt 0.3726704 0.7483271
v 1.1510000 1.6294200 0.7878831
vn 0.0000000 0.0000000 -1.0000000
vt 0.4025838 0.7483271
v 1.4680001 1.4819440 0.8483983
vn 0.0000000 -0.7045280 -0.7096761
vt 0.3726704 0.7599931
v 1.1510000 1.4819440 0.8483983
vn 0.0000000 -0.7045279 -0.7096763
vt 0.4025838 0.7599931
v 1.4680001 1.4214730 0.9943213
vn 0.0000000 -1.0000000 0.0000000
vt 0.3726704 0.7369871
v 1.1510000 1.4214730 0.9943214
vn 0.0000000 -1.0000000 0.0000000
vt 0.4025838 0.7369871
v 1.4680001 1.6279310 1.2008440
vn 0.0000000 0.0000000 1.0000000
vt 0.3726704 0.7599931
v 1.1510000 1.6279310 1.2008440
vn 0.0000000 0.0000000 1.0000000
vt 0.4025838 0.7599931

g group_155266504_2822789031808
f 1/1/1 2/2/2 3/3/3 
f 3/3/3 2/2/2 4/4/4 
f 5/5/5 6/6/6 25/25/25 
f 25/25/25 6/6/6 26/26/26 
f 7/7/7 8/8/8 29/29/29 
f 29/29/29 8/8/8 30/30/30 
f 9/9/9 10/10/10 31/31/31 
f 31/31/31 10/10/10 32/32/32 
f 11/11/11 12/12/12 33/33/33 
f 33/33/33 12/12/12 34/34/34 
f 13/13/13 14/14/14 11/11/11 
f 11/11/11 14/14/14 12/12/12 
f 15/15/15 16/16/16 35/35/35 
f 35/35/35 16/16/16 36/36/36 
f 27/27/27 28/28/28 15/15/15 
f 15/15/15 28/28/28 16/16/16 
f 17/17/17 18/18/18 19/19/19 
f 18/18/18 20/20/20 19/19/19 
f 20/20/20 21/21/21 19/19/19 
f 21/21/21 22/22/22 19/19/19 
f 22/22/22 23/23/23 19/19/19 
f 23/23/23 24/24/24 19/19/19 
