v -1.4680001 -1.7532090 0.8483984
vn 0.0000000 0.7096272 -0.7045774
vt 0.3726704 0.7599931
v -1.4680001 -1.6927381 0.9943214
vn 0.0000000 1.0000000 0.0000000
vt 0.3726704 0.7369871
v -1.1510000 -1.7532080 0.8483985
vn 0.0000000 0.7096285 -0.7045761
vt 0.4025838 0.7599931
v -1.1510000 -1.6927381 0.9943214
vn 0.0000000 1.0000000 0.0000000
vt 0.4025838 0.7369871
v -1.4680001 -1.8977070 0.7878832
vn 0.0000000 0.0000000 -1.0000000
vt 0.3726704 0.7483271
v -1.1510000 -1.8977070 0.7878832
vn 0.0000000 0.0000000 -1.0000000
vt 0.4025838 0.7483271
v -1.4680001 -2.0451839 0.8483984
vn 0.0000000 -0.7045282 -0.7096760
vt 0.3726704 0.7599931
v -1.1510000 -2.0451839 0.8483984
vn 0.0000000 -0.7045279 -0.7096763
vt 0.4025838 0.7599931
v -1.4680001 -2.1056540 0.9943214
vn 0.0000000 -1.0000000 0.0000000
vt 0.3726704 0.7369871
v -1.1510000 -2.1056540 0.9943214
vn 0.0000000 -1.0000000 0.0000000
vt 0.4025838 0.7369871
v -1.4680001 -2.0451839 1.1403739
vn 0.0000000 -0.7072174 0.7069962
vt 0.3726704 0.7483271
v -1.1510000 -2.0451839 1.1403739
vn 0.0000000 -0.7072172 0.7069964
vt 0.4025838 0.7483271
v -1.4680001 -1.8991960 1.2008440
vn 0.0000000 0.0000000 1.0000000
vt 0.3726704 0.7599931
v -1.1510000 -1.8991960 1.2008440
vn 0.0000000 0.0000000 1.0000000
vt 0.4025838 0.7599931
v -1.4680001 -1.7532080 1.1403739
vn 0.0000000 0.7072175 0.7069961
vt 0.3726704 0.7483271
v -1.1510000 -1.7532080 1.1403739
vn 0.0000000 0.7072177 0.7069959
vt 0.4025838 0.7483271
v -1.4680001 -1.7532080 1.1403739
vn -1.0000000 0.0000000 0.0000000
vt 0.5881789 0.4214893
v -1.4680001 -1.6927381 0.9943214
vn -1.0000000 0.0000000 0.0000000
vt 0.5730375 0.4275974
v -1.4680001 -1.8991960 1.2008440
vn -1.0000000 0.0000000 0.0000000
vt 0.5945617 0.4064698
v -1.4680001 -1.7532090 0.8483984
vn -1.0000000 0.0000000 0.0000000
vt 0.5580238 0.4212162
v -1.4680001 -2.0451839 1.1403739
vn -1.0000000 0.0000000 0.0000000
vt 0.5884537 0.3913371
v -1.4680001 -1.8977070 0.7878832
vn -1.0000000 0.0000000 0.0000000
vt 0.5519103 0.4062369
v -1.4680001 -2.0451839 0.8483984
vn -1.0000000 0.0000000 0.0000000
vt 0.5582990 0.3910642
v -1.4680001 -2.1056540 0.9943214
vn -1.0000000 0.0000000 0.0000000
vt 0.5734265 0.3849559
v -1.4680001 -1.7532090 0.8483984
vn 0.0000000 0.7096272 -0.7045774
vt 0.3726704 0.7599931
v -1.4680001 -1.6927381 0.9943214
vn 0.0000000 1.0000000 0.0000000
vt 0.3726704 0.7369871
v -1.1510000 -1.7532080 0.8483985
vn 0.0000000 0.7096285 -0.7045761
vt 0.4025838 0.7599931
v -1.1510000 -1.6927381 0.9943214
vn 0.0000000 1.0000000 0.0000000
vt 0.4025838 0.7369871
v -1.4680001 -1.8977070 0.7878832
vn 0.0000000 0.0000000 -1.0000000
vt 0.3726704 0.7483271
v -1.1510000 -1.8977070 0.7878832
vn 0.0000000 0.0000000 -1.0000000
vt 0.4025838 0.7483271
v -1.4680001 -2.0451839 0.8483984
vn 0.0000000 -0.7045282 -0.7096760
vt 0.3726704 0.7599931
v -1.1510000 -2.0451839 0.8483984
vn 0.0000000 -0.7045279 -0.7096763
vt 0.4025838 0.7599931
v -1.4680001 -2.1056540 0.9943214
vn 0.0000000 -1.0000000 0.0000000
vt 0.3726704 0.7369871
v -1.1510000 -2.1056540 0.9943214
vn 0.0000000 -1.0000000 0.0000000
vt 0.4025838 0.7369871
v -1.4680001 -1.8991960 1.2008440
vn 0.0000000 0.0000000 1.0000000
vt 0.3726704 0.7599931
v -1.1510000 -1.8991960 1.2008440
vn 0.0000000 0.0000000 1.0000000
vt 0.4025838 0.7599931

g group_155265664_2822788353920
f 1/1/1 2/2/2 3/3/3 
f 3/3/3 2/2/2 4/4/4 
f 5/5/5 25/25/25 6/6/6 
f 6/6/6 25/25/25 27/27/27 
f 7/7/7 29/29/29 8/8/8 
f 8/8/8 29/29/29 30/30/30 
f 9/9/9 31/31/31 10/10/10 
f 10/10/10 31/31/31 32/32/32 
f 11/11/11 33/33/33 12/12/12 
f 12/12/12 33/33/33 34/34/34 
f 13/13/13 11/11/11 14/14/14 
f 14/14/14 11/11/11 12/12/12 
f 15/15/15 35/35/35 16/16/16 
f 16/16/16 35/35/35 36/36/36 
f 26/26/26 15/15/15 28/28/28 
f 28/28/28 15/15/15 16/16/16 
f 17/17/17 18/18/18 19/19/19 
f 18/18/18 20/20/20 19/19/19 
f 19/19/19 20/20/20 21/21/21 
f 20/20/20 22/22/22 21/21/21 
f 22/22/22 23/23/23 21/21/21 
f 23/23/23 24/24/24 21/21/21 
