v -1.1518600 0.6810727 0.5704695
vn 0.0000000 0.7072178 0.7069958
vt 0.7292060 0.4027584
v -1.1518600 0.7696455 0.3565409
vn 0.0000000 1.0000000 0.0000000
vt 0.7292060 0.3740338
v -1.4681830 0.6810727 0.5704695
vn 0.0000000 0.7072175 0.7069961
vt 0.7596936 0.4027584
v -1.4681830 0.7696455 0.3565409
vn 0.0000000 1.0000000 0.0000000
vt 0.7596935 0.3740338
v -1.1518600 0.4672389 0.6590424
vn 0.0000000 0.0000000 1.0000000
vt 0.7292050 0.3740338
v -1.4681830 0.4672388 0.6590424
vn 0.0000000 0.0000000 1.0000000
vt 0.7596946 0.3740338
v -1.1518600 0.2534048 0.5704695
vn 0.0000000 -0.7072172 0.7069963
vt 0.7292060 0.4027584
v -1.4681830 0.2534048 0.5704695
vn 0.0000000 -0.7072173 0.7069963
vt 0.7596935 0.4027584
v -1.1518600 0.1648318 0.3565409
vn 0.0000000 -1.0000000 0.0000000
vt 0.7292060 0.3740338
v -1.4681830 0.1648318 0.3565409
vn 0.0000000 -1.0000000 0.0000000
vt 0.7596934 0.3740338
v -1.1518600 0.2534048 0.1428016
vn 0.0000000 -0.7072175 -0.7069961
vt 0.7292061 0.4027584
v -1.4681830 0.2534048 0.1428016
vn 0.0000000 -0.7072175 -0.7069961
vt 0.7596936 0.4027584
v -1.1518600 0.4672388 0.0540391
vn 0.0000000 0.0000000 -1.0000000
vt 0.7292072 0.3740338
v -1.4681830 0.4672389 0.0540391
vn 0.0000000 0.0000000 -1.0000000
vt 0.7596925 0.3740338
v -1.1518600 0.6810727 0.1428016
vn 0.0000000 0.7072176 -0.7069960
vt 0.7292060 0.4027584
v -1.4681830 0.6810727 0.1428016
vn 0.0000000 0.7072182 -0.7069953
vt 0.7596936 0.4027584
v -1.1518600 0.6810727 0.1428016
vn 1.0000000 0.0000000 0.0000000
vt 0.4444630 0.3750543
v -1.1518600 0.7696455 0.3565409
vn 1.0000000 0.0000000 0.0000000
vt 0.4352001 0.3974061
v -1.1518600 0.4672388 0.0540391
vn 1.0000000 0.0000000 0.0000000
vt 0.4668249 0.3657717
v -1.1518600 0.6810727 0.5704695
vn 1.0000000 0.0000000 0.0000000
vt 0.4444628 0.4197778
v -1.1518600 0.2534048 0.1428016
vn 1.0000000 0.0000000 0.0000000
vt 0.4891869 0.3750541
v -1.1518600 0.4672389 0.6590424
vn 1.0000000 0.0000000 0.0000000
vt 0.4668249 0.4290401
v -1.1518600 0.2534048 0.5704695
vn 1.0000000 0.0000000 0.0000000
vt 0.4891869 0.4197777
v -1.1518600 0.1648318 0.3565409
vn 1.0000000 0.0000000 0.0000000
vt 0.4984497 0.3974061
v -1.4681830 0.6810727 0.5704695
vn -1.0000000 0.0000000 0.0000000
vt 0.4444629 0.4197776
v -1.4681830 0.7696455 0.3565409
vn -1.0000000 0.0000000 0.0000000
vt 0.4352002 0.3974060
v -1.4681830 0.4672388 0.6590424
vn -1.0000000 0.0000000 0.0000000
vt 0.4668249 0.4290401
v -1.4681830 0.6810727 0.1428016
vn -1.0000000 0.0000000 0.0000000
vt 0.4444627 0.3750542
v -1.4681830 0.2534048 0.5704695
vn -1.0000000 0.0000000 0.0000000
vt 0.4891869 0.4197778
v -1.4681830 0.4672389 0.0540391
vn -1.0000000 0.0000000 0.0000000
vt 0.4668249 0.3657717
v -1.4681830 0.2534048 0.1428016
vn -1.0000000 0.0000000 0.0000000
vt 0.4891872 0.3750540
v -1.4681830 0.1648318 0.3565409
vn -1.0000000 0.0000000 0.0000000
vt 0.4984496 0.3974060
v -1.1518600 0.6810727 0.5704695
vn 0.0000000 0.7072178 0.7069958
vt 0.7292060 0.4027584
v -1.1518600 0.7696455 0.3565409
vn 0.0000000 1.0000000 0.0000000
vt 0.7292060 0.3740338
v -1.4681830 0.6810727 0.5704695
vn 0.0000000 0.7072175 0.7069961
vt 0.7596936 0.4027584
v -1.4681830 0.7696455 0.3565409
vn 0.0000000 1.0000000 0.0000000
vt 0.7596935 0.3740338
v -1.1518600 0.4672389 0.6590424
vn 0.0000000 0.0000000 1.0000000
vt 0.7292050 0.3740338
v -1.4681830 0.4672388 0.6590424
vn 0.0000000 0.0000000 1.0000000
vt 0.7596946 0.3740338
v -1.1518600 0.2534048 0.5704695
vn 0.0000000 -0.7072172 0.7069963
vt 0.7292060 0.4027584
v -1.4681830 0.2534048 0.5704695
vn 0.0000000 -0.7072173 0.7069963
vt 0.7596935 0.4027584
v -1.1518600 0.1648318 0.3565409
vn 0.0000000 -1.0000000 0.0000000
vt 0.7292060 0.3740338
v -1.4681830 0.1648318 0.3565409
vn 0.0000000 -1.0000000 0.0000000
vt 0.7596934 0.3740338
v -1.1518600 0.2534048 0.1428016
vn 0.0000000 -0.7072175 -0.7069961
vt 0.7292061 0.4027584
v -1.4681830 0.2534048 0.1428016
vn 0.0000000 -0.7072175 -0.7069961
vt 0.7596936 0.4027584
v -1.1518600 0.4672388 0.0540391
vn 0.0000000 0.0000000 -1.0000000
vt 0.7292072 0.3740338
v -1.4681830 0.4672389 0.0540391
vn 0.0000000 0.0000000 -1.0000000
vt 0.7596925 0.3740338
v -1.1518600 0.6810727 0.1428016
vn 0.0000000 0.7072176 -0.7069960
vt 0.7292060 0.4027584
v -1.4681830 0.6810727 0.1428016
vn 0.0000000 0.7072182 -0.7069953
vt 0.7596936 0.4027584

g group_154789544_2822784380768
f 1/1/1 2/2/2 3/3/3 
f 3/3/3 2/2/2 4/4/4 
f 5/5/5 33/33/33 6/6/6 
f 6/6/6 33/33/33 35/35/35 
f 7/7/7 37/37/37 8/8/8 
f 8/8/8 37/37/37 38/38/38 
f 9/9/9 39/39/39 10/10/10 
f 10/10/10 39/39/39 40/40/40 
f 11/11/11 41/41/41 12/12/12 
f 12/12/12 41/41/41 42/42/42 
f 13/13/13 43/43/43 14/14/14 
f 14/14/14 43/43/43 44/44/44 
f 15/15/15 45/45/45 16/16/16 
f 16/16/16 45/45/45 46/46/46 
f 34/34/34 47/47/47 36/36/36 
f 36/36/36 47/47/47 48/48/48 
f 17/17/17 18/18/18 19/19/19 
f 18/18/18 20/20/20 19/19/19 
f 19/19/19 20/20/20 21/21/21 
f 20/20/20 22/22/22 21/21/21 
f 22/22/22 23/23/23 21/21/21 
f 23/23/23 24/24/24 21/21/21 
f 25/25/25 26/26/26 27/27/27 
f 26/26/26 28/28/28 27/27/27 
f 27/27/27 28/28/28 29/29/29 
f 28/28/28 30/30/30 29/29/29 
f 30/30/30 31/31/31 29/29/29 
f 31/31/31 32/32/32 29/29/29 
