v 1.1514680 -0.3705908 0.5704695
vn 0.0000000 0.7072178 0.7069957
vt 0.7292060 0.4027584
v 1.4677910 -0.3705908 0.5704695
vn 0.0000000 0.7072175 0.7069961
vt 0.7596925 0.4027584
v 1.1514680 -0.2820181 0.3565409
vn 0.0000000 1.0000000 0.0000000
vt 0.7292060 0.3740338
v 1.4677910 -0.2820181 0.3565409
vn 0.0000000 1.0000000 0.0000000
vt 0.7596925 0.3740338
v 1.1514680 -0.5844247 0.6590424
vn 0.0000000 0.0000000 1.0000000
vt 0.7292050 0.3740338
v 1.4677910 -0.5844249 0.6590424
vn 0.0000000 0.0000000 1.0000000
vt 0.7596925 0.3740338
v 1.1514680 -0.7982590 0.5704695
vn 0.0000000 -0.7072170 0.7069966
vt 0.7292060 0.4027584
v 1.4677910 -0.7982590 0.5704695
vn 0.0000000 -0.7072172 0.7069963
vt 0.7596925 0.4027584
v 1.1514680 -0.8868320 0.3565409
vn 0.0000000 -1.0000000 0.0000000
vt 0.7292060 0.3740338
v 1.4677910 -0.8868320 0.3565409
vn 0.0000000 -1.0000000 0.0000000
vt 0.7596925 0.3740338
v 1.1514680 -0.7982590 0.1428016
vn 0.0000000 -0.7072175 -0.7069961
vt 0.7292061 0.4027584
v 1.4677910 -0.7982590 0.1428016
vn 0.0000000 -0.7072174 -0.7069962
vt 0.7596925 0.4027584
v 1.1514680 -0.5844249 0.0540391
vn 0.0000000 0.0000000 -1.0000000
vt 0.7292072 0.3740338
v 1.4677910 -0.5844247 0.0540391
vn 0.0000000 0.0000000 -1.0000000
vt 0.7596925 0.3740338
v 1.1514680 -0.3705908 0.1428016
vn 0.0000000 0.7072178 -0.7069958
vt 0.7292060 0.4027584
v 1.4677920 -0.3705908 0.1428016
vn 0.0000000 0.7072178 -0.7069957
vt 0.7596925 0.4027584
v 1.1514680 -0.3705908 0.1428016
vn -1.0000000 0.0000000 0.0000000
vt 0.4444630 0.3750543
v 1.1514680 -0.5844249 0.0540391
vn -1.0000000 0.0000000 0.0000000
vt 0.4668249 0.3657717
v 1.1514680 -0.2820181 0.3565409
vn -1.0000000 0.0000000 0.0000000
vt 0.4352001 0.3974061
v 1.1514680 -0.7982590 0.1428016
vn -1.0000000 0.0000000 0.0000000
vt 0.4891869 0.3750541
v 1.1514680 -0.3705908 0.5704695
vn -1.0000000 0.0000000 0.0000000
vt 0.4444628 0.4197778
v 1.1514680 -0.8868320 0.3565409
vn -1.0000000 0.0000000 0.0000000
vt 0.4984497 0.3974061
v 1.1514680 -0.7982590 0.5704695
vn -1.0000000 0.0000000 0.0000000
vt 0.4891869 0.4197777
v 1.1514680 -0.5844247 0.6590424
vn -1.0000000 0.0000000 0.0000000
vt 0.4668249 0.4290401
v 1.4677910 -0.3705908 0.5704695
vn 1.0000000 0.0000000 0.0000000
vt 0.4444629 0.4197776
v 1.4677910 -0.5844249 0.6590424
vn 1.0000000 0.0000000 0.0000000
vt 0.4668249 0.4290401
v 1.4677910 -0.2820181 0.3565409
vn 1.0000000 0.0000000 0.0000000
vt 0.4352002 0.3974060
v 1.4677910 -0.7982590 0.5704695
vn 1.0000000 0.0000000 0.0000000
vt 0.4891869 0.4197778
v 1.4677910 -0.8868320 0.3565409
vn 1.0000000 0.0000000 0.0000000
vt 0.4984496 0.3974060
v 1.4677910 -0.7982590 0.1428016
vn 1.0000000 0.0000000 0.0000000
vt 0.4891872 0.3750540
v 1.4677910 -0.5844247 0.0540391
vn 1.0000000 0.0000000 0.0000000
vt 0.4668249 0.3657717
v 1.4677920 -0.3705908 0.1428016
vn 1.0000000 0.0000000 0.0000000
vt 0.4444627 0.3750542
v 1.1514680 -0.3705908 0.5704695
vn 0.0000000 0.7072178 0.7069957
vt 0.7292060 0.4027584
v 1.4677910 -0.3705908 0.5704695
vn 0.0000000 0.7072175 0.7069961
vt 0.7596925 0.4027584
v 1.1514680 -0.2820181 0.3565409
vn 0.0000000 1.0000000 0.0000000
vt 0.7292060 0.3740338
v 1.4677910 -0.2820181 0.3565409
vn 0.0000000 1.0000000 0.0000000
vt 0.7596925 0.3740338
v 1.1514680 -0.5844247 0.6590424
vn 0.0000000 0.0000000 1.0000000
vt 0.7292050 0.3740338
v 1.4677910 -0.5844249 0.6590424
vn 0.0000000 0.0000000 1.0000000
vt 0.7596925 0.3740338
v 1.1514680 -0.7982590 0.5704695
vn 0.0000000 -0.7072170 0.7069966
vt 0.7292060 0.4027584
v 1.4677910 -0.7982590 0.5704695
vn 0.0000000 -0.7072172 0.7069963
vt 0.7596925 0.4027584
v 1.1514680 -0.8868320 0.3565409
vn 0.0000000 -1.0000000 0.0000000
vt 0.7292060 0.3740338
v 1.4677910 -0.8868320 0.3565409
vn 0.0000000 -1.0000000 0.0000000
vt 0.7596925 0.3740338
v 1.1514680 -0.7982590 0.1428016
vn 0.0000000 -0.7072175 -0.7069961
vt 0.7292061 0.4027584
v 1.4677910 -0.7982590 0.1428016
vn 0.0000000 -0.7072174 -0.7069962
vt 0.7596925 0.4027584
v 1.1514680 -0.5844249 0.0540391
vn 0.0000000 0.0000000 -1.0000000
vt 0.7292072 0.3740338
v 1.4677910 -0.5844247 0.0540391
vn 0.0000000 0.0000000 -1.0000000
vt 0.7596925 0.3740338
v 1.1514680 -0.3705908 0.1428016
vn 0.0000000 0.7072178 -0.7069958
vt 0.7292060 0.4027584
v 1.4677920 -0.3705908 0.1428016
vn 0.0000000 0.7072178 -0.7069957
vt 0.7596925 0.4027584

g group_155267176_2822789028768
f 1/1/1 2/2/2 3/3/3 
f 3/3/3 2/2/2 4/4/4 
f 5/5/5 6/6/6 33/33/33 
f 33/33/33 6/6/6 34/34/34 
f 7/7/7 8/8/8 37/37/37 
f 37/37/37 8/8/8 38/38/38 
f 9/9/9 10/10/10 39/39/39 
f 39/39/39 10/10/10 40/40/40 
f 11/11/11 12/12/12 41/41/41 
f 41/41/41 12/12/12 42/42/42 
f 13/13/13 14/14/14 43/43/43 
f 43/43/43 14/14/14 44/44/44 
f 15/15/15 16/16/16 45/45/45 
f 45/45/45 16/16/16 46/46/46 
f 35/35/35 36/36/36 47/47/47 
f 47/47/47 36/36/36 48/48/48 
f 17/17/17 18/18/18 19/19/19 
f 18/18/18 20/20/20 19/19/19 
f 19/19/19 20/20/20 21/21/21 
f 20/20/20 22/22/22 21/21/21 
f 22/22/22 23/23/23 21/21/21 
f 23/23/23 24/24/24 21/21/21 
f 25/25/25 26/26/26 27/27/27 
f 26/26/26 28/28/28 27/27/27 
f 28/28/28 29/29/29 27/27/27 
f 29/29/29 30/30/30 27/27/27 
f 30/30/30 31/31/31 27/27/27 
f 31/31/31 32/32/32 27/27/27 
