v 0.0124405 1.8657240 2.7842700
vn 0.0000000 0.9666955 0.2559293
vt 0.6110942 0.4186382
v 0.1283514 1.8657240 2.7380559
vn 0.1790866 0.9674043 0.1790445
vt 0.5996218 0.4139984
v 0.0123859 1.9086400 2.6221709
vn 0.0000000 1.0000000 0.0000000
vt 0.6110940 0.4025382
v 0.1745648 1.8657240 2.6221459
vn 0.2558116 0.9667267 0.0000000
vt 0.5950766 0.4025358
v 0.1283514 1.8657240 2.5062361
vn 0.1790362 0.9674178 -0.1790219
vt 0.5996577 0.3910834
v 0.0124405 1.8657240 2.4600220
vn 0.0000000 0.9667150 -0.2558555
vt 0.6111193 0.3865250
v -0.1034702 1.8657240 2.5062361
vn -0.1790859 0.9673890 -0.1791277
vt 0.6225753 0.3911010
v -0.1496835 1.8657240 2.6221459
vn -0.2559731 0.9666840 0.0000000
vt 0.6271387 0.4025610
v -0.1034702 1.8657240 2.7380559
vn -0.1791364 0.9673755 0.1791505
vt 0.6225745 0.4140167
v 0.1283514 1.8657240 2.7380559
vn 0.6663399 0.3345040 0.6664069
vt 0.0918471 0.7976251
v 0.0124405 1.8657240 2.7842700
vn 0.0000000 0.3296507 0.9441030
vt 0.1132786 0.7982464
v 0.1311865 1.6180850 2.8276999
vn 0.4708459 0.2844721 0.8350927
vt 0.0983627 0.7633685
v 0.0124951 1.6180850 2.8595040
vn 0.0000000 0.2906858 0.9568186
vt 0.1132959 0.7633685
v 0.2180750 1.6180860 2.7408121
vn 0.8350972 0.2845830 0.4707709
vt 0.0847176 0.7633685
v 0.2498782 1.6180850 2.6221211
vn 0.9567332 0.2909666 0.0000000
vt 0.0715797 0.7633685
v 0.1745648 1.8657240 2.6221459
vn 0.9440076 0.3299236 0.0000000
vt 0.0721619 0.7968773
v 0.1283514 1.8657240 2.5062361
vn 0.6663288 0.3346266 -0.6663564
vt 0.0543819 0.7968281
v 0.2180750 1.6180860 2.5034289
vn 0.8350620 0.2846700 -0.4707808
vt 0.0582148 0.7633685
v 0.1311865 1.6180850 2.4165411
vn 0.4708083 0.2846295 -0.8350602
vt 0.0442533 0.7633685
v 0.0124951 1.6180850 2.3847380
vn 0.0000000 0.2908635 -0.9567646
vt 0.0289000 0.7633685
v 0.0124405 1.8657240 2.4600220
vn 0.0000000 0.3298234 -0.9440427
vt 0.0363702 0.7976385
v -0.1034702 1.8657240 2.5062361
vn -0.6664398 0.3343639 -0.6663774
vt 0.0543819 0.7968280
v -0.1061963 1.6180850 2.4165411
vn -0.4707859 0.2844421 -0.8351368
vt 0.0442533 0.7633685
v -0.1930844 1.6180860 2.5034289
vn -0.8351339 0.2843300 -0.4708588
vt 0.0582148 0.7633685
v -0.2248877 1.6180860 2.6221211
vn -0.9568505 0.2905807 0.0000000
vt 0.0715797 0.7633685
v -0.1496835 1.8657240 2.6221459
vn -0.9441380 0.3295504 0.0000000
vt 0.0721619 0.7968773
v -0.1034702 1.8657240 2.7380559
vn -0.6664510 0.3342417 0.6664274
vt 0.0852004 0.7972530
v -0.1930844 1.6180860 2.7408121
vn -0.8351687 0.2842434 0.4708492
vt 0.0847176 0.7633543
v -0.1061963 1.6180860 2.8276999
vn -0.4708234 0.2842848 0.8351691
vt 0.1282376 0.7633685
v -0.1034702 1.8657240 2.7380559
vn -0.6664510 0.3342417 0.6664274
vt 0.1326746 0.7983353
v -0.1930844 1.6180860 2.7408121
vn -0.8351687 0.2842434 0.4708492
vt 0.1418053 0.7633685
v 0.0756540 2.1374810 2.6877289
vn 0.7071087 0.0000000 0.7071049
vt 0.0649206 0.6805316
v 0.0123520 2.1374810 2.7139060
vn 0.0000000 0.0000000 1.0000000
vt 0.0697886 0.6806588
v 0.0756540 1.8914460 2.6877289
vn 0.7071060 0.0000000 0.7071076
vt 0.0648927 0.7072102
v 0.0123520 1.8914460 2.7139060
vn 0.0000000 0.0000000 1.0000000
vt 0.0697643 0.7072313
v 0.0709381 2.1444869 2.6830130
vn 0.5200626 0.6892931 0.5043907
vt 0.0649204 0.6796830
v 0.0123520 2.1444869 2.7073219
vn 0.0103430 0.6849838 0.7284849
vt 0.0697950 0.6795781
v 0.0756540 2.1374810 2.6877289
vn 0.5197964 0.6892259 0.5047569
vt 0.0649206 0.6805316
v 0.0123520 2.1374810 2.7139060
vn 0.0099230 0.6850579 0.7284210
vt 0.0697886 0.6806588
v 0.0709381 3.1392510 2.6830130
vn 0.7071059 0.0000000 0.7071078
vt 0.0649639 0.5644735
v 0.0123520 3.1392510 2.7073331
vn 0.0000000 0.0000000 1.0000000
vt 0.0697990 0.5644532
v 0.0709381 2.1444869 2.6830130
vn 0.7071108 0.0000000 0.7071027
vt 0.0649204 0.6796830
v 0.0123520 2.1444869 2.7073219
vn 0.0000000 0.0000000 1.0000000
vt 0.0697950 0.6795781
v 0.0573518 3.1391280 2.6694269
vn -0.0045261 0.9999795 -0.0045357
vt 0.2481446 0.7142157
v 0.0123520 3.1391280 2.6879640
vn 0.0000000 0.9999799 -0.0063467
vt 0.2513160 0.7153496
v 0.0709381 3.1392510 2.6830130
vn -0.0045154 0.9999796 -0.0045198
vt 0.2470096 0.7153404
v 0.0123520 3.1392510 2.7073331
vn 0.0000000 0.9999799 -0.0063359
vt 0.2513160 0.7171749
v 0.0123520 3.0040929 2.6244271
vn 0.0000000 1.0000000 0.0000000
vt 0.0810999 0.7603258
v 0.0123520 3.1391280 2.6879640
vn 0.0000000 0.4257489 -0.9048414
vt 0.0525429 0.7606877
v 0.0573518 3.1391280 2.6694269
vn -0.6396312 0.4263103 -0.6396338
vt 0.0526377 0.7579575
v 0.1018307 2.1374810 2.6244271
vn 1.0000000 0.0000000 0.0000000
vt 0.0600431 0.6806532
v 0.1018304 1.8914460 2.6244271
vn 1.0000000 0.0000000 0.0000000
vt 0.0600272 0.7072257
v 0.0952469 2.1444869 2.6244271
vn 0.7284843 0.6849841 -0.0103582
vt 0.0600228 0.6795726
v 0.1018307 2.1374810 2.6244271
vn 0.7284197 0.6850592 -0.0099369
vt 0.0600431 0.6806532
v 0.0952582 3.1392510 2.6244271
vn 1.0000000 0.0000000 0.0000000
vt 0.0601139 0.5644477
v 0.0952469 2.1444869 2.6244271
vn 1.0000000 0.0000000 0.0000000
vt 0.0600228 0.6795726
v 0.0758887 3.1391280 2.6244271
vn -0.0063569 0.9999798 0.0000000
vt 0.2470154 0.7110630
v 0.0952582 3.1392510 2.6244271
vn -0.0063493 0.9999799 0.0000000
vt 0.2451899 0.7110630
v 0.0758887 3.1391280 2.6244271
vn -0.9048427 0.4257461 0.0000000
vt 0.0529925 0.7552490
v 0.0756540 2.1374810 2.5611250
vn 0.7071087 0.0000000 -0.7071049
vt 0.0551623 0.6805168
v 0.0756540 1.8914460 2.5611250
vn 0.7071050 0.0000000 -0.7071086
vt 0.0551456 0.7071957
v 0.0709381 2.1444869 2.5658400
vn 0.5043839 0.6892995 -0.5200607
vt 0.0551729 0.6796690
v 0.0756540 2.1374810 2.5611250
vn 0.5047515 0.6892316 -0.5197939
vt 0.0551623 0.6805168
v 0.0709381 3.1392510 2.5658400
vn 0.7071033 0.0000000 -0.7071103
vt 0.0552641 0.5644591
v 0.0709381 2.1444869 2.5658400
vn 0.7071050 0.0000000 -0.7071086
vt 0.0551729 0.6796690
v 0.0573518 3.1391280 2.5794270
vn -0.0045260 0.9999795 0.0045357
vt 0.2481412 0.7078902
v 0.0709381 3.1392510 2.5658400
vn -0.0045153 0.9999797 0.0045163
vt 0.2470090 0.7067537
v 0.0573518 3.1391280 2.5794270
vn -0.6396339 0.4263072 0.6396332
vt 0.0536095 0.7525874
v 0.0123520 2.1374810 2.5349481
vn 0.0000000 0.0000000 -1.0000000
vt 0.0503398 0.6806363
v 0.0123517 1.8914460 2.5349481
vn 0.0000000 0.0000000 -1.0000000
vt 0.0503328 0.7072088
v 0.0123520 2.1444869 2.5415320
vn -0.0103431 0.6849833 -0.7284855
vt 0.0503399 0.6795557
v 0.0123520 2.1374810 2.5349481
vn -0.0099224 0.6850566 -0.7284223
vt 0.0503398 0.6806363
v 0.0123523 3.1392510 2.5415211
vn 0.0000000 0.0000000 -1.0000000
vt 0.0504215 0.5644308
v 0.0123520 2.1444869 2.5415320
vn 0.0000000 0.0000000 -1.0000000
vt 0.0503399 0.6795557
v 0.0123523 3.1391280 2.5608909
vn 0.0000000 0.9999799 0.0063467
vt 0.2513160 0.7067648
v 0.0123523 3.1392510 2.5415211
vn 0.0000000 0.9999799 0.0063359
vt 0.2513160 0.7049395
v 0.0123523 3.1391280 2.5608909
vn 0.0000000 0.4257423 0.9048445
vt 0.0544709 0.7499964
v -0.0509501 2.1374810 2.5611250
vn -0.7071054 0.0000000 -0.7071082
vt 0.0843664 0.6805308
v 0.0123520 2.1374810 2.5349481
vn 0.0000000 0.0000000 -1.0000000
vt 0.0891881 0.6806588
v -0.0509501 1.8914460 2.5611250
vn -0.7071100 0.0000000 -0.7071036
vt 0.0843874 0.7072098
v 0.0123517 1.8914460 2.5349481
vn 0.0000000 0.0000000 -1.0000000
vt 0.0892007 0.7072313
v -0.0462341 2.1444869 2.5658400
vn -0.5200679 0.6893008 -0.5043747
vt 0.0843560 0.6796830
v 0.0123520 2.1444869 2.5415320
vn -0.0103431 0.6849833 -0.7284855
vt 0.0891874 0.6795781
v -0.0509501 2.1374810 2.5611250
vn -0.5198007 0.6892332 -0.5047424
vt 0.0843664 0.6805308
v 0.0123520 2.1374810 2.5349481
vn -0.0099224 0.6850566 -0.7284223
vt 0.0891881 0.6806588
v -0.0462341 3.1392510 2.5658400
vn -0.7071074 0.0000000 -0.7071062
vt 0.0843429 0.5644732
v 0.0123523 3.1392510 2.5415211
vn 0.0000000 0.0000000 -1.0000000
vt 0.0891842 0.5644532
v -0.0462341 2.1444869 2.5658400
vn -0.7071056 0.0000000 -0.7071080
vt 0.0843560 0.6796830
v 0.0123520 2.1444869 2.5415320
vn 0.0000000 0.0000000 -1.0000000
vt 0.0891874 0.6795781
v -0.0326479 3.1391280 2.5794270
vn 0.0045260 0.9999795 0.0045357
vt 0.2544575 0.7079061
v -0.0462341 3.1392510 2.5658400
vn 0.0045153 0.9999796 0.0045197
vt 0.2556033 0.7067622
v -0.0771268 2.1374810 2.6244271
vn -1.0000000 0.0000000 0.0000000
vt 0.0795010 0.6806588
v -0.0771268 1.8914460 2.6244271
vn -1.0000000 0.0000000 0.0000000
vt 0.0795138 0.7072313
v -0.0705432 2.1444869 2.6244271
vn -0.7285006 0.6849671 0.0103486
vt 0.0794991 0.6795781
v -0.0771268 2.1374810 2.6244271
vn -0.7284362 0.6850417 0.0099273
vt 0.0795010 0.6806588
v -0.0705539 3.1392510 2.6244271
vn -1.0000000 0.0000000 0.0000000
vt 0.0794917 0.5644532
v -0.0705432 2.1444869 2.6244271
vn -1.0000000 0.0000000 0.0000000
vt 0.0794991 0.6795781
v -0.0511844 3.1391280 2.6244271
vn 0.0063569 0.9999798 0.0000000
vt 0.2555996 0.7110630
v -0.0705539 3.1392510 2.6244271
vn 0.0063493 0.9999799 0.0000000
vt 0.2574250 0.7110630
v -0.0509501 2.1374810 2.6877289
vn -0.7071050 0.0000000 0.7071086
vt 0.0746465 0.6805309
v -0.0509501 1.8914460 2.6877289
vn -0.7071085 0.0000000 0.7071051
vt 0.0746394 0.7072098
v -0.0462341 2.1444869 2.6830130
vn -0.5043763 0.6892924 0.5200775
vt 0.0746462 0.6796830
v -0.0509501 2.1374810 2.6877289
vn -0.5047445 0.6892232 0.5198120
vt 0.0746465 0.6805309
v -0.0462341 3.1392510 2.6830130
vn -0.7071031 0.0000000 0.7071105
vt 0.0746458 0.5644732
v -0.0462341 2.1444869 2.6830130
vn -0.7071056 0.0000000 0.7071080
vt 0.0746462 0.6796830
v -0.0326479 3.1391280 2.6694269
vn 0.0045261 0.9999795 -0.0045357
vt 0.2544501 0.7142070
v -0.0462341 3.1392510 2.6830130
vn 0.0045154 0.9999797 -0.0045163
vt 0.2555911 0.7153534
v -0.0511844 3.1391280 2.6244271
vn 0.9048435 0.4257444 0.0000000
vt 0.0529925 0.7552490
v -0.0326479 3.1391280 2.6694269
vn 0.6396336 0.4263110 -0.6396311
vt 0.0526378 0.7579574
v -0.0326479 3.1391280 2.5794270
vn 0.6396344 0.4263085 0.6396319
vt 0.0536095 0.7525874
v -0.0683312 1.8940459 2.7050741
vn 0.0000000 1.0000000 0.0000000
vt 0.6918871 0.6418164
v 0.0123859 1.8940459 2.7388599
vn 0.0000000 1.0000000 0.0000000
vt 0.6806748 0.6466824
v -0.1021176 1.8940459 2.6243570
vn 0.0000000 1.0000000 0.0000000
vt 0.6964583 0.6304808
v 0.0931031 1.8940459 2.7050741
vn 0.0000000 1.0000000 0.0000000
vt 0.6693400 0.6421112
v -0.0683313 1.8940459 2.5436399
vn 0.0000000 1.0000000 0.0000000
vt 0.6915926 0.6192692
v 0.1268893 1.8940459 2.6243570
vn 0.0000000 1.0000000 0.0000000
vt 0.6644735 0.6308990
v 0.0931031 1.8940459 2.5436399
vn 0.0000000 1.0000000 0.0000000
vt 0.6690454 0.6195639
v 0.0123859 1.8940459 2.5098541
vn 0.0000000 1.0000000 0.0000000
vt 0.6802570 0.6146973
v 0.0931031 1.8940459 2.7050741
vn 0.6898428 -0.2196141 0.6898454
vt 0.3656229 0.3563024
v 0.0123859 1.8940459 2.7388599
vn 0.0000000 -0.2202584 0.9754416
vt 0.3751005 0.3563024
v 0.0123859 1.3869550 2.6243570
vn 0.0000000 -1.0000000 0.0000000
vt 0.3561209 0.4150741
v 0.1268893 1.8940459 2.6243570
vn 0.9754415 -0.2202589 0.0000000
vt 0.3561462 0.3563024
v 0.0931031 1.8940459 2.5436399
vn 0.6898439 -0.2196142 -0.6898442
vt 0.3466699 0.3563024
v 0.0123859 1.8940459 2.5098541
vn 0.0000000 -0.2202591 -0.9754414
vt 0.3371952 0.3563024
v -0.0683313 1.8940459 2.5436399
vn -0.6898437 -0.2196139 -0.6898445
vt 0.3466703 0.3563024
v -0.1021176 1.8940459 2.6243570
vn -0.9754415 -0.2202587 0.0000000
vt 0.3561462 0.3563024
v -0.0683312 1.8940459 2.7050741
vn -0.6898425 -0.2196138 0.6898457
vt 0.3656230 0.3563024
v 0.3730719 1.5886040 2.9235630
vn 0.0000000 0.7871092 0.6168137
vt 0.9095491 0.4261988
v -0.3568784 1.5886040 2.9235630
vn 0.0000000 0.7871087 0.6168144
vt 0.9971113 0.4261991
v 0.3730719 1.4295660 3.0657029
vn 0.0000000 0.6663864 0.7456066
vt 0.9095491 0.4517853
v -0.3568784 1.4295660 3.0657020
vn 0.0000000 0.6663855 0.7456074
vt 0.9971113 0.4517856
v 0.3730719 1.6755770 2.7517710
vn 0.0000000 0.9600888 0.2796954
vt 0.9095491 0.4031009
v -0.3568784 1.6755770 2.7517710
vn 0.0000000 0.9600922 0.2796837
vt 0.9971113 0.4031013
v 0.3730719 1.6926110 2.5665481
vn 0.0000000 0.9945934 -0.1038466
vt 0.9095491 0.3807884
v -0.3568784 1.6926110 2.5665269
vn 0.0000000 0.9945947 -0.1038336
vt 0.9971113 0.3807865
v 0.3730719 1.6367199 2.3796461
vn 0.0000000 0.8804591 -0.4741223
vt 0.9095491 0.3573872
v -0.3568784 1.6367199 2.3795590
vn 0.0000000 0.8804366 -0.4741640
vt 0.9971113 0.3573781
v 0.3730719 1.5081410 2.2239771
vn 0.0000000 0.6493436 -0.7604952
vt 0.9095491 0.3331673
v -0.3568784 1.5081410 2.2239771
vn 0.0000000 0.6492494 -0.7605756
vt 0.9971113 0.3331667
v 0.3730719 1.3012450 2.0932031
vn 0.0000000 0.5342953 -0.8452979
vt 0.9095496 0.3038068
v -0.3568784 1.3012450 2.0932031
vn 0.0000000 0.5342950 -0.8452981
vt 0.9971110 0.3038064
v 0.3730719 1.3012450 2.0932031
vn 1.0000000 0.0000000 0.0000000
vt 0.4416113 0.8840144
v 0.3730719 1.5081410 2.2239771
vn 1.0000000 0.0000000 0.0000000
vt 0.4605069 0.8683140
v 0.3730719 1.4295660 3.0657029
vn 1.0000000 0.0000000 0.0000000
vt 0.4417636 0.7855555
v 0.3730719 1.5886040 2.9235630
vn 1.0000000 0.0000000 0.0000000
vt 0.4594345 0.7976506
v 0.3730719 1.6755770 2.7517710
vn 1.0000000 0.0000000 0.0000000
vt 0.4703166 0.8136159
v 0.3730719 1.6926110 2.5665481
vn 1.0000000 0.0000000 0.0000000
vt 0.4744163 0.8318149
v 0.3730719 1.6367199 2.3796461
vn 1.0000000 0.0000000 0.0000000
vt 0.4712826 0.8511397
v -0.3568784 1.3012450 2.0932031
vn -1.0000000 0.0000000 0.0000000
vt 0.4416107 0.8840353
v -0.3568784 1.4295660 3.0657020
vn -1.0000000 0.0000000 0.0000000
vt 0.4417628 0.7855775
v -0.3568784 1.5081410 2.2239771
vn -1.0000000 0.0000000 0.0000000
vt 0.4605059 0.8683351
v -0.3568784 1.6367199 2.3795590
vn -1.0000000 0.0000000 0.0000000
vt 0.4712828 0.8511704
v -0.3568784 1.6926110 2.5665269
vn -1.0000000 0.0000000 0.0000000
vt 0.4744160 0.8318393
v -0.3568784 1.6755770 2.7517710
vn -1.0000000 0.0000000 0.0000000
vt 0.4703160 0.8136370
v -0.3568784 1.5886040 2.9235630
vn -1.0000000 0.0000000 0.0000000
vt 0.4594337 0.7976714
v -0.3568784 1.4295660 3.0657020
vn 0.0000000 -0.9914067 0.1308162
vt 0.8262976 0.0097672
v -0.3568784 1.3012450 2.0932031
vn 0.0000000 -0.9914067 0.1308158
vt 0.8262985 0.0643050
v 0.3730719 1.4295660 3.0657029
vn 0.0000000 -0.9914067 0.1308159
vt 0.7872649 0.0097672
v 0.3730719 1.3012450 2.0932031
vn 0.0000000 -0.9914068 0.1308155
vt 0.7872658 0.0643047
v 0.0124951 1.6180850 2.3847380
vn 0.0000000 0.2908635 -0.9567646
vt 0.0289000 0.7633685
v 0.0124405 1.8657240 2.4600220
vn 0.0000000 0.3298234 -0.9440427
vt 0.0363702 0.7976385
v 0.0123520 3.0040929 2.6244271
vn 0.0000000 1.0000000 0.0000000
vt 0.0810999 0.7603258
v 0.0123520 3.0040929 2.6244271
vn 0.0000000 1.0000000 0.0000000
vt 0.0810999 0.7603258
v 0.0123520 3.0040929 2.6244271
vn 0.0000000 1.0000000 0.0000000
vt 0.0810999 0.7603258
v 0.0123520 3.1391280 2.6879640
vn 0.0000000 0.4257489 -0.9048414
vt 0.0525429 0.7606877
v 0.0123523 3.1391280 2.5608909
vn 0.0000000 0.4257423 0.9048445
vt 0.0544709 0.7499964
v 0.0123859 1.8940459 2.7388599
vn 0.0000000 -0.2202584 0.9754416
vt 0.3751005 0.3563024
v 0.0123859 1.3869550 2.6243570
vn 0.0000000 -1.0000000 0.0000000
vt 0.3561209 0.4150741
v 0.0123859 1.3869550 2.6243570
vn 0.0000000 -1.0000000 0.0000000
vt 0.3561209 0.4150741
v 0.0123859 1.3869550 2.6243570
vn 0.0000000 -1.0000000 0.0000000
vt 0.3561209 0.4150741
v 0.0123859 1.8940459 2.5098541
vn 0.0000000 -0.2202591 -0.9754414
vt 0.3371952 0.3563024

g group_155263480_2822784382896
f 1/1/1 2/2/2 3/3/3 
f 2/2/2 4/4/4 3/3/3 
f 5/5/5 3/3/3 4/4/4 
f 3/3/3 5/5/5 6/6/6 
f 3/3/3 6/6/6 7/7/7 
f 3/3/3 7/7/7 8/8/8 
f 9/9/9 3/3/3 8/8/8 
f 9/9/9 1/1/1 3/3/3 
f 10/10/10 11/11/11 12/12/12 
f 12/12/12 11/11/11 13/13/13 
f 14/14/14 10/10/10 12/12/12 
f 15/15/15 16/16/16 14/14/14 
f 14/14/14 16/16/16 10/10/10 
f 17/17/17 16/16/16 18/18/18 
f 18/18/18 16/16/16 15/15/15 
f 19/19/19 17/17/17 18/18/18 
f 20/20/20 21/21/21 19/19/19 
f 19/19/19 21/21/21 17/17/17 
f 22/22/22 161/161/161 23/23/23 
f 23/23/23 161/161/161 160/160/160 
f 24/24/24 22/22/22 23/23/23 
f 25/25/25 26/26/26 24/24/24 
f 24/24/24 26/26/26 22/22/22 
f 27/27/27 26/26/26 28/28/28 
f 28/28/28 26/26/26 25/25/25 
f 29/29/29 30/30/30 31/31/31 
f 13/13/13 11/11/11 29/29/29 
f 29/29/29 11/11/11 30/30/30 
f 32/32/32 33/33/33 34/34/34 
f 34/34/34 33/33/33 35/35/35 
f 36/36/36 37/37/37 38/38/38 
f 38/38/38 37/37/37 39/39/39 
f 40/40/40 41/41/41 42/42/42 
f 42/42/42 41/41/41 43/43/43 
f 44/44/44 45/45/45 46/46/46 
f 46/46/46 45/45/45 47/47/47 
f 48/48/48 49/49/49 50/50/50 
f 51/51/51 32/32/32 52/52/52 
f 52/52/52 32/32/32 34/34/34 
f 53/53/53 36/36/36 54/54/54 
f 54/54/54 36/36/36 38/38/38 
f 55/55/55 40/40/40 56/56/56 
f 56/56/56 40/40/40 42/42/42 
f 44/44/44 46/46/46 57/57/57 
f 57/57/57 46/46/46 58/58/58 
f 50/50/50 59/59/59 48/48/48 
f 60/60/60 51/51/51 61/61/61 
f 61/61/61 51/51/51 52/52/52 
f 62/62/62 53/53/53 63/63/63 
f 63/63/63 53/53/53 54/54/54 
f 64/64/64 55/55/55 65/65/65 
f 65/65/65 55/55/55 56/56/56 
f 66/66/66 57/57/57 67/67/67 
f 67/67/67 57/57/57 58/58/58 
f 48/48/48 59/59/59 68/68/68 
f 69/69/69 60/60/60 70/70/70 
f 70/70/70 60/60/60 61/61/61 
f 71/71/71 62/62/62 72/72/72 
f 72/72/72 62/62/62 63/63/63 
f 73/73/73 64/64/64 74/74/74 
f 74/74/74 64/64/64 65/65/65 
f 66/66/66 67/67/67 75/75/75 
f 75/75/75 67/67/67 76/76/76 
f 162/162/162 68/68/68 77/77/77 
f 78/78/78 79/79/79 80/80/80 
f 80/80/80 79/79/79 81/81/81 
f 82/82/82 83/83/83 84/84/84 
f 84/84/84 83/83/83 85/85/85 
f 86/86/86 87/87/87 88/88/88 
f 88/88/88 87/87/87 89/89/89 
f 90/90/90 75/75/75 91/91/91 
f 91/91/91 75/75/75 76/76/76 
f 92/92/92 78/78/78 93/93/93 
f 93/93/93 78/78/78 80/80/80 
f 94/94/94 82/82/82 95/95/95 
f 95/95/95 82/82/82 84/84/84 
f 96/96/96 86/86/86 97/97/97 
f 97/97/97 86/86/86 88/88/88 
f 90/90/90 91/91/91 98/98/98 
f 98/98/98 91/91/91 99/99/99 
f 100/100/100 92/92/92 101/101/101 
f 101/101/101 92/92/92 93/93/93 
f 102/102/102 94/94/94 103/103/103 
f 103/103/103 94/94/94 95/95/95 
f 104/104/104 96/96/96 105/105/105 
f 105/105/105 96/96/96 97/97/97 
f 106/106/106 98/98/98 107/107/107 
f 107/107/107 98/98/98 99/99/99 
f 162/162/162 108/108/108 109/109/109 
f 33/33/33 100/100/100 35/35/35 
f 35/35/35 100/100/100 101/101/101 
f 37/37/37 102/102/102 39/39/39 
f 39/39/39 102/102/102 103/103/103 
f 41/41/41 104/104/104 43/43/43 
f 43/43/43 104/104/104 105/105/105 
f 106/106/106 107/107/107 45/45/45 
f 45/45/45 107/107/107 47/47/47 
f 109/109/109 165/165/165 163/163/163 
f 48/48/48 110/110/110 108/108/108 
f 164/164/164 166/166/166 110/110/110 
f 111/111/111 112/112/112 113/113/113 
f 112/112/112 114/114/114 113/113/113 
f 113/113/113 114/114/114 115/115/115 
f 114/114/114 116/116/116 115/115/115 
f 116/116/116 117/117/117 115/115/115 
f 117/117/117 118/118/118 115/115/115 
f 119/119/119 120/120/120 121/121/121 
f 122/122/122 119/119/119 121/121/121 
f 123/123/123 122/122/122 121/121/121 
f 124/124/124 123/123/123 168/168/168 
f 125/125/125 171/171/171 169/169/169 
f 126/126/126 125/125/125 121/121/121 
f 127/127/127 126/126/126 168/168/168 
f 167/167/167 127/127/127 170/170/170 
f 128/128/128 129/129/129 130/130/130 
f 130/130/130 129/129/129 131/131/131 
f 132/132/132 133/133/133 128/128/128 
f 128/128/128 133/133/133 129/129/129 
f 134/134/134 135/135/135 132/132/132 
f 132/132/132 135/135/135 133/133/133 
f 136/136/136 137/137/137 134/134/134 
f 134/134/134 137/137/137 135/135/135 
f 138/138/138 139/139/139 136/136/136 
f 136/136/136 139/139/139 137/137/137 
f 140/140/140 141/141/141 138/138/138 
f 138/138/138 141/141/141 139/139/139 
f 142/142/142 143/143/143 144/144/144 
f 144/144/144 143/143/143 145/145/145 
f 145/145/145 143/143/143 146/146/146 
f 146/146/146 143/143/143 147/147/147 
f 143/143/143 148/148/148 147/147/147 
f 149/149/149 150/150/150 151/151/151 
f 151/151/151 150/150/150 152/152/152 
f 152/152/152 150/150/150 153/153/153 
f 153/153/153 150/150/150 154/154/154 
f 155/155/155 154/154/154 150/150/150 
f 156/156/156 157/157/157 158/158/158 
f 158/158/158 157/157/157 159/159/159 
