v 0.0791365 3.7414110 2.6443009
vn 0.7070299 -0.0017399 0.7071815
vt 0.2423112 0.5839024
v -0.0024290 3.7414110 2.6782219
vn -0.0002431 -0.0017510 0.9999985
vt 0.2423112 0.5898876
v 0.0775644 2.3761489 2.6427290
vn 0.7070301 -0.0017420 0.7071813
vt 0.0924761 0.5839041
v -0.0024292 2.3761489 2.6756799
vn -0.0002443 -0.0017490 0.9999985
vt 0.0924762 0.5898874
v 0.1130582 3.7414110 2.5627351
vn 0.9999985 -0.0017512 0.0002399
vt 0.2423113 0.5779169
v 0.1105150 2.3761489 2.5627360
vn 0.9999985 -0.0017493 0.0002495
vt 0.0924761 0.5779210
v 0.0791365 3.7414110 2.4811699
vn 0.7071800 -0.0017398 -0.7070315
vt 0.2423111 0.5719282
v 0.0775644 2.3761489 2.4827421
vn 0.7071842 -0.0017423 -0.7070272
vt 0.0924761 0.5719417
v -0.0024290 3.7414110 2.4472480
vn 0.0002397 -0.0017512 -0.9999985
vt 0.2423110 0.5659382
v -0.0024294 2.3761489 2.4497910
vn 0.0002495 -0.0017491 -0.9999985
vt 0.0924761 0.5659626
v -0.0839945 3.7414110 2.4811699
vn -0.7070315 -0.0017397 -0.7071798
vt 0.2423113 0.6078470
v -0.0024290 3.7414110 2.4472480
vn 0.0002397 -0.0017512 -0.9999985
vt 0.2423112 0.6138371
v -0.0824224 2.3761489 2.4827421
vn -0.7070292 -0.0017421 -0.7071822
vt 0.0924763 0.6078333
v -0.0024294 2.3761489 2.4497910
vn 0.0002495 -0.0017491 -0.9999985
vt 0.0924766 0.6138123
v -0.1179163 3.7414110 2.5627351
vn -0.9999985 -0.0017510 -0.0002398
vt 0.2423114 0.6018583
v -0.1153737 2.3761489 2.5627360
vn -0.9999985 -0.0017489 -0.0002500
vt 0.0924762 0.6018538
v -0.0839945 3.7414110 2.6443009
vn -0.7071816 -0.0017396 0.7070299
vt 0.2423113 0.5958727
v -0.0824224 2.3761499 2.6427290
vn -0.7071801 -0.0017420 0.7070313
vt 0.0924762 0.5958706
v 0.0853816 3.7907391 2.6505461
vn 0.7071053 0.0000000 0.7071083
vt 0.1283330 0.6213072
v -0.0024290 3.7907381 2.6872289
vn 0.0000000 0.0000000 1.0000000
vt 0.1213478 0.6213071
v 0.0853816 3.7414031 2.6505461
vn 0.7071049 0.0000000 0.7071087
vt 0.1283326 0.6160504
v -0.0024290 3.7414031 2.6872289
vn 0.0000000 0.0000000 1.0000000
vt 0.1213477 0.6160502
v 0.0526965 3.7907369 2.6178610
vn 0.0000000 1.0000000 0.0000000
vt 0.3944879 0.8676224
v -0.0024290 3.7907369 2.6406889
vn 0.0000000 1.0000000 0.0000000
vt 0.3923183 0.8726824
v 0.0853816 3.7907391 2.6505461
vn 0.0000000 1.0000000 0.0000000
vt 0.3915088 0.8645684
v -0.0024290 3.7907381 2.6872289
vn 0.0000000 1.0000000 0.0000000
vt 0.3880231 0.8726297
v -0.0024290 3.2464321 2.5627351
vn 0.0000000 1.0000000 0.0000000
vt 0.0810988 0.7603278
v -0.0024290 3.7907369 2.6406889
vn 0.0000000 0.1417699 -0.9898996
vt 0.0525418 0.7606878
v 0.0526965 3.7907369 2.6178610
vn -0.6999675 0.1417798 -0.6999600
vt 0.0526376 0.7579578
v 0.1220648 3.7907391 2.5627351
vn 1.0000000 0.0000000 0.0000000
vt 0.1353181 0.6213052
v 0.1220648 3.7414031 2.5627351
vn 1.0000000 0.0000000 0.0000000
vt 0.1353172 0.6160485
v 0.0755241 3.7907369 2.5627351
vn 0.0000000 1.0000000 0.0000000
vt 0.3996006 0.8655766
v 0.1220648 3.7907391 2.5627351
vn 0.0000000 1.0000000 0.0000000
vt 0.3996535 0.8612818
v 0.0755241 3.7907369 2.5627351
vn -0.9898997 0.1417698 0.0000000
vt 0.0529917 0.7552490
v 0.0853816 3.7907391 2.4749250
vn 0.7071074 0.0000000 -0.7071062
vt 0.1423032 0.6213023
v 0.0853816 3.7414031 2.4749250
vn 0.7071078 0.0000000 -0.7071058
vt 0.1423022 0.6160455
v 0.0526965 3.7907369 2.5076101
vn 0.0000000 1.0000000 0.0000000
vt 0.4046597 0.8677465
v 0.0853816 3.7907391 2.4749250
vn 0.0000000 1.0000000 0.0000000
vt 0.4077129 0.8647679
v 0.0526965 3.7907369 2.5076101
vn -0.6999584 0.1417803 0.6999689
vt 0.0536096 0.7525877
v -0.0024290 3.7907391 2.4382420
vn 0.0000000 0.0000000 -1.0000000
vt 0.1492883 0.6212994
v -0.0024290 3.7414031 2.4382420
vn 0.0000000 0.0000000 -1.0000000
vt 0.1492873 0.6160426
v -0.0024290 3.7907369 2.4847829
vn 0.0000000 1.0000000 0.0000000
vt 0.4067053 0.8728591
v -0.0024290 3.7907391 2.4382420
vn 0.0000000 1.0000000 0.0000000
vt 0.4110001 0.8729119
v -0.0024290 3.7907369 2.4847829
vn 0.0000000 0.1417683 0.9898999
vt 0.0544704 0.7499965
v -0.0902397 3.7907391 2.4749250
vn -0.7071064 0.0000000 -0.7071072
vt 0.1003929 0.6213071
v -0.0024290 3.7907391 2.4382420
vn 0.0000000 0.0000000 -1.0000000
vt 0.0934079 0.6213073
v -0.0902397 3.7414031 2.4749250
vn -0.7071068 0.0000000 -0.7071068
vt 0.1003928 0.6160504
v -0.0024290 3.7414031 2.4382420
vn 0.0000000 0.0000000 -1.0000000
vt 0.0934079 0.6160504
v -0.0575545 3.7907369 2.5076101
vn 0.0000000 1.0000000 0.0000000
vt 0.4045357 0.8779218
v -0.0902397 3.7907391 2.4749250
vn 0.0000000 1.0000000 0.0000000
vt 0.4075158 0.8809727
v -0.0575545 3.7907369 2.5076101
vn 0.6999593 0.1417803 0.6999680
vt 0.0536952 0.7521726
v -0.1269228 3.7907391 2.5627351
vn -1.0000000 0.0000000 0.0000000
vt 0.1073777 0.6213071
v -0.1269228 3.7414031 2.5627351
vn -1.0000000 0.0000000 0.0000000
vt 0.1073777 0.6160504
v -0.0803821 3.7907369 2.5627351
vn 0.0000000 1.0000000 0.0000000
vt 0.3994240 0.8799649
v -0.1269228 3.7907391 2.5627351
vn 0.0000000 1.0000000 0.0000000
vt 0.3993715 0.8842599
v -0.0803821 3.7907369 2.5627351
vn 0.9898997 0.1417695 0.0000000
vt 0.0529917 0.7552490
v -0.0575545 3.7907369 2.6178610
vn 0.6999685 0.1417798 -0.6999590
vt 0.0525853 0.7583287
v -0.0902397 3.7907391 2.6505461
vn -0.7071077 0.0000000 0.7071059
vt 0.1143626 0.6213070
v -0.0902397 3.7414031 2.6505461
vn -0.7071068 0.0000000 0.7071068
vt 0.1143626 0.6160502
v -0.0575545 3.7907369 2.6178610
vn 0.0000000 1.0000000 0.0000000
vt 0.3943621 0.8777940
v -0.0902397 3.7907391 2.6505461
vn 0.0000000 1.0000000 0.0000000
vt 0.3913084 0.8807721
v 0.0853816 3.7414031 2.6505461
vn 0.0000000 -1.0000000 0.0000000
vt 0.4027145 0.7248762
v -0.0024290 3.7414031 2.6872289
vn 0.0000000 -1.0000000 0.0000000
vt 0.4000094 0.7186295
v 0.1220648 3.7414031 2.5627351
vn 0.0000000 -1.0000000 0.0000000
vt 0.4090323 0.7274235
v -0.0902397 3.7414031 2.6505461
vn 0.0000000 -1.0000000 0.0000000
vt 0.4025531 0.7123116
v 0.0853816 3.7414031 2.4749250
vn 0.0000000 -1.0000000 0.0000000
vt 0.4152808 0.7247156
v -0.1269228 3.7414031 2.5627351
vn 0.0000000 -1.0000000 0.0000000
vt 0.4088027 0.7096063
v -0.0902397 3.7414031 2.4749250
vn 0.0000000 -1.0000000 0.0000000
vt 0.4151182 0.7121493
v -0.0024290 3.7414031 2.4382420
vn 0.0000000 -1.0000000 0.0000000
vt 0.4178258 0.7183999
v -0.2491502 2.4021990 2.4456820
vn -0.0884956 0.9960752 0.0016897
vt 0.9307534 0.6090608
v 0.2123212 2.4021990 2.4456820
vn 0.1088174 0.9935939 0.0304965
vt 0.9307534 0.5524424
v -0.2491986 2.3925281 2.3588691
vn -0.0928070 0.9646918 -0.2464886
vt 0.9414706 0.6090665
v 0.2216995 2.3929491 2.3589211
vn 0.1041581 0.9603043 -0.2587795
vt 0.9414589 0.5512917
v -0.2931158 1.5376310 2.7380979
vn -0.9945738 0.0000000 0.1040341
vt 0.1677629 0.6038505
v -0.2931158 2.3428681 2.7380550
vn -0.9943119 0.0428346 0.0975140
vt 0.1700820 0.6942363
v -0.2932854 1.5376310 2.4418161
vn -0.9999999 0.0000000 0.0005724
vt 0.1323643 0.6045096
v -0.2932828 2.3580790 2.4482610
vn -0.9986169 0.0525411 0.0019166
vt 0.1374356 0.6992152
v -0.2598920 1.5376310 2.7593710
vn -0.0517697 0.0003617 0.9986590
vt 0.1722520 0.6051748
v -0.2598920 2.3380671 2.7590809
vn -0.0546104 0.0386482 0.9977596
vt 0.1735809 0.6936395
v 0.1332643 2.3380320 2.7599130
vn 0.0502306 0.0371295 0.9980472
vt 0.2166951 0.6925434
v 0.1332643 1.5376310 2.7602029
vn 0.0474725 0.0003618 0.9988725
vt 0.2159155 0.6049461
v 0.1625418 1.5376310 2.7392910
vn 0.9299996 0.0000000 0.3675606
vt 0.2196392 0.6051899
v 0.1625418 2.3428459 2.7392471
vn 0.9306412 0.0452618 0.3631230
vt 0.2200144 0.6929365
v 0.2576895 1.5376310 2.4456820
vn 0.9642621 0.0000000 0.2649503
vt 0.2533704 0.6054413
v 0.2576895 2.3579440 2.4456820
vn 0.9626930 0.0490936 0.2661053
vt 0.2537058 0.6947230
v 0.2670903 1.5376310 2.3589261
vn 0.9787898 0.0000000 -0.2048672
vt 0.2627948 0.6054965
v 0.2670901 2.3478260 2.3589261
vn 0.9779898 0.0560314 -0.2009887
vt 0.2630727 0.6933421
v 0.1908127 1.5376310 2.1361761
vn 0.9182203 0.0000000 -0.3960699
vt 0.2881299 0.6051704
v 0.1908127 2.2765951 2.1361771
vn 0.9217477 0.0510489 -0.3844155
vt 0.2881385 0.6848130
v 0.1615352 1.5376310 2.1152639
vn 0.0495042 0.0000000 -0.9987739
vt 0.2918806 0.6053281
v 0.1615352 2.2595351 2.1152639
vn 0.0618784 0.0218906 -0.9978436
vt 0.2916076 0.6831683
v -0.2272289 2.2599020 2.1154561
vn -0.0632680 0.0197232 -0.9978017
vt 0.3335823 0.6840073
v -0.2272289 1.5376310 2.1154561
vn -0.0647331 0.0000000 -0.9979026
vt 0.3338872 0.6058478
v -0.2272289 1.5376310 2.1154561
vn -0.0647331 0.0000000 -0.9979026
vt 0.0913872 0.6054457
v -0.2606538 1.5376310 2.1426420
vn -0.9677994 -0.0010500 -0.2517208
vt 0.0965010 0.6052055
v -0.2272289 2.2599020 2.1154561
vn -0.0632680 0.0197232 -0.9978017
vt 0.0946739 0.6912761
v -0.2606538 2.2770619 2.1367090
vn -0.9723600 0.0494451 -0.2281914
vt 0.0995436 0.6917830
v -0.2933282 1.5376310 2.3667290
vn -0.9943871 -0.0006717 -0.1058005
vt 0.1226388 0.6038377
v -0.2933282 2.3548470 2.3667290
vn -0.9917683 0.0599221 -0.1131594
vt 0.1277325 0.6993917
v -0.2481192 2.3914981 2.7205329
vn -0.1193494 0.9728582 0.1982493
vt 0.8964934 0.6089343
v 0.1215675 2.3907011 2.7246749
vn 0.0791922 0.9774141 0.1959344
vt 0.8964933 0.5635771
v 0.1368890 2.3242149 2.1361761
vn 0.0652482 0.8796257 -0.4711702
vt 0.9700563 0.5617018
v -0.2062164 2.3242149 2.1361761
vn -0.0922507 0.8704820 -0.4834780
vt 0.9700497 0.6037980
v -0.2481192 2.3914981 2.7205329
vn -0.1193494 0.9728582 0.1982493
vt 0.1725399 0.7014177
v 0.1215675 2.3907011 2.7246749
vn 0.0791922 0.9774141 0.1959344
vt 0.2174370 0.6999426
v 0.2123212 2.4021990 2.4456820
vn 0.1088174 0.9935939 0.0304965
vt 0.2524719 0.7021153
v 0.2216995 2.3929491 2.3589211
vn 0.1041581 0.9603043 -0.2587795
vt 0.2647767 0.7004931
v 0.1368890 2.3242149 2.1361761
vn 0.0652482 0.8796257 -0.4711702
vt 0.2929347 0.6911424
v -0.2062164 2.3242149 2.1361761
vn -0.0922507 0.8704820 -0.4834780
vt 0.3311676 0.6915133
v -0.2062164 2.3242149 2.1361761
vn -0.0922507 0.8704820 -0.4834780
vt 0.0975333 0.7000009
v -0.2491986 2.3925281 2.3588691
vn -0.0928070 0.9646918 -0.2464886
vt 0.1260808 0.7063517
v -0.2491502 2.4021990 2.4456820
vn -0.0884956 0.9960752 0.0016897
vt 0.1378892 0.7071046
v -0.3688486 1.8408090 2.9156270
vn 0.0000000 0.7017950 0.7123790
vt 0.8705919 0.6199075
v -0.3688486 1.6552600 3.0317321
vn 0.0000000 0.5304507 0.8477158
vt 0.8455486 0.6199075
v 0.3639902 1.8408090 2.9156270
vn 0.0000000 0.7017947 0.7123793
vt 0.8705919 0.5383049
v 0.3639902 1.6552600 3.0317330
vn 0.0000000 0.5304511 0.8477156
vt 0.8455485 0.5383049
v -0.3688486 1.9483700 2.7429769
vn 0.0000000 0.9294794 0.3688742
vt 0.8932423 0.6199075
v 0.3639902 1.9483700 2.7429781
vn 0.0000000 0.9294792 0.3688746
vt 0.8932423 0.5383049
v -0.3688486 1.9901490 2.5393231
vn 0.0000000 0.9999952 0.0031177
vt 0.9163916 0.6199075
v 0.3639902 1.9901490 2.5393231
vn 0.0000000 0.9999952 0.0031171
vt 0.9163917 0.5383049
v -0.3688486 1.9496400 2.3356690
vn 0.0000000 0.9216842 -0.3879411
vt 0.9395131 0.6199075
v 0.3639902 1.9496400 2.3356690
vn 0.0000000 0.9216840 -0.3879415
vt 0.9395130 0.5383049
v -0.3688486 1.8317610 2.1630189
vn 0.0000000 0.6380497 -0.7699952
vt 0.9627914 0.6199075
v 0.3639902 1.8317610 2.1630189
vn 0.0000000 0.6380500 -0.7699950
vt 0.9627914 0.5383049
v -0.3688486 1.5713630 2.0222130
vn 0.0000000 0.4756486 -0.8796354
vt 0.9957545 0.6199075
v 0.3639902 1.5713630 2.0222130
vn 0.0000000 0.4756486 -0.8796355
vt 0.9957544 0.5383049
v 0.3639902 1.5713630 2.0222130
vn 1.0000000 0.0000000 0.0000000
vt 0.4388176 0.8849947
v 0.3639902 1.8317610 2.1630189
vn 1.0000000 0.0000000 0.0000000
vt 0.4140188 0.8688280
v 0.3639902 1.6552600 3.0317330
vn 1.0000000 0.0000000 0.0000000
vt 0.4388176 0.7825995
v 0.3639902 1.8408090 2.9156270
vn 1.0000000 0.0000000 0.0000000
vt 0.4192838 0.7937461
v 0.3639902 1.9483700 2.7429781
vn 1.0000000 0.0000000 0.0000000
vt 0.4071490 0.8100714
v 0.3639902 1.9901490 2.5393231
vn 1.0000000 0.0000000 0.0000000
vt 0.4013169 0.8300261
v 0.3639902 1.9496400 2.3356690
vn 1.0000000 0.0000000 0.0000000
vt 0.4036857 0.8506549
v -0.3688486 1.5713630 2.0222130
vn -1.0000000 0.0000000 0.0000000
vt 0.4388173 0.8849949
v -0.3688486 1.6552600 3.0317321
vn -1.0000000 0.0000000 0.0000000
vt 0.4388175 0.7825993
v -0.3688486 1.8317610 2.1630189
vn -1.0000000 0.0000000 0.0000000
vt 0.4140190 0.8688281
v -0.3688486 1.9496400 2.3356690
vn -1.0000000 0.0000000 0.0000000
vt 0.4036856 0.8506550
v -0.3688486 1.9901490 2.5393231
vn -1.0000000 0.0000000 0.0000000
vt 0.4013168 0.8300260
v -0.3688486 1.9483700 2.7429769
vn -1.0000000 0.0000000 0.0000000
vt 0.4071490 0.8100713
v -0.3688486 1.8408090 2.9156270
vn -1.0000000 0.0000000 0.0000000
vt 0.4192838 0.7937459
v -0.3688486 1.5713630 2.0222130
vn 0.0000000 -0.9965645 0.0828202
vt 0.8263021 0.0643030
v 0.3639902 1.5713630 2.0222130
vn 0.0000000 -0.9965645 0.0828201
vt 0.7872695 0.0643030
v -0.3688486 1.6552600 3.0317321
vn 0.0000000 -0.9965645 0.0828200
vt 0.8263021 0.0097651
v 0.3639902 1.6552600 3.0317330
vn 0.0000000 -0.9965646 0.0828199
vt 0.7872695 0.0097650
v -0.0024290 3.2464321 2.5627351
vn 0.0000000 1.0000000 0.0000000
vt 0.0810988 0.7603278
v -0.0024290 3.2464321 2.5627351
vn 0.0000000 1.0000000 0.0000000
vt 0.0810988 0.7603278
v -0.0024290 3.2464321 2.5627351
vn 0.0000000 1.0000000 0.0000000
vt 0.0810988 0.7603278
v -0.0024290 3.7907369 2.6406889
vn 0.0000000 0.1417699 -0.9898996
vt 0.0525418 0.7606878
v -0.0024290 3.7907369 2.4847829
vn 0.0000000 0.1417683 0.9898999
vt 0.0544704 0.7499965

g group_155263816_2822788354224
f 1/1/1 2/2/2 3/3/3 
f 3/3/3 2/2/2 4/4/4 
f 5/5/5 1/1/1 6/6/6 
f 6/6/6 1/1/1 3/3/3 
f 7/7/7 5/5/5 8/8/8 
f 8/8/8 5/5/5 6/6/6 
f 9/9/9 7/7/7 10/10/10 
f 10/10/10 7/7/7 8/8/8 
f 11/11/11 12/12/12 13/13/13 
f 13/13/13 12/12/12 14/14/14 
f 15/15/15 11/11/11 16/16/16 
f 16/16/16 11/11/11 13/13/13 
f 17/17/17 15/15/15 18/18/18 
f 18/18/18 15/15/15 16/16/16 
f 2/2/2 17/17/17 4/4/4 
f 4/4/4 17/17/17 18/18/18 
f 19/19/19 20/20/20 21/21/21 
f 21/21/21 20/20/20 22/22/22 
f 23/23/23 24/24/24 25/25/25 
f 25/25/25 24/24/24 26/26/26 
f 27/27/27 28/28/28 29/29/29 
f 30/30/30 19/19/19 31/31/31 
f 31/31/31 19/19/19 21/21/21 
f 23/23/23 25/25/25 32/32/32 
f 32/32/32 25/25/25 33/33/33 
f 29/29/29 34/34/34 27/27/27 
f 35/35/35 30/30/30 36/36/36 
f 36/36/36 30/30/30 31/31/31 
f 37/37/37 32/32/32 38/38/38 
f 38/38/38 32/32/32 33/33/33 
f 27/27/27 34/34/34 39/39/39 
f 40/40/40 35/35/35 41/41/41 
f 41/41/41 35/35/35 36/36/36 
f 37/37/37 38/38/38 42/42/42 
f 42/42/42 38/38/38 43/43/43 
f 39/39/39 44/44/44 145/145/145 
f 45/45/45 46/46/46 47/47/47 
f 47/47/47 46/46/46 48/48/48 
f 49/49/49 42/42/42 50/50/50 
f 50/50/50 42/42/42 43/43/43 
f 146/146/146 149/149/149 51/51/51 
f 52/52/52 45/45/45 53/53/53 
f 53/53/53 45/45/45 47/47/47 
f 49/49/49 50/50/50 54/54/54 
f 54/54/54 50/50/50 55/55/55 
f 51/51/51 56/56/56 27/27/27 
f 145/145/145 56/56/56 57/57/57 
f 58/58/58 52/52/52 59/59/59 
f 59/59/59 52/52/52 53/53/53 
f 60/60/60 54/54/54 61/61/61 
f 61/61/61 54/54/54 55/55/55 
f 147/147/147 57/57/57 148/148/148 
f 20/20/20 58/58/58 22/22/22 
f 22/22/22 58/58/58 59/59/59 
f 60/60/60 61/61/61 24/24/24 
f 24/24/24 61/61/61 26/26/26 
f 62/62/62 63/63/63 64/64/64 
f 63/63/63 65/65/65 64/64/64 
f 64/64/64 65/65/65 66/66/66 
f 65/65/65 67/67/67 66/66/66 
f 67/67/67 68/68/68 66/66/66 
f 68/68/68 69/69/69 66/66/66 
f 70/70/70 71/71/71 72/72/72 
f 72/72/72 71/71/71 73/73/73 
f 74/74/74 75/75/75 76/76/76 
f 76/76/76 75/75/75 77/77/77 
f 78/78/78 79/79/79 74/74/74 
f 74/74/74 79/79/79 75/75/75 
f 80/80/80 79/79/79 81/81/81 
f 81/81/81 79/79/79 78/78/78 
f 81/81/81 82/82/82 80/80/80 
f 80/80/80 82/82/82 83/83/83 
f 82/82/82 84/84/84 83/83/83 
f 83/83/83 84/84/84 85/85/85 
f 86/86/86 87/87/87 84/84/84 
f 84/84/84 87/87/87 85/85/85 
f 88/88/88 89/89/89 86/86/86 
f 86/86/86 89/89/89 87/87/87 
f 90/90/90 91/91/91 88/88/88 
f 88/88/88 91/91/91 89/89/89 
f 92/92/92 91/91/91 93/93/93 
f 93/93/93 91/91/91 90/90/90 
f 94/94/94 95/95/95 96/96/96 
f 96/96/96 95/95/95 97/97/97 
f 95/95/95 98/98/98 97/97/97 
f 97/97/97 98/98/98 99/99/99 
f 100/100/100 101/101/101 70/70/70 
f 70/70/70 101/101/101 71/71/71 
f 73/73/73 102/102/102 72/72/72 
f 72/72/72 102/102/102 103/103/103 
f 104/104/104 75/75/75 79/79/79 
f 104/104/104 79/79/79 105/105/105 
f 105/105/105 79/79/79 80/80/80 
f 105/105/105 80/80/80 83/83/83 
f 106/106/106 85/85/85 107/107/107 
f 107/107/107 85/85/85 87/87/87 
f 87/87/87 89/89/89 107/107/107 
f 107/107/107 89/89/89 108/108/108 
f 108/108/108 89/89/89 91/91/91 
f 91/91/91 92/92/92 108/108/108 
f 108/108/108 92/92/92 109/109/109 
f 110/110/110 96/96/96 97/97/97 
f 97/97/97 99/99/99 110/110/110 
f 110/110/110 99/99/99 111/111/111 
f 112/112/112 77/77/77 104/104/104 
f 104/104/104 77/77/77 75/75/75 
f 111/111/111 99/99/99 112/112/112 
f 112/112/112 99/99/99 77/77/77 
f 105/105/105 83/83/83 106/106/106 
f 106/106/106 83/83/83 85/85/85 
f 77/77/77 99/99/99 76/76/76 
f 76/76/76 99/99/99 98/98/98 
f 113/113/113 114/114/114 115/115/115 
f 115/115/115 114/114/114 116/116/116 
f 117/117/117 113/113/113 118/118/118 
f 118/118/118 113/113/113 115/115/115 
f 119/119/119 117/117/117 120/120/120 
f 120/120/120 117/117/117 118/118/118 
f 121/121/121 119/119/119 122/122/122 
f 122/122/122 119/119/119 120/120/120 
f 123/123/123 121/121/121 124/124/124 
f 124/124/124 121/121/121 122/122/122 
f 125/125/125 123/123/123 126/126/126 
f 126/126/126 123/123/123 124/124/124 
f 127/127/127 128/128/128 129/129/129 
f 129/129/129 128/128/128 130/130/130 
f 130/130/130 128/128/128 131/131/131 
f 131/131/131 128/128/128 132/132/132 
f 128/128/128 133/133/133 132/132/132 
f 134/134/134 135/135/135 136/136/136 
f 136/136/136 135/135/135 137/137/137 
f 137/137/137 135/135/135 138/138/138 
f 138/138/138 135/135/135 139/139/139 
f 140/140/140 139/139/139 135/135/135 
f 141/141/141 142/142/142 143/143/143 
f 143/143/143 142/142/142 144/144/144 
