v 0.0006775 2.3649540 2.6540680
vn 0.0642432 0.0229589 0.9976702
vt 0.0236088 0.7081986
v -0.0529590 2.3649540 2.6366820
vn -0.4965838 0.0200272 0.8677577
vt 0.0281091 0.7081986
v 0.0006769 1.9227620 2.6698420
vn -0.1060828 0.0354281 0.9937260
vt 0.0236361 0.7539271
v -0.0622702 1.9227620 2.6494060
vn -0.6708311 0.0354206 0.7407638
vt 0.0281073 0.7539271
v 0.0006583 5.4114790 2.6398950
vn -0.0004182 0.0046717 0.9999890
vt 0.0235906 0.3136972
v -0.0447409 5.4114790 2.6252029
vn -0.6713160 0.0046139 0.7411569
vt 0.0281003 0.3136910
v -0.0860938 2.3649540 2.5911300
vn -0.9120675 0.0200327 0.4095505
vt 0.0326026 0.7081986
v -0.1011032 1.9227620 2.5959699
vn -0.9782065 0.0354336 0.2045888
vt 0.0325769 0.7539271
v -0.0726465 5.4114790 2.5867100
vn -0.9789650 0.0046258 0.2039759
vt 0.0325959 0.3136911
v -0.0860886 2.3649540 2.5347431
vn -0.9785288 0.0200324 -0.2051344
vt 0.0371018 0.7081986
v -0.1010828 1.9227620 2.5298829
vn -0.9115763 0.0354026 -0.4096037
vt 0.0370665 0.7539271
v -0.0725778 5.4114790 2.5391459
vn -0.9119084 0.0046423 -0.4103676
vt 0.0370935 0.3136911
v -0.0530041 2.3649540 2.4892180
vn -0.6713449 0.0200213 -0.7408746
vt 0.0415909 0.7081986
v -0.0622363 1.9227620 2.4764540
vn -0.4973305 0.0354066 -0.8668384
vt 0.0415719 0.7539271
v -0.0445615 5.4114790 2.5006590
vn -0.4975762 0.0046341 -0.8674079
vt 0.0415949 0.3136911
v 0.0005127 2.3649540 2.4717820
vn -0.1099357 0.0200323 -0.9937368
vt 0.0460800 0.7081986
v 0.0005130 1.9227620 2.4560080
vn 0.1015301 0.0357615 -0.9941895
vt 0.0460800 0.7539271
v 0.0005151 5.4114790 2.4859550
vn 0.1053146 0.0046570 -0.9944280
vt 0.0460800 0.3136913
v 0.0005127 2.3649540 2.4717820
vn -0.1099357 0.0200323 -0.9937368
vt 0.0010844 0.7081986
v 0.0549719 2.3649540 2.4891591
vn 0.4972039 0.0208339 -0.8673835
vt 0.0056452 0.7081986
v 0.0005130 1.9227620 2.4560080
vn 0.1015301 0.0357615 -0.9941895
vt 0.0010844 0.7539271
v 0.0659076 1.9227620 2.4764011
vn 0.6792756 0.0371219 -0.7329439
vt 0.0057789 0.7539271
v 0.0005151 5.4114790 2.4859550
vn 0.1053146 0.0046570 -0.9944280
vt 0.0010844 0.3132542
v 0.0458362 5.4114790 2.5006509
vn 0.6744114 0.0047242 -0.7383407
vt 0.0055996 0.3134017
v 0.0872443 2.3649540 2.5347769
vn 0.9158053 0.0206106 -0.4010932
vt 0.0101042 0.7081986
v 0.1022699 1.9227620 2.5298879
vn 0.9800996 0.0354245 -0.1953202
vt 0.0102029 0.7539271
v 0.0738281 5.4114790 2.5391459
vn 0.9787929 0.0046198 -0.2048004
vt 0.0101058 0.3135491
v 0.0873019 2.3649540 2.5910480
vn 0.9794518 0.0200318 0.2006813
vt 0.0145954 0.7081986
v 0.1022797 1.9227620 2.5959570
vn 0.9122179 0.0344653 0.4082533
vt 0.0147052 0.7539271
v 0.0737598 5.4114790 2.5867100
vn 0.9138992 0.0047182 0.4059139
vt 0.0146043 0.3136938
v 0.0550562 2.3649540 2.6366391
vn 0.6256179 0.0174156 0.7799352
vt 0.0190507 0.7081986
v 0.0626636 1.9227620 2.6494391
vn 0.4943794 0.0339981 0.8685811
vt 0.0192214 0.7539271
v 0.0458295 5.4114790 2.6251950
vn 0.5881724 0.0048193 0.8087212
vt 0.0191003 0.3136908
v 0.0006583 5.4114790 2.6398950
vn 0.0000000 1.0000000 0.0000000
vt 0.2513460 0.7174823
v 0.0005060 5.4114790 2.6218259
vn 0.0000000 1.0000000 0.0000000
vt 0.2513530 0.7152768
v -0.0447409 5.4114790 2.6252029
vn 0.0000000 1.0000000 0.0000000
vt 0.2549281 0.7163104
v -0.0340991 5.4114790 2.6105270
vn 0.0000000 1.0000000 0.0000000
vt 0.2538043 0.7144694
v 0.0458295 5.4114790 2.6251950
vn 0.0000000 1.0000000 0.0000000
vt 0.2477730 0.7163283
v 0.0351434 5.4114790 2.6106269
vn 0.0000000 1.0000000 0.0000000
vt 0.2488937 0.7144873
v 0.0737598 5.4114790 2.5867100
vn 0.0000000 1.0000000 0.0000000
vt 0.2455585 0.7132897
v 0.0566095 5.4114790 2.5811510
vn 0.0000000 1.0000000 0.0000000
vt 0.2473659 0.7123978
v 0.0738281 5.4114790 2.5391459
vn 0.0000000 1.0000000 0.0000000
vt 0.2455471 0.7095287
v 0.0566089 5.4114790 2.5447249
vn 0.0000000 1.0000000 0.0000000
vt 0.2473619 0.7098120
v 0.0458362 5.4114790 2.5006509
vn 0.0000000 1.0000000 0.0000000
vt 0.2477559 0.7064826
v 0.0352808 5.4114790 2.5152750
vn 0.0000000 1.0000000 0.0000000
vt 0.2488720 0.7077194
v 0.0005151 5.4114790 2.4859550
vn 0.0000000 1.0000000 0.0000000
vt 0.2513354 0.7053168
v 0.0006757 5.4114790 2.5040240
vn 0.0000000 1.0000000 0.0000000
vt 0.2513258 0.7069182
v -0.0445615 5.4114790 2.5006590
vn 0.0000000 1.0000000 0.0000000
vt 0.2548974 0.7064742
v -0.0339618 5.4114790 2.5152719
vn 0.0000000 1.0000000 0.0000000
vt 0.2537823 0.7077127
v -0.0554013 5.4114790 2.5447230
vn 0.0000000 1.0000000 0.0000000
vt 0.2553049 0.7097989
v -0.0725778 5.4114790 2.5391459
vn 0.0000000 1.0000000 0.0000000
vt 0.2571123 0.7095110
v -0.0726465 5.4114790 2.5867100
vn 0.0000000 1.0000000 0.0000000
vt 0.2571228 0.7132662
v -0.0554535 5.4114790 2.5811031
vn 0.0000000 1.0000000 0.0000000
vt 0.2553128 0.7123786
v -0.0340991 5.4114790 2.6105270
vn 0.3095389 0.0735856 -0.9480352
vt 0.0526913 0.7585334
v 0.0005060 5.4114790 2.6218259
vn 0.0014434 0.0773502 -0.9970030
vt 0.0525420 0.7606879
v 0.0005908 4.6522708 2.5629251
vn 0.0026328 0.9999963 0.0006694
vt 0.0810988 0.7603278
v 0.0351434 5.4114790 2.6106269
vn -0.5849867 0.0773508 -0.8073460
vt 0.0526913 0.7585334
v 0.0566095 5.4114790 2.5811510
vn -0.9480377 0.0773602 -0.3086098
vt 0.0529621 0.7563665
v 0.0566089 5.4114790 2.5447249
vn -0.9484394 0.0773494 0.3073759
vt 0.0533516 0.7542063
v 0.0352808 5.4114790 2.5152750
vn -0.5867103 0.0774006 0.8060895
vt 0.0538559 0.7520742
v 0.0006757 5.4114790 2.5040240
vn -0.0001695 0.0773494 0.9970041
vt 0.0544703 0.7499965
v -0.0339618 5.4114790 2.5152719
vn 0.5855821 0.0772979 0.8069192
vt 0.0538559 0.7520742
v -0.0554013 5.4114790 2.5447230
vn 0.9478421 0.0773174 0.3092208
vt 0.0533516 0.7542063
v -0.0554535 5.4114790 2.5811031
vn 0.9485068 0.0773726 -0.3071619
vt 0.0529621 0.7563665
v -0.0340991 5.4114790 2.6105270
vn 0.8071286 0.0736077 -0.5857691
vt 0.0526913 0.7585334
v -0.3688486 1.8408090 2.9156270
vn 0.0000000 0.7687115 0.6395957
vt 0.8705919 0.5368259
v -0.3688486 1.6552600 3.0427189
vn 0.0000000 0.5651021 0.8250210
vt 0.8455486 0.5368259
v 0.3639902 1.8408090 2.9156270
vn 0.0000000 0.6723407 0.7402418
vt 0.8705919 0.4552235
v 0.3639902 1.6552600 3.0427201
vn 0.0000000 0.5651023 0.8250208
vt 0.8455485 0.4552235
v -0.3688486 1.9483700 2.7429769
vn 0.0000000 0.9492177 0.3146202
vt 0.8932423 0.5368259
v 0.3639902 1.9483700 2.7429781
vn 0.0000000 0.9049876 0.4254380
vt 0.8932423 0.4552235
v -0.3688486 1.9901490 2.5393231
vn 0.0000000 0.9979370 -0.0642015
vt 0.9163916 0.5368259
v 0.3639902 1.9901490 2.5393231
vn 0.0000000 0.9975345 0.0701782
vt 0.9163917 0.4552235
v -0.3688486 1.9496400 2.3356690
vn 0.0000000 0.8935332 -0.4489971
vt 0.9395131 0.5368259
v 0.3639902 1.9496400 2.3356690
vn 0.0000000 0.9461169 -0.3238252
vt 0.9395130 0.4552235
v -0.3688486 1.8317610 2.1630189
vn 0.0000000 0.6075884 -0.7942521
vt 0.9627914 0.5368259
v 0.3639902 1.8317610 2.1630189
vn 0.0000000 0.7273226 -0.6862957
vt 0.9627914 0.4552235
v -0.3688486 1.5713630 2.0222130
vn 0.0000000 0.4756486 -0.8796355
vt 0.9957545 0.5368259
v 0.3639902 1.5713630 2.0222130
vn 0.0000000 0.4756486 -0.8796354
vt 0.9957544 0.4552235
v 0.3639902 1.5713630 2.0222130
vn 1.0000000 0.0000000 0.0000000
vt 0.4388176 0.8849947
v 0.3639902 1.8317610 2.1630189
vn 1.0000000 0.0000000 0.0000000
vt 0.4140188 0.8688280
v 0.3639902 1.6552600 3.0427201
vn 1.0000000 0.0000000 0.0000000
vt 0.4388176 0.7825995
v 0.3639902 1.8408090 2.9156270
vn 1.0000000 0.0000000 0.0000000
vt 0.4192838 0.7937461
v 0.3639902 1.9483700 2.7429781
vn 1.0000000 0.0000000 0.0000000
vt 0.4071490 0.8100714
v 0.3639902 1.9901490 2.5393231
vn 1.0000000 0.0000000 0.0000000
vt 0.4013169 0.8300261
v 0.3639902 1.9496400 2.3356690
vn 1.0000000 0.0000000 0.0000000
vt 0.4036857 0.8506549
v -0.3688486 1.5713630 2.0222130
vn -1.0000000 0.0000000 0.0000000
vt 0.4388173 0.8849949
v -0.3688486 1.6552600 3.0427189
vn -1.0000000 0.0000000 0.0000000
vt 0.4388175 0.7825993
v -0.3688486 1.8317610 2.1630189
vn -1.0000000 0.0000000 0.0000000
vt 0.4140190 0.8688281
v -0.3688486 1.9496400 2.3356690
vn -1.0000000 0.0000000 0.0000000
vt 0.4036856 0.8506550
v -0.3688486 1.9901490 2.5393231
vn -1.0000000 0.0000000 0.0000000
vt 0.4013168 0.8300260
v -0.3688486 1.9483700 2.7429769
vn -1.0000000 0.0000000 0.0000000
vt 0.4071490 0.8100713
v -0.3688486 1.8408090 2.9156270
vn -1.0000000 0.0000000 0.0000000
vt 0.4192838 0.7937459
v -0.3688486 1.5713630 2.0222130
vn 0.0000000 -0.9966377 0.0819345
vt 0.8263021 0.0643030
v 0.3639902 1.5713630 2.0222130
vn 0.0000000 -0.9966377 0.0819344
vt 0.7872695 0.0643030
v -0.3688486 1.6552600 3.0427189
vn 0.0000000 -0.9966377 0.0819344
vt 0.8263021 0.0097651
v 0.3639902 1.6552600 3.0427201
vn 0.0000000 -0.9966378 0.0819343
vt 0.7872695 0.0097650
v 0.0005060 5.4114790 2.6218259
vn 0.0014434 0.0773502 -0.9970030
vt 0.0525420 0.7606879
v 0.0005908 4.6522708 2.5629251
vn 0.0026328 0.9999963 0.0006694
vt 0.0810988 0.7603278
v 0.0005908 4.6522708 2.5629251
vn 0.0026328 0.9999963 0.0006694
vt 0.0810988 0.7603278
v 0.0006757 5.4114790 2.5040240
vn -0.0001695 0.0773494 0.9970041
vt 0.0544703 0.7499965

g group_155264152_2822788352096
f 1/1/1 2/2/2 3/3/3 
f 3/3/3 2/2/2 4/4/4 
f 1/1/1 5/5/5 2/2/2 
f 2/2/2 5/5/5 6/6/6 
f 2/2/2 7/7/7 4/4/4 
f 4/4/4 7/7/7 8/8/8 
f 2/2/2 6/6/6 7/7/7 
f 7/7/7 6/6/6 9/9/9 
f 7/7/7 10/10/10 8/8/8 
f 8/8/8 10/10/10 11/11/11 
f 7/7/7 9/9/9 10/10/10 
f 10/10/10 9/9/9 12/12/12 
f 10/10/10 13/13/13 11/11/11 
f 11/11/11 13/13/13 14/14/14 
f 10/10/10 12/12/12 13/13/13 
f 13/13/13 12/12/12 15/15/15 
f 13/13/13 16/16/16 14/14/14 
f 14/14/14 16/16/16 17/17/17 
f 13/13/13 15/15/15 16/16/16 
f 16/16/16 15/15/15 18/18/18 
f 19/19/19 20/20/20 21/21/21 
f 21/21/21 20/20/20 22/22/22 
f 19/19/19 23/23/23 20/20/20 
f 20/20/20 23/23/23 24/24/24 
f 20/20/20 25/25/25 22/22/22 
f 22/22/22 25/25/25 26/26/26 
f 20/20/20 24/24/24 25/25/25 
f 25/25/25 24/24/24 27/27/27 
f 25/25/25 28/28/28 26/26/26 
f 26/26/26 28/28/28 29/29/29 
f 25/25/25 27/27/27 28/28/28 
f 28/28/28 27/27/27 30/30/30 
f 28/28/28 31/31/31 29/29/29 
f 29/29/29 31/31/31 32/32/32 
f 28/28/28 30/30/30 31/31/31 
f 31/31/31 30/30/30 33/33/33 
f 31/31/31 1/1/1 32/32/32 
f 32/32/32 1/1/1 3/3/3 
f 1/1/1 31/31/31 5/5/5 
f 5/5/5 31/31/31 33/33/33 
f 34/34/34 35/35/35 36/36/36 
f 36/36/36 35/35/35 37/37/37 
f 38/38/38 39/39/39 34/34/34 
f 34/34/34 39/39/39 35/35/35 
f 40/40/40 41/41/41 38/38/38 
f 38/38/38 41/41/41 39/39/39 
f 42/42/42 43/43/43 40/40/40 
f 40/40/40 43/43/43 41/41/41 
f 44/44/44 45/45/45 42/42/42 
f 42/42/42 45/45/45 43/43/43 
f 46/46/46 47/47/47 44/44/44 
f 44/44/44 47/47/47 45/45/45 
f 48/48/48 49/49/49 46/46/46 
f 46/46/46 49/49/49 47/47/47 
f 50/50/50 49/49/49 51/51/51 
f 51/51/51 49/49/49 48/48/48 
f 52/52/52 53/53/53 51/51/51 
f 51/51/51 53/53/53 50/50/50 
f 36/36/36 37/37/37 52/52/52 
f 52/52/52 37/37/37 53/53/53 
f 54/54/54 55/55/55 56/56/56 
f 98/98/98 57/57/57 99/99/99 
f 57/57/57 58/58/58 99/99/99 
f 58/58/58 59/59/59 100/100/100 
f 59/59/59 60/60/60 100/100/100 
f 60/60/60 61/61/61 56/56/56 
f 101/101/101 62/62/62 99/99/99 
f 62/62/62 63/63/63 99/99/99 
f 63/63/63 64/64/64 100/100/100 
f 64/64/64 65/65/65 56/56/56 
f 66/66/66 67/67/67 68/68/68 
f 68/68/68 67/67/67 69/69/69 
f 70/70/70 66/66/66 71/71/71 
f 71/71/71 66/66/66 68/68/68 
f 72/72/72 70/70/70 73/73/73 
f 73/73/73 70/70/70 71/71/71 
f 74/74/74 72/72/72 75/75/75 
f 75/75/75 72/72/72 73/73/73 
f 76/76/76 74/74/74 77/77/77 
f 77/77/77 74/74/74 75/75/75 
f 78/78/78 76/76/76 79/79/79 
f 79/79/79 76/76/76 77/77/77 
f 80/80/80 81/81/81 82/82/82 
f 82/82/82 81/81/81 83/83/83 
f 83/83/83 81/81/81 84/84/84 
f 84/84/84 81/81/81 85/85/85 
f 81/81/81 86/86/86 85/85/85 
f 87/87/87 88/88/88 89/89/89 
f 89/89/89 88/88/88 90/90/90 
f 90/90/90 88/88/88 91/91/91 
f 91/91/91 88/88/88 92/92/92 
f 93/93/93 92/92/92 88/88/88 
f 94/94/94 95/95/95 96/96/96 
f 96/96/96 95/95/95 97/97/97 
