v -0.3648486 1.8408090 2.9156270
vn 0.0000000 0.7149723 0.6991528
vt 0.8705928 0.7025973
v -0.3648486 1.6552600 3.0427189
vn 0.0000000 0.5651020 0.8250211
vt 0.8455496 0.7025973
v 0.3679901 1.8408090 2.9156270
vn 0.0000000 0.7149721 0.6991531
vt 0.8705928 0.6209947
v 0.3679901 1.6552600 3.0427201
vn 0.0000000 0.5651023 0.8250209
vt 0.8455496 0.6209947
v -0.3648486 1.9483700 2.7429769
vn 0.0000000 0.9294794 0.3688742
vt 0.8932431 0.7025973
v 0.3679901 1.9483700 2.7429781
vn 0.0000000 0.9294792 0.3688746
vt 0.8932431 0.6209947
v -0.3648486 1.9901490 2.5393231
vn 0.0000000 0.9999952 0.0031177
vt 0.9163926 0.7025973
v 0.3679901 1.9901490 2.5393231
vn 0.0000000 0.9999952 0.0031171
vt 0.9163927 0.6209947
v -0.3648486 1.9496400 2.3356690
vn 0.0000000 0.9216842 -0.3879411
vt 0.9395141 0.7025973
v 0.3679901 1.9496400 2.3356690
vn 0.0000000 0.9216840 -0.3879415
vt 0.9395142 0.6209947
v -0.3648486 1.8317610 2.1630189
vn 0.0000000 0.6380497 -0.7699952
vt 0.9627925 0.7025973
v 0.3679901 1.8317610 2.1630189
vn 0.0000000 0.6380500 -0.7699950
vt 0.9627926 0.6209947
v -0.3648486 1.5713630 2.0222130
vn 0.0000000 0.4756486 -0.8796354
vt 0.9957556 0.7025970
v 0.3679901 1.5713630 2.0222130
vn 0.0000000 0.4756486 -0.8796355
vt 0.9957558 0.6209950
v 0.3679901 1.5713630 2.0222130
vn 1.0000000 0.0000000 0.0000000
vt 0.4388125 0.8849953
v 0.3679901 1.8317610 2.1630189
vn 1.0000000 0.0000000 0.0000000
vt 0.4140143 0.8688288
v 0.3679901 1.6552600 3.0427201
vn 1.0000000 0.0000000 0.0000000
vt 0.4388130 0.7826006
v 0.3679901 1.8408090 2.9156270
vn 1.0000000 0.0000000 0.0000000
vt 0.4192790 0.7937472
v 0.3679901 1.9483700 2.7429781
vn 1.0000000 0.0000000 0.0000000
vt 0.4071441 0.8100727
v 0.3679901 1.9901490 2.5393231
vn 1.0000000 0.0000000 0.0000000
vt 0.4013121 0.8300271
v 0.3679901 1.9496400 2.3356690
vn 1.0000000 0.0000000 0.0000000
vt 0.4036801 0.8506560
v -0.3648486 1.5713630 2.0222130
vn -1.0000000 0.0000000 0.0000000
vt 0.4388123 0.8849955
v -0.3648486 1.6552600 3.0427189
vn -1.0000000 0.0000000 0.0000000
vt 0.4388130 0.7826005
v -0.3648486 1.8317610 2.1630189
vn -1.0000000 0.0000000 0.0000000
vt 0.4140142 0.8688289
v -0.3648486 1.9496400 2.3356690
vn -1.0000000 0.0000000 0.0000000
vt 0.4036801 0.8506560
v -0.3648486 1.9901490 2.5393231
vn -1.0000000 0.0000000 0.0000000
vt 0.4013121 0.8300271
v -0.3648486 1.9483700 2.7429769
vn -1.0000000 0.0000000 0.0000000
vt 0.4071441 0.8100727
v -0.3648486 1.8408090 2.9156270
vn -1.0000000 0.0000000 0.0000000
vt 0.4192790 0.7937471
v -0.3648486 1.5713630 2.0222130
vn 0.0000000 -0.9966377 0.0819345
vt 0.8262985 0.0643050
v 0.3679901 1.5713630 2.0222130
vn 0.0000000 -0.9966377 0.0819344
vt 0.7872658 0.0643047
v -0.3648486 1.6552600 3.0427189
vn 0.0000000 -0.9966378 0.0819344
vt 0.8262976 0.0097672
v 0.3679901 1.6552600 3.0427201
vn 0.0000000 -0.9966378 0.0819343
vt 0.7872649 0.0097672
v 0.0647296 2.4117830 2.6053109
vn 0.7071058 0.0000000 0.7071078
vt 0.0649206 0.6805316
v 0.0014276 2.4117830 2.6314881
vn 0.0000000 0.0000000 1.0000000
vt 0.0697886 0.6806588
v 0.0647296 2.1657479 2.6053109
vn 0.7071067 0.0000000 0.7071068
vt 0.0648927 0.7072102
v 0.0014276 2.1657479 2.6314881
vn 0.0000000 0.0000000 1.0000000
vt 0.0697643 0.7072313
v 0.0600137 2.4187889 2.6005950
vn 0.5200619 0.6892867 0.5044001
vt 0.0649204 0.6796830
v 0.0014276 2.4187889 2.6249039
vn 0.0103384 0.6849834 0.7284853
vt 0.0697950 0.6795781
v 0.0647296 2.4117830 2.6053109
vn 0.5197963 0.6892202 0.5047647
vt 0.0649206 0.6805316
v 0.0014276 2.4117830 2.6314881
vn 0.0099185 0.6850579 0.7284212
vt 0.0697886 0.6806588
v 0.0600137 3.4135530 2.6005950
vn 0.7071075 0.0000000 0.7071061
vt 0.0649639 0.5644735
v 0.0014276 3.4135530 2.6249161
vn 0.0000000 0.0000000 1.0000000
vt 0.0697990 0.5644532
v 0.0600137 2.4187889 2.6005950
vn 0.7071093 0.0000000 0.7071043
vt 0.0649204 0.6796830
v 0.0014276 2.4187889 2.6249039
vn 0.0000000 0.0000000 1.0000000
vt 0.0697950 0.6795781
v 0.0464275 3.4134300 2.5870090
vn -0.0045260 0.9999795 -0.0045251
vt 0.2481446 0.7142157
v 0.0014276 3.4134300 2.6055470
vn 0.0000000 0.9999797 -0.0063720
vt 0.2513160 0.7153496
v 0.0600137 3.4135530 2.6005950
vn -0.0045154 0.9999796 -0.0045194
vt 0.2470096 0.7153404
v 0.0014276 3.4135530 2.6249161
vn 0.0000000 0.9999797 -0.0063682
vt 0.2513160 0.7171749
v 0.0014276 3.2783949 2.5420091
vn 0.0000000 1.0000000 0.0000000
vt 0.0810999 0.7603258
v 0.0014276 3.4134300 2.6055470
vn 0.0000000 0.4257475 -0.9048420
vt 0.0525429 0.7606877
v 0.0464275 3.4134300 2.5870090
vn -0.6396355 0.4263083 -0.6396309
vt 0.0526377 0.7579575
v 0.0909064 2.4117830 2.5420101
vn 1.0000000 0.0000000 0.0000000
vt 0.0600431 0.6806532
v 0.0909061 2.1657479 2.5420101
vn 1.0000000 0.0000000 0.0000000
vt 0.0600272 0.7072257
v 0.0843225 2.4187889 2.5420101
vn 0.7284852 0.6849834 -0.0103479
vt 0.0600228 0.6795726
v 0.0909064 2.4117830 2.5420101
vn 0.7284205 0.6850584 -0.0099334
vt 0.0600431 0.6806532
v 0.0843338 3.4135530 2.5420101
vn 1.0000000 0.0000000 0.0000000
vt 0.0601139 0.5644477
v 0.0843225 2.4187889 2.5420101
vn 1.0000000 0.0000000 0.0000000
vt 0.0600228 0.6795726
v 0.0649643 3.4134300 2.5420101
vn -0.0063570 0.9999798 0.0000000
vt 0.2470154 0.7110630
v 0.0843338 3.4135530 2.5420101
vn -0.0063493 0.9999799 0.0000000
vt 0.2451899 0.7110630
v 0.0649643 3.4134300 2.5420101
vn -0.9048437 0.4257439 0.0000000
vt 0.0529925 0.7552490
v 0.0647296 2.4117830 2.4787071
vn 0.7071069 0.0000000 -0.7071066
vt 0.0551623 0.6805168
v 0.0647296 2.1657479 2.4787071
vn 0.7071070 0.0000000 -0.7071066
vt 0.0551456 0.7071957
v 0.0600137 2.4187889 2.4834230
vn 0.5043834 0.6892986 -0.5200624
vt 0.0551729 0.6796690
v 0.0647296 2.4117830 2.4787071
vn 0.5047512 0.6892309 -0.5197952
vt 0.0551623 0.6805168
v 0.0600137 3.4135530 2.4834230
vn 0.7071033 0.0000000 -0.7071102
vt 0.0552641 0.5644591
v 0.0600137 2.4187889 2.4834230
vn 0.7071068 0.0000000 -0.7071068
vt 0.0551729 0.6796690
v 0.0464275 3.4134300 2.4970090
vn -0.0045260 0.9999796 0.0045180
vt 0.2481412 0.7078902
v 0.0600137 3.4135530 2.4834230
vn -0.0045154 0.9999797 0.0045112
vt 0.2470090 0.7067537
v 0.0464275 3.4134300 2.4970090
vn -0.6396338 0.4263079 0.6396329
vt 0.0536095 0.7525874
v 0.0014276 2.4117830 2.4525311
vn 0.0000000 0.0000000 -1.0000000
vt 0.0503398 0.6806363
v 0.0014273 2.1657479 2.4525311
vn 0.0000000 0.0000000 -1.0000000
vt 0.0503328 0.7072088
v 0.0014276 2.4187889 2.4591150
vn -0.0103431 0.6849827 -0.7284859
vt 0.0503399 0.6795557
v 0.0014276 2.4117830 2.4525311
vn -0.0099225 0.6850566 -0.7284223
vt 0.0503398 0.6806363
v 0.0014279 3.4135530 2.4591041
vn 0.0000000 0.0000000 -1.0000000
vt 0.0504215 0.5644308
v 0.0014276 2.4187889 2.4591150
vn 0.0000000 0.0000000 -1.0000000
vt 0.0503399 0.6795557
v 0.0014279 3.4134300 2.4784729
vn 0.0000000 0.9999798 0.0063625
vt 0.2513160 0.7067648
v 0.0014279 3.4135530 2.4591041
vn 0.0000000 0.9999798 0.0063574
vt 0.2513160 0.7049395
v 0.0014279 3.4134300 2.4784729
vn 0.0000000 0.4257410 0.9048451
vt 0.0544709 0.7499964
v -0.0618744 2.4117830 2.4787071
vn -0.7071079 0.0000000 -0.7071057
vt 0.0843664 0.6805308
v 0.0014276 2.4117830 2.4525311
vn 0.0000000 0.0000000 -1.0000000
vt 0.0891881 0.6806588
v -0.0618744 2.1657479 2.4787071
vn -0.7071092 0.0000000 -0.7071044
vt 0.0843874 0.7072098
v 0.0014273 2.1657479 2.4525311
vn 0.0000000 0.0000000 -1.0000000
vt 0.0892007 0.7072313
v -0.0571585 2.4187889 2.4834230
vn -0.5200635 0.6892959 -0.5043859
vt 0.0843560 0.6796830
v 0.0014276 2.4187889 2.4591150
vn -0.0103431 0.6849827 -0.7284859
vt 0.0891874 0.6795781
v -0.0618744 2.4117830 2.4787071
vn -0.5197967 0.6892288 -0.5047525
vt 0.0843664 0.6805308
v 0.0014276 2.4117830 2.4525311
vn -0.0099225 0.6850566 -0.7284223
vt 0.0891881 0.6806588
v -0.0571585 3.4135530 2.4834230
vn -0.7071089 0.0000000 -0.7071047
vt 0.0843429 0.5644732
v 0.0014279 3.4135530 2.4591041
vn 0.0000000 0.0000000 -1.0000000
vt 0.0891842 0.5644532
v -0.0571585 2.4187889 2.4834230
vn -0.7071058 0.0000000 -0.7071078
vt 0.0843560 0.6796830
v 0.0014276 2.4187889 2.4591150
vn 0.0000000 0.0000000 -1.0000000
vt 0.0891874 0.6795781
v -0.0435723 3.4134300 2.4970090
vn 0.0045260 0.9999795 0.0045251
vt 0.2544575 0.7079061
v -0.0571585 3.4135530 2.4834230
vn 0.0045153 0.9999796 0.0045194
vt 0.2556033 0.7067622
v -0.0880511 2.4117830 2.5420101
vn -1.0000000 0.0000000 0.0000000
vt 0.0795010 0.6806588
v -0.0880511 2.1657479 2.5420101
vn -1.0000000 0.0000000 0.0000000
vt 0.0795138 0.7072313
v -0.0814676 2.4187889 2.5420101
vn -0.7285004 0.6849672 0.0103517
vt 0.0794991 0.6795781
v -0.0880511 2.4117830 2.5420101
vn -0.7284362 0.6850418 0.0099242
vt 0.0795010 0.6806588
v -0.0814783 3.4135530 2.5420101
vn -1.0000000 0.0000000 0.0000000
vt 0.0794917 0.5644532
v -0.0814676 2.4187889 2.5420101
vn -1.0000000 0.0000000 0.0000000
vt 0.0794991 0.6795781
v -0.0621088 3.4134300 2.5420101
vn 0.0063570 0.9999798 0.0000000
vt 0.2555996 0.7110630
v -0.0814783 3.4135530 2.5420101
vn 0.0063493 0.9999799 0.0000000
vt 0.2574250 0.7110630
v -0.0618744 2.4117830 2.6053109
vn -0.7071092 0.0000000 0.7071044
vt 0.0746465 0.6805309
v -0.0618744 2.1657479 2.6053109
vn -0.7071036 0.0000000 0.7071100
vt 0.0746394 0.7072098
v -0.0571585 2.4187889 2.6005950
vn -0.5043772 0.6892916 0.5200777
vt 0.0746462 0.6796830
v -0.0618744 2.4117830 2.6053109
vn -0.5047449 0.6892226 0.5198123
vt 0.0746465 0.6805309
v -0.0571585 3.4135530 2.6005950
vn -0.7071065 0.0000000 0.7071071
vt 0.0746458 0.5644732
v -0.0571585 2.4187889 2.6005950
vn -0.7071022 0.0000000 0.7071114
vt 0.0746462 0.6796830
v -0.0435723 3.4134300 2.5870090
vn 0.0045261 0.9999796 -0.0045180
vt 0.2544501 0.7142070
v -0.0571585 3.4135530 2.6005950
vn 0.0045154 0.9999797 -0.0045146
vt 0.2555911 0.7153534
v -0.0621088 3.4134300 2.5420101
vn 0.9048445 0.4257422 0.0000000
vt 0.0529925 0.7552490
v -0.0435723 3.4134300 2.5870090
vn 0.6396363 0.4263080 -0.6396303
vt 0.0526378 0.7579574
v -0.0435723 3.4134300 2.4970090
vn 0.6396326 0.4263081 0.6396340
vt 0.0536095 0.7525874
v 0.0015164 2.1400270 2.6959720
vn 0.0000000 0.9442734 0.3291623
vt 0.6110942 0.4186382
v 0.1116195 2.1400270 2.6498320
vn 0.2334649 0.9439220 0.2334639
vt 0.5998401 0.4138062
v 0.0015164 2.1944909 2.5397291
vn 0.0000000 1.0000000 0.0000000
vt 0.6111189 0.4025508
v 0.1577604 2.1400270 2.5397291
vn 0.3291620 0.9442735 0.0000000
vt 0.5950766 0.4025358
v 0.1116195 2.1400270 2.4296260
vn 0.2334651 0.9439217 -0.2334650
vt 0.5998677 0.3912946
v 0.0015161 2.1400270 2.3834851
vn 0.0000000 0.9442734 -0.3291621
vt 0.6111193 0.3865250
v -0.1085870 2.1400270 2.4296260
vn -0.2334651 0.9439219 -0.2334642
vt 0.6223651 0.3913122
v -0.1547278 2.1400270 2.5397291
vn -0.3291615 0.9442737 0.0000000
vt 0.6271387 0.4025610
v -0.1085870 2.1400270 2.6498320
vn -0.2334645 0.9439217 0.2334653
vt 0.6223557 0.4138240
v 0.1116195 2.1400270 2.6498320
vn 0.6487451 0.3977098 0.6488118
vt 0.0502997 0.1009497
v 0.0015164 2.1400270 2.6959720
vn 0.0000000 0.3938497 0.9191749
vt 0.0320824 0.1009419
v 0.1202625 1.9218730 2.7452829
vn 0.4632007 0.3471258 0.8154439
vt 0.0469981 0.0708748
v 0.0015707 1.9218730 2.7770860
vn 0.0000000 0.3485085 0.9373057
vt 0.0320650 0.0708748
v 0.2071506 1.9218730 2.6583941
vn 0.8154446 0.3472416 0.4631126
vt 0.0606434 0.0708748
v 0.1577604 2.1400270 2.5397291
vn 0.9190518 0.3941369 0.0000000
vt 0.0738302 0.1009591
v 0.2389539 1.9218730 2.5397029
vn 0.9371936 0.3488098 0.0000000
vt 0.0747685 0.0708748
v 0.1116195 2.1400270 2.4296260
vn 0.6487256 0.3978378 -0.6487528
vt 0.0925065 0.1009554
v 0.2071506 1.9218730 2.4210119
vn 0.8153996 0.3473349 -0.4631221
vt 0.0889718 0.0708748
v 0.1202625 1.9218730 2.3341241
vn 0.4631540 0.3472926 -0.8153994
vt 0.1028492 0.0708748
v 0.0015161 2.1400270 2.3834851
vn 0.0000000 0.3940315 -0.9190970
vt 0.1101112 0.1009441
v 0.0015707 1.9218730 2.3023200
vn 0.0000000 0.3486992 -0.9372347
vt 0.1160040 0.0708748
v -0.1085870 2.1400270 2.4296260
vn -0.6488553 0.3975618 -0.6487923
vt 0.0925059 0.1009546
v -0.1171207 1.9218730 2.3341241
vn -0.4631362 0.3470915 -0.8154952
vt 0.1028492 0.0708748
v -0.2040088 1.9218730 2.4210119
vn -0.8154979 0.3469747 -0.4632190
vt 0.0889718 0.0708748
v -0.1547278 2.1400270 2.5397291
vn -0.9192200 0.3937444 0.0000000
vt 0.0738294 0.1009588
v -0.2358121 1.9218730 2.5397041
vn -0.9373471 0.3483971 0.0000000
vt 0.0747687 0.0708748
v -0.1085870 2.1400270 2.6498320
vn -0.6488737 0.3974339 0.6488523
vt 0.0502997 0.1009497
v -0.2040088 1.9218730 2.6583951
vn -0.8155407 0.3468828 0.4632125
vt 0.0606429 0.0708748
v -0.1085870 2.1400270 2.6498320
vn -0.6488737 0.3974339 0.6488523
vt 0.0145770 0.1009441
v -0.2040088 1.9218730 2.6583951
vn -0.8155407 0.3468828 0.4632125
vt 0.0035557 0.0708748
v -0.1171204 1.9218730 2.7452829
vn -0.4631787 0.3469252 0.8155418
vt 0.0171234 0.0708748
v -0.0792555 2.1683490 2.6226571
vn 0.0000000 1.0000000 0.0000000
vt 0.6918871 0.6418164
v 0.0014615 2.1683490 2.6564431
vn 0.0000000 1.0000000 0.0000000
vt 0.6806748 0.6466824
v -0.1130420 2.1683490 2.5419400
vn 0.0000000 1.0000000 0.0000000
vt 0.6964583 0.6304808
v 0.0821787 2.1683490 2.6226571
vn 0.0000000 1.0000000 0.0000000
vt 0.6693400 0.6421112
v -0.0792557 2.1683490 2.4612229
vn 0.0000000 1.0000000 0.0000000
vt 0.6915926 0.6192692
v 0.1159650 2.1683490 2.5419400
vn 0.0000000 1.0000000 0.0000000
vt 0.6644735 0.6308990
v 0.0821787 2.1683490 2.4612229
vn 0.0000000 1.0000000 0.0000000
vt 0.6690454 0.6195639
v 0.0014615 2.1683490 2.4274371
vn 0.0000000 1.0000000 0.0000000
vt 0.6802570 0.6146973
v 0.0821787 2.1683490 2.6226571
vn 0.6898437 -0.2196140 0.6898445
vt 0.3656229 0.3563024
v 0.0014615 2.1683490 2.6564431
vn 0.0000000 -0.2202588 0.9754415
vt 0.3751005 0.3563024
v 0.0014615 1.6612570 2.5419400
vn 0.0000000 -1.0000000 0.0000000
vt 0.3561209 0.4150741
v 0.1159650 2.1683490 2.5419400
vn 0.9754413 -0.2202594 0.0000000
vt 0.3561462 0.3563024
v 0.0821787 2.1683490 2.4612229
vn 0.6898437 -0.2196138 -0.6898445
vt 0.3466699 0.3563024
v 0.0014615 2.1683490 2.4274371
vn 0.0000000 -0.2202587 -0.9754415
vt 0.3371952 0.3563024
v -0.0792557 2.1683490 2.4612229
vn -0.6898428 -0.2196142 -0.6898453
vt 0.3466703 0.3563024
v -0.1130420 2.1683490 2.5419400
vn -0.9754415 -0.2202587 0.0000000
vt 0.3561462 0.3563024
v -0.0792555 2.1683490 2.6226571
vn -0.6898450 -0.2196133 0.6898434
vt 0.3656230 0.3563024
v 0.0014276 3.2783949 2.5420091
vn 0.0000000 1.0000000 0.0000000
vt 0.0810999 0.7603258
v 0.0014276 3.2783949 2.5420091
vn 0.0000000 1.0000000 0.0000000
vt 0.0810999 0.7603258
v 0.0014276 3.2783949 2.5420091
vn 0.0000000 1.0000000 0.0000000
vt 0.0810999 0.7603258
v 0.0014276 3.4134300 2.6055470
vn 0.0000000 0.4257475 -0.9048420
vt 0.0525429 0.7606877
v 0.0014279 3.4134300 2.4784729
vn 0.0000000 0.4257410 0.9048451
vt 0.0544709 0.7499964
v 0.0015161 2.1400270 2.3834851
vn 0.0000000 0.3940315 -0.9190970
vt 0.1101112 0.1009441
v 0.0015707 1.9218730 2.3023200
vn 0.0000000 0.3486992 -0.9372347
vt 0.1160040 0.0708748
v 0.0014615 2.1683490 2.6564431
vn 0.0000000 -0.2202588 0.9754415
vt 0.3751005 0.3563024
v 0.0014615 1.6612570 2.5419400
vn 0.0000000 -1.0000000 0.0000000
vt 0.3561209 0.4150741
v 0.0014615 1.6612570 2.5419400
vn 0.0000000 -1.0000000 0.0000000
vt 0.3561209 0.4150741
v 0.0014615 1.6612570 2.5419400
vn 0.0000000 -1.0000000 0.0000000
vt 0.3561209 0.4150741
v 0.0014615 2.1683490 2.4274371
vn 0.0000000 -0.2202587 -0.9754415
vt 0.3371952 0.3563024

g group_155263144_2822784382592
f 1/1/1 2/2/2 3/3/3 
f 3/3/3 2/2/2 4/4/4 
f 5/5/5 1/1/1 6/6/6 
f 6/6/6 1/1/1 3/3/3 
f 7/7/7 5/5/5 8/8/8 
f 8/8/8 5/5/5 6/6/6 
f 9/9/9 7/7/7 10/10/10 
f 10/10/10 7/7/7 8/8/8 
f 11/11/11 9/9/9 12/12/12 
f 12/12/12 9/9/9 10/10/10 
f 13/13/13 11/11/11 14/14/14 
f 14/14/14 11/11/11 12/12/12 
f 15/15/15 16/16/16 17/17/17 
f 17/17/17 16/16/16 18/18/18 
f 18/18/18 16/16/16 19/19/19 
f 19/19/19 16/16/16 20/20/20 
f 20/20/20 16/16/16 21/21/21 
f 22/22/22 23/23/23 24/24/24 
f 24/24/24 23/23/23 25/25/25 
f 25/25/25 23/23/23 26/26/26 
f 26/26/26 23/23/23 27/27/27 
f 27/27/27 23/23/23 28/28/28 
f 29/29/29 30/30/30 31/31/31 
f 31/31/31 30/30/30 32/32/32 
f 33/33/33 34/34/34 35/35/35 
f 35/35/35 34/34/34 36/36/36 
f 37/37/37 38/38/38 39/39/39 
f 39/39/39 38/38/38 40/40/40 
f 41/41/41 42/42/42 43/43/43 
f 43/43/43 42/42/42 44/44/44 
f 45/45/45 46/46/46 47/47/47 
f 47/47/47 46/46/46 48/48/48 
f 49/49/49 50/50/50 51/51/51 
f 52/52/52 33/33/33 53/53/53 
f 53/53/53 33/33/33 35/35/35 
f 54/54/54 37/37/37 55/55/55 
f 55/55/55 37/37/37 39/39/39 
f 56/56/56 41/41/41 57/57/57 
f 57/57/57 41/41/41 43/43/43 
f 45/45/45 47/47/47 58/58/58 
f 58/58/58 47/47/47 59/59/59 
f 51/51/51 60/60/60 49/49/49 
f 61/61/61 52/52/52 62/62/62 
f 62/62/62 52/52/52 53/53/53 
f 63/63/63 54/54/54 64/64/64 
f 64/64/64 54/54/54 55/55/55 
f 65/65/65 56/56/56 66/66/66 
f 66/66/66 56/56/56 57/57/57 
f 67/67/67 58/58/58 68/68/68 
f 68/68/68 58/58/58 59/59/59 
f 49/49/49 60/60/60 69/69/69 
f 70/70/70 61/61/61 71/71/71 
f 71/71/71 61/61/61 62/62/62 
f 72/72/72 63/63/63 73/73/73 
f 73/73/73 63/63/63 64/64/64 
f 74/74/74 65/65/65 75/75/75 
f 75/75/75 65/65/65 66/66/66 
f 67/67/67 68/68/68 76/76/76 
f 76/76/76 68/68/68 77/77/77 
f 160/160/160 69/69/69 78/78/78 
f 79/79/79 80/80/80 81/81/81 
f 81/81/81 80/80/80 82/82/82 
f 83/83/83 84/84/84 85/85/85 
f 85/85/85 84/84/84 86/86/86 
f 87/87/87 88/88/88 89/89/89 
f 89/89/89 88/88/88 90/90/90 
f 91/91/91 76/76/76 92/92/92 
f 92/92/92 76/76/76 77/77/77 
f 93/93/93 79/79/79 94/94/94 
f 94/94/94 79/79/79 81/81/81 
f 95/95/95 83/83/83 96/96/96 
f 96/96/96 83/83/83 85/85/85 
f 97/97/97 87/87/87 98/98/98 
f 98/98/98 87/87/87 89/89/89 
f 91/91/91 92/92/92 99/99/99 
f 99/99/99 92/92/92 100/100/100 
f 101/101/101 93/93/93 102/102/102 
f 102/102/102 93/93/93 94/94/94 
f 103/103/103 95/95/95 104/104/104 
f 104/104/104 95/95/95 96/96/96 
f 105/105/105 97/97/97 106/106/106 
f 106/106/106 97/97/97 98/98/98 
f 107/107/107 99/99/99 108/108/108 
f 108/108/108 99/99/99 100/100/100 
f 160/160/160 109/109/109 110/110/110 
f 34/34/34 101/101/101 36/36/36 
f 36/36/36 101/101/101 102/102/102 
f 38/38/38 103/103/103 40/40/40 
f 40/40/40 103/103/103 104/104/104 
f 42/42/42 105/105/105 44/44/44 
f 44/44/44 105/105/105 106/106/106 
f 107/107/107 108/108/108 46/46/46 
f 46/46/46 108/108/108 48/48/48 
f 110/110/110 163/163/163 161/161/161 
f 49/49/49 111/111/111 109/109/109 
f 162/162/162 164/164/164 111/111/111 
f 112/112/112 113/113/113 114/114/114 
f 113/113/113 115/115/115 114/114/114 
f 114/114/114 115/115/115 116/116/116 
f 114/114/114 116/116/116 117/117/117 
f 114/114/114 117/117/117 118/118/118 
f 114/114/114 118/118/118 119/119/119 
f 114/114/114 119/119/119 120/120/120 
f 120/120/120 112/112/112 114/114/114 
f 121/121/121 122/122/122 123/123/123 
f 123/123/123 122/122/122 124/124/124 
f 121/121/121 123/123/123 125/125/125 
f 121/121/121 125/125/125 126/126/126 
f 126/126/126 125/125/125 127/127/127 
f 128/128/128 126/126/126 129/129/129 
f 129/129/129 126/126/126 127/127/127 
f 128/128/128 129/129/129 130/130/130 
f 128/128/128 130/130/130 131/131/131 
f 131/131/131 130/130/130 132/132/132 
f 133/133/133 165/165/165 134/134/134 
f 134/134/134 165/165/165 166/166/166 
f 133/133/133 134/134/134 135/135/135 
f 133/133/133 135/135/135 136/136/136 
f 136/136/136 135/135/135 137/137/137 
f 138/138/138 136/136/136 139/139/139 
f 139/139/139 136/136/136 137/137/137 
f 140/140/140 141/141/141 142/142/142 
f 140/140/140 142/142/142 122/122/122 
f 122/122/122 142/142/142 124/124/124 
f 143/143/143 144/144/144 145/145/145 
f 144/144/144 146/146/146 145/145/145 
f 145/145/145 146/146/146 147/147/147 
f 146/146/146 148/148/148 147/147/147 
f 148/148/148 149/149/149 147/147/147 
f 149/149/149 150/150/150 147/147/147 
f 151/151/151 152/152/152 153/153/153 
f 154/154/154 151/151/151 153/153/153 
f 155/155/155 154/154/154 153/153/153 
f 156/156/156 155/155/155 168/168/168 
f 157/157/157 171/171/171 169/169/169 
f 158/158/158 157/157/157 153/153/153 
f 159/159/159 158/158/158 168/168/168 
f 167/167/167 159/159/159 170/170/170 
