v 0.0662389 3.4671090 2.7451680
vn 0.5750554 -0.0018552 0.8181124
vt 0.2415615 0.5855864
v 0.0084953 3.4671090 2.7606399
vn 0.0889614 -0.0018548 0.9960334
vt 0.2415615 0.5896335
v 0.0649673 2.1018469 2.7429659
vn 0.4209687 -0.0018550 0.9070733
vt 0.0920339 0.5855766
v 0.0084952 2.1018469 2.7580979
vn -0.0889576 -0.0018548 0.9960337
vt 0.0920339 0.5896246
v 0.0707423 3.5164371 2.7529669
vn 0.5750574 0.0000000 0.8181131
vt 0.1238975 0.6220281
v 0.0084953 3.5164361 2.7696459
vn 0.0889676 0.0000000 0.9960345
vt 0.1192309 0.6220282
v 0.0707422 3.4671011 2.7529681
vn 0.4209782 0.0000000 0.9070708
vt 0.1238974 0.6163957
v 0.0084953 3.4671011 2.7696469
vn -0.0889567 0.0000000 0.9960355
vt 0.1192309 0.6163957
v 0.0474719 3.5164349 2.7126620
vn 0.0000000 1.0000000 0.0000000
vt 0.3936296 0.8693241
v 0.0084953 3.5164349 2.7231059
vn 0.0000000 1.0000000 0.0000000
vt 0.3926636 0.8727600
v 0.0707423 3.5164371 2.7529669
vn 0.0000000 1.0000000 0.0000000
vt 0.3900903 0.8672222
v 0.0084953 3.5164361 2.7696459
vn 0.0000000 1.0000000 0.0000000
vt 0.3885475 0.8727095
v 0.0084953 3.5164349 2.7231059
vn 0.0000000 0.1417688 -0.9898998
vt 0.0525418 0.7606878
v 0.0474719 3.5164349 2.7126620
vn -0.4949563 0.1417683 -0.8572748
vt 0.0525771 0.7588664
v 0.0084953 2.9721301 2.6451530
vn 0.0000000 1.0000000 0.0000000
vt 0.0810988 0.7603278
v 0.0760047 3.5164349 2.6841290
vn -0.8572765 0.1417698 -0.4949528
vt 0.0527282 0.7570516
v 0.1085102 3.4671090 2.7028971
vn 0.9070706 -0.0018553 0.4209745
vt 0.2415615 0.5815395
v 0.1063078 2.1018469 2.7016251
vn 0.8181088 -0.0018553 0.5750605
vt 0.0920339 0.5815305
v 0.1163100 3.5164371 2.7074001
vn 0.9070706 0.0000000 0.4209786
vt 0.1285642 0.6220281
v 0.1163100 3.4671011 2.7074001
vn 0.8181074 0.0000000 0.5750656
vt 0.1285634 0.6163960
v 0.0760047 3.5164349 2.6841290
vn 0.0000000 1.0000000 0.0000000
vt 0.3961840 0.8668317
v 0.1163100 3.5164371 2.7074001
vn 0.0000000 1.0000000 0.0000000
vt 0.3941697 0.8632419
v 0.1239825 3.4671090 2.6451530
vn 0.9960334 -0.0018554 -0.0889610
vt 0.2415615 0.5774924
v 0.1214394 2.1018469 2.6451530
vn 0.9960333 -0.0018553 0.0889624
vt 0.0920339 0.5774840
v 0.1329891 3.5164371 2.6451530
vn 0.9960349 0.0000000 -0.0889642
vt 0.1332308 0.6220250
v 0.1329891 3.4671011 2.6451530
vn 0.9960350 0.0000000 0.0889622
vt 0.1332294 0.6163927
v 0.0864484 3.5164349 2.6451530
vn 0.0000000 1.0000000 0.0000000
vt 0.3996421 0.8659504
v 0.1329891 3.5164371 2.6451530
vn 0.0000000 1.0000000 0.0000000
vt 0.3996929 0.8618348
v 0.0864484 3.5164349 2.6451530
vn -0.9898998 0.1417691 0.0000000
vt 0.0529917 0.7552490
v 0.0760047 3.5164349 2.6061759
vn -0.8572785 0.1417687 0.4949498
vt 0.0533769 0.7534683
v 0.1085102 3.4671090 2.5874100
vn 0.8181098 -0.0018554 -0.5750592
vt 0.2415615 0.5734456
v 0.1063077 2.1018469 2.5886810
vn 0.9070714 -0.0018553 -0.4209729
vt 0.0920339 0.5734395
v 0.1163100 3.5164361 2.5829060
vn 0.8181149 0.0000000 -0.5750549
vt 0.1378973 0.6220219
v 0.1163100 3.4671011 2.5829060
vn 0.9070742 0.0000000 -0.4209708
vt 0.1378957 0.6163895
v 0.0760047 3.5164349 2.6061759
vn 0.0000000 1.0000000 0.0000000
vt 0.4030775 0.8669166
v 0.1163100 3.5164361 2.5829060
vn 0.0000000 1.0000000 0.0000000
vt 0.4051795 0.8633779
v 0.0662389 3.4671090 2.5451379
vn 0.4209752 -0.0018554 -0.9070703
vt 0.2415615 0.5693984
v 0.0649672 2.1018469 2.5473399
vn 0.5750631 -0.0018554 -0.8181070
vt 0.0920339 0.5693951
v 0.0707423 3.5164371 2.5373380
vn 0.4209744 0.0000000 -0.9070725
vt 0.1425639 0.6220185
v 0.0707422 3.4671011 2.5373380
vn 0.5750659 0.0000000 -0.8181072
vt 0.1425623 0.6163860
v 0.0474719 3.5164349 2.5776441
vn 0.0000000 1.0000000 0.0000000
vt 0.4055696 0.8694710
v 0.0707423 3.5164371 2.5373380
vn 0.0000000 1.0000000 0.0000000
vt 0.4091594 0.8674571
v 0.0474719 3.5164349 2.5776441
vn -0.4949416 0.1417704 0.8572829
vt 0.0538706 0.7517155
v 0.0084953 3.5164349 2.5671999
vn 0.0000000 0.1417695 0.9898997
vt 0.0544704 0.7499965
v 0.0084953 3.4671090 2.5296659
vn -0.0889648 -0.0018553 -0.9960331
vt 0.2415615 0.5653515
v 0.0084950 2.1018469 2.5322089
vn 0.0889636 -0.0018553 -0.9960332
vt 0.0920339 0.5653515
v 0.0084953 3.5164371 2.5206590
vn -0.0889603 0.0000000 -0.9960352
vt 0.1472303 0.6220154
v 0.0084953 3.4671011 2.5206590
vn 0.0889627 0.0000000 -0.9960350
vt 0.1472288 0.6163830
v 0.0084953 3.5164349 2.5671999
vn 0.0000000 1.0000000 0.0000000
vt 0.4064507 0.8729293
v 0.0084953 3.5164371 2.5206590
vn 0.0000000 1.0000000 0.0000000
vt 0.4105664 0.8729799
v -0.0492483 3.4671090 2.5451379
vn -0.5750622 -0.0018552 -0.8181076
vt 0.2415615 0.6098695
v 0.0084953 3.4671090 2.5296659
vn -0.0889648 -0.0018553 -0.9960331
vt 0.2415615 0.6139168
v -0.0479771 2.1018469 2.5473399
vn -0.4209743 -0.0018552 -0.9070706
vt 0.0920339 0.6098676
v 0.0084950 2.1018469 2.5322089
vn 0.0889636 -0.0018553 -0.9960332
vt 0.0920339 0.6139168
v -0.0537515 3.5164371 2.5373380
vn -0.5750675 0.0000000 -0.8181060
vt 0.0958988 0.6220284
v 0.0084953 3.5164371 2.5206590
vn -0.0889603 0.0000000 -0.9960352
vt 0.0912324 0.6220285
v -0.0537515 3.4671011 2.5373380
vn -0.4209774 0.0000000 -0.9070711
vt 0.0958988 0.6163961
v 0.0084953 3.4671011 2.5206590
vn 0.0889627 0.0000000 -0.9960350
vt 0.0912324 0.6163960
v -0.0304812 3.5164349 2.5776441
vn 0.0000000 1.0000000 0.0000000
vt 0.4054849 0.8763649
v -0.0537515 3.5164371 2.5373380
vn 0.0000000 1.0000000 0.0000000
vt 0.4090241 0.8784664
v -0.0304812 3.5164349 2.5776441
vn 0.4949411 0.1417700 0.8572832
vt 0.0538706 0.7517155
v -0.0590140 3.5164349 2.6061759
vn 0.8572787 0.1417683 0.4949496
vt 0.0533769 0.7534683
v -0.0915195 3.4671090 2.5874100
vn -0.9070721 -0.0018550 -0.4209713
vt 0.2415615 0.6058223
v -0.0893176 2.1018469 2.5886810
vn -0.8181100 -0.0018551 -0.5750588
vt 0.0920339 0.6058186
v -0.0993194 3.5164361 2.5829060
vn -0.9070727 0.0000000 -0.4209740
vt 0.1005652 0.6220281
v -0.0993194 3.4671011 2.5829060
vn -0.8181140 0.0000000 -0.5750561
vt 0.1005652 0.6163958
v -0.0590140 3.5164349 2.6061759
vn 0.0000000 1.0000000 0.0000000
vt 0.4029309 0.8788574
v -0.0993194 3.5164361 2.5829060
vn 0.0000000 1.0000000 0.0000000
vt 0.4049453 0.8824469
v -0.1069918 3.4671090 2.6451530
vn -0.9960333 -0.0018550 0.0889623
vt 0.2415615 0.6017750
v -0.1044492 2.1018469 2.6451530
vn -0.9960334 -0.0018550 -0.0889608
vt 0.0920339 0.6017694
v -0.1159985 3.5164371 2.6451530
vn -0.9960349 0.0000000 0.0889634
vt 0.1052316 0.6220282
v -0.1159985 3.4671011 2.6451530
vn -0.9960350 0.0000000 -0.0889624
vt 0.1052316 0.6163960
v -0.0694577 3.5164349 2.6451530
vn 0.0000000 1.0000000 0.0000000
vt 0.3994729 0.8797388
v -0.1159985 3.5164371 2.6451530
vn 0.0000000 1.0000000 0.0000000
vt 0.3994226 0.8838547
v -0.0694577 3.5164349 2.6451530
vn 0.9898999 0.1417687 0.0000000
vt 0.0529917 0.7552490
v -0.0590140 3.5164349 2.6841290
vn 0.8572767 0.1417695 -0.4949526
vt 0.0527282 0.7570516
v -0.0915195 3.4671090 2.7028971
vn -0.8181080 -0.0018550 0.5750616
vt 0.2415615 0.5977278
v -0.0893176 2.1018469 2.7016251
vn -0.9070702 -0.0018550 0.4209754
vt 0.0920339 0.5977210
v -0.0993194 3.5164371 2.7074001
vn -0.8181104 0.0000000 0.5750613
vt 0.1098979 0.6220281
v -0.0993194 3.4671011 2.7074001
vn -0.9070728 0.0000000 0.4209738
vt 0.1098979 0.6163957
v -0.0590140 3.5164349 2.6841290
vn 0.0000000 1.0000000 0.0000000
vt 0.3960373 0.8787730
v -0.0993194 3.5164371 2.7074001
vn 0.0000000 1.0000000 0.0000000
vt 0.3939356 0.8823124
v -0.0492482 3.4671090 2.7451680
vn -0.4209693 -0.0018549 0.9070730
vt 0.2415615 0.5936806
v -0.0479769 2.1018469 2.7429659
vn -0.5750580 -0.0018551 0.8181105
vt 0.0920339 0.5936721
v -0.0537515 3.5164371 2.7529681
vn -0.4209719 0.0000000 0.9070737
vt 0.1145644 0.6220282
v -0.0537515 3.4671011 2.7529681
vn -0.5750612 0.0000000 0.8181104
vt 0.1145644 0.6163958
v -0.0304812 3.5164349 2.7126620
vn 0.0000000 1.0000000 0.0000000
vt 0.3935449 0.8762186
v -0.0537515 3.5164371 2.7529681
vn 0.0000000 1.0000000 0.0000000
vt 0.3899550 0.8782328
v -0.0304812 3.5164349 2.7126620
vn 0.4949558 0.1417680 -0.8572751
vt 0.0525771 0.7588664
v 0.0707422 3.4671011 2.7529681
vn 0.0000000 -1.0000000 0.0000000
vt 0.4012599 0.7230686
v 0.0084953 3.4671011 2.7696469
vn 0.0000000 -1.0000000 0.0000000
vt 0.4000094 0.7186295
v -0.1159985 3.4671011 2.6451530
vn 0.0000000 -1.0000000 0.0000000
vt 0.4088027 0.7096063
v -0.0993194 3.4671011 2.7074001
vn 0.0000000 -1.0000000 0.0000000
vt 0.4043639 0.7108570
v -0.0537515 3.4671011 2.7529681
vn 0.0000000 -1.0000000 0.0000000
vt 0.4011453 0.7141598
v -0.0993194 3.4671011 2.5829060
vn 0.0000000 -1.0000000 0.0000000
vt 0.4132718 0.7107418
v -0.0537515 3.4671011 2.5373380
vn 0.0000000 -1.0000000 0.0000000
vt 0.4165750 0.7139609
v 0.0084953 3.4671011 2.5206590
vn 0.0000000 -1.0000000 0.0000000
vt 0.4178258 0.7183999
v 0.0707422 3.4671011 2.5373380
vn 0.0000000 -1.0000000 0.0000000
vt 0.4166899 0.7228696
v 0.1163100 3.4671011 2.7074001
vn 0.0000000 -1.0000000 0.0000000
vt 0.4045630 0.7262868
v 0.1163100 3.4671011 2.5829060
vn 0.0000000 -1.0000000 0.0000000
vt 0.4134712 0.7261723
v 0.1329891 3.4671011 2.6451530
vn 0.0000000 -1.0000000 0.0000000
vt 0.4090323 0.7274235
v -0.2382259 2.1278970 2.5281000
vn -0.3720297 0.9280049 -0.0200240
vt 0.9307534 0.6090608
v 0.2232455 2.1278970 2.5281000
vn 0.3770930 0.9241965 0.0605130
vt 0.9307534 0.5524424
v -0.2382742 2.1182261 2.4412861
vn -0.2315187 0.9482471 -0.2173169
vt 0.9414706 0.6090665
v 0.2326239 2.1186459 2.4413381
vn 0.4767666 0.8486336 -0.2291611
vt 0.9414589 0.5512917
v -0.2821915 1.4375520 2.8205149
vn -0.7756343 0.0001677 0.6311826
vt 0.1683010 0.6242744
v -0.2821915 2.0685661 2.8204720
vn -0.8708183 0.3077283 0.3833782
vt 0.1700820 0.6942363
v -0.2823609 1.4375520 2.5242341
vn -0.9999999 0.0000000 0.0005696
vt 0.1347057 0.6242743
v -0.2823585 2.0837770 2.5306780
vn -0.8918363 0.4522757 0.0086494
vt 0.1374356 0.6992152
v -0.2489675 1.4375520 2.8417881
vn -0.2819438 0.0004447 0.9594309
vt 0.1727271 0.6242744
v -0.2489675 2.0637641 2.8414979
vn -0.2252429 0.2695111 0.9362849
vt 0.1735809 0.6936395
v 0.1441886 2.0637300 2.8423300
vn 0.3401409 0.2446520 0.9079921
vt 0.2166951 0.6925434
v 0.1441886 1.4375520 2.8426211
vn 0.2008906 0.0004540 0.9796136
vt 0.2160090 0.6242743
v 0.1734662 1.4375520 2.8217080
vn 0.7361862 0.0001588 0.6767791
vt 0.2199463 0.6242746
v 0.1734662 2.0685439 2.8216641
vn 0.7919291 0.3594005 0.4936391
vt 0.2200144 0.6929365
v 0.2686139 1.4375520 2.5281000
vn 0.9778908 0.0000000 0.2091163
vt 0.2533785 0.6242748
v 0.2686139 2.0836420 2.5281000
vn 0.8757041 0.4607631 0.1443598
vt 0.2537058 0.6947230
v 0.2780146 1.4375520 2.4413431
vn 0.9829322 0.0000000 -0.1839681
vt 0.2627884 0.6242747
v 0.2780146 2.0735240 2.4413431
vn 0.9467449 0.2990861 -0.1192550
vt 0.2630727 0.6933421
v 0.2017371 1.4375520 2.2185941
vn 0.7339231 0.0000000 -0.6792326
vt 0.2881144 0.6242741
v 0.2017371 2.0022931 2.2185941
vn 0.7489381 0.3176531 -0.5815396
vt 0.2881385 0.6848130
v 0.1724596 1.4375520 2.1976810
vn 0.3049440 0.0000000 -0.9523703
vt 0.2919956 0.6242738
v 0.1724596 1.9852329 2.1976810
vn 0.2683300 0.1262450 -0.9550190
vt 0.2916076 0.6831683
v -0.2163046 1.9856000 2.1978741
vn -0.2671982 0.1751012 -0.9475995
vt 0.3335823 0.6840073
v -0.2163046 1.4375520 2.1978741
vn -0.2219910 0.0000000 -0.9750487
vt 0.3337075 0.6242731
v -0.2163046 1.4375520 2.1978741
vn -0.2219910 0.0000000 -0.9750487
vt 0.0915922 0.6242731
v -0.2497295 1.4375520 2.2250590
vn -0.7749449 -0.0037132 -0.6320179
vt 0.0965828 0.6242733
v -0.2163046 1.9856000 2.1978741
vn -0.2671982 0.1751012 -0.9475995
vt 0.0946739 0.6901060
v -0.2497295 2.0027599 2.2191260
vn -0.8064272 0.2522647 -0.5348248
vt 0.0995436 0.6916746
v -0.2824039 1.4375520 2.4491460
vn -0.9954771 -0.0005061 -0.0950011
vt 0.1228058 0.6242735
v -0.2824039 2.0805449 2.4491460
vn -0.8822808 0.4482928 -0.1435763
vt 0.1277325 0.6993917
v -0.2371947 2.1171949 2.8029499
vn -0.4174142 0.8268152 0.3770175
vt 0.8964934 0.6089343
v 0.1324918 2.1163990 2.8070929
vn 0.2087816 0.8335192 0.5115232
vt 0.8964933 0.5635771
v 0.1478135 2.0499129 2.2185941
vn 0.1802573 0.6807122 -0.7100269
vt 0.9700563 0.5617018
v -0.1952921 2.0499129 2.2185941
vn -0.3643528 0.6899601 -0.6254615
vt 0.9700497 0.6037980
v -0.2371947 2.1171949 2.8029499
vn -0.4174142 0.8268152 0.3770175
vt 0.1725399 0.7014177
v 0.1324918 2.1163990 2.8070929
vn 0.2087816 0.8335192 0.5115232
vt 0.2174370 0.6999426
v 0.2232455 2.1278970 2.5281000
vn 0.3770930 0.9241965 0.0605130
vt 0.2524719 0.7021153
v 0.2326239 2.1186459 2.4413381
vn 0.4767666 0.8486336 -0.2291611
vt 0.2647767 0.7004931
v 0.1478135 2.0499129 2.2185941
vn 0.1802573 0.6807122 -0.7100269
vt 0.2929347 0.6911424
v -0.1952921 2.0499129 2.2185941
vn -0.3643528 0.6899601 -0.6254615
vt 0.3311676 0.6915133
v -0.1952921 2.0499129 2.2185941
vn -0.3643528 0.6899601 -0.6254615
vt 0.0975333 0.7000009
v -0.2382742 2.1182261 2.4412861
vn -0.2315187 0.9482471 -0.2173169
vt 0.1260808 0.7063517
v -0.2382259 2.1278970 2.5281000
vn -0.3720297 0.9280049 -0.0200240
vt 0.1378892 0.7071046
v -0.3568505 1.5886040 2.9235630
vn 0.0000000 0.8296755 0.5582460
vt 0.9962925 0.2744884
v -0.3568505 1.4295660 3.0657020
vn 0.0000000 0.6663860 0.7456070
vt 0.9962925 0.3000770
v 0.3730402 1.5886040 2.9235630
vn 0.0000000 0.7532362 0.6577502
vt 0.9087304 0.2744882
v 0.3730402 1.4295660 3.0657029
vn 0.0000000 0.6663874 0.7456057
vt 0.9087304 0.3000768
v -0.3568505 1.6755770 2.7517710
vn 0.0000000 0.9766158 0.2149923
vt 0.9962925 0.2513886
v 0.3730402 1.6755770 2.7517710
vn 0.0000000 0.9415231 0.3369486
vt 0.9087304 0.2513883
v -0.3568505 1.6926110 2.5665269
vn 0.0000000 0.9866121 -0.1630844
vt 0.9962925 0.2290721
v 0.3730402 1.6926110 2.5665481
vn 0.0000000 0.9993868 -0.0350172
vt 0.9087304 0.2290740
v -0.3568505 1.6367199 2.3795590
vn 0.0000000 0.8483297 -0.5294683
vt 0.9962925 0.2056618
v 0.3730402 1.6367199 2.3796461
vn 0.0000000 0.9118567 -0.4105087
vt 0.9087304 0.2056708
v -0.3568505 1.5081410 2.2239771
vn 0.0000000 0.6200194 -0.7845865
vt 0.9962925 0.1814483
v 0.3730401 1.5081410 2.2239771
vn 0.0000000 0.6998137 -0.7143254
vt 0.9087304 0.1814490
v -0.3568505 1.3012450 2.0932031
vn 0.0000000 0.5342953 -0.8452979
vt 0.9962925 0.1520855
v 0.3730401 1.3012450 2.0932031
vn 0.0000000 0.5342950 -0.8452982
vt 0.9087304 0.1520861
v 0.3730401 1.3012450 2.0932031
vn 1.0000000 0.0000000 0.0000000
vt 0.4416157 0.8840132
v 0.3730401 1.5081410 2.2239771
vn 1.0000000 0.0000000 0.0000000
vt 0.4605114 0.8683129
v 0.3730402 1.4295660 3.0657029
vn 1.0000000 0.0000000 0.0000000
vt 0.4417686 0.7855543
v 0.3730402 1.5886040 2.9235630
vn 1.0000000 0.0000000 0.0000000
vt 0.4594392 0.7976495
v 0.3730402 1.6755770 2.7517710
vn 1.0000000 0.0000000 0.0000000
vt 0.4703213 0.8136148
v 0.3730402 1.6926110 2.5665481
vn 1.0000000 0.0000000 0.0000000
vt 0.4744209 0.8318138
v 0.3730402 1.6367199 2.3796461
vn 1.0000000 0.0000000 0.0000000
vt 0.4712870 0.8511387
v -0.3568505 1.3012450 2.0932031
vn -1.0000000 0.0000000 0.0000000
vt 0.4416149 0.8840344
v -0.3568505 1.4295660 3.0657020
vn -1.0000000 0.0000000 0.0000000
vt 0.4417677 0.7855766
v -0.3568505 1.5081410 2.2239771
vn -1.0000000 0.0000000 0.0000000
vt 0.4605104 0.8683343
v -0.3568505 1.6367199 2.3795590
vn -1.0000000 0.0000000 0.0000000
vt 0.4712873 0.8511696
v -0.3568505 1.6926110 2.5665269
vn -1.0000000 0.0000000 0.0000000
vt 0.4744204 0.8318385
v -0.3568505 1.6755770 2.7517710
vn -1.0000000 0.0000000 0.0000000
vt 0.4703208 0.8136363
v -0.3568505 1.5886040 2.9235630
vn -1.0000000 0.0000000 0.0000000
vt 0.4594384 0.7976704
v -0.3568505 1.3012450 2.0932031
vn 0.0000000 -0.9914067 0.1308157
vt 0.8263021 0.0643030
v 0.3730401 1.3012450 2.0932031
vn 0.0000000 -0.9914067 0.1308159
vt 0.7872695 0.0643030
v -0.3568505 1.4295660 3.0657020
vn 0.0000000 -0.9914067 0.1308159
vt 0.8263021 0.0097651
v 0.3730402 1.4295660 3.0657029
vn 0.0000000 -0.9914067 0.1308161
vt 0.7872695 0.0097650
v 0.0084953 3.5164349 2.7231059
vn 0.0000000 0.1417688 -0.9898998
vt 0.0525418 0.7606878
v 0.0084953 2.9721301 2.6451530
vn 0.0000000 1.0000000 0.0000000
vt 0.0810988 0.7603278
v 0.0084953 2.9721301 2.6451530
vn 0.0000000 1.0000000 0.0000000
vt 0.0810988 0.7603278
v 0.0084953 2.9721301 2.6451530
vn 0.0000000 1.0000000 0.0000000
vt 0.0810988 0.7603278
v 0.0084953 2.9721301 2.6451530
vn 0.0000000 1.0000000 0.0000000
vt 0.0810988 0.7603278
v 0.0084953 3.5164349 2.5671999
vn 0.0000000 0.1417695 0.9898997
vt 0.0544704 0.7499965

g group_155226168_2822784381984
f 1/1/1 2/2/2 3/3/3 
f 3/3/3 2/2/2 4/4/4 
f 5/5/5 6/6/6 7/7/7 
f 7/7/7 6/6/6 8/8/8 
f 9/9/9 10/10/10 11/11/11 
f 11/11/11 10/10/10 12/12/12 
f 13/13/13 14/14/14 15/15/15 
f 15/15/15 14/14/14 16/16/16 
f 17/17/17 1/1/1 18/18/18 
f 18/18/18 1/1/1 3/3/3 
f 19/19/19 5/5/5 20/20/20 
f 20/20/20 5/5/5 7/7/7 
f 21/21/21 9/9/9 22/22/22 
f 22/22/22 9/9/9 11/11/11 
f 23/23/23 17/17/17 24/24/24 
f 24/24/24 17/17/17 18/18/18 
f 25/25/25 19/19/19 26/26/26 
f 26/26/26 19/19/19 20/20/20 
f 27/27/27 21/21/21 28/28/28 
f 28/28/28 21/21/21 22/22/22 
f 16/16/16 29/29/29 15/15/15 
f 15/15/15 29/29/29 30/30/30 
f 31/31/31 23/23/23 32/32/32 
f 32/32/32 23/23/23 24/24/24 
f 33/33/33 25/25/25 34/34/34 
f 34/34/34 25/25/25 26/26/26 
f 35/35/35 27/27/27 36/36/36 
f 36/36/36 27/27/27 28/28/28 
f 37/37/37 31/31/31 38/38/38 
f 38/38/38 31/31/31 32/32/32 
f 39/39/39 33/33/33 40/40/40 
f 40/40/40 33/33/33 34/34/34 
f 41/41/41 35/35/35 42/42/42 
f 42/42/42 35/35/35 36/36/36 
f 30/30/30 43/43/43 178/178/178 
f 179/179/179 43/43/43 44/44/44 
f 45/45/45 37/37/37 46/46/46 
f 46/46/46 37/37/37 38/38/38 
f 47/47/47 39/39/39 48/48/48 
f 48/48/48 39/39/39 40/40/40 
f 49/49/49 41/41/41 50/50/50 
f 50/50/50 41/41/41 42/42/42 
f 51/51/51 52/52/52 53/53/53 
f 53/53/53 52/52/52 54/54/54 
f 55/55/55 56/56/56 57/57/57 
f 57/57/57 56/56/56 58/58/58 
f 59/59/59 49/49/49 60/60/60 
f 60/60/60 49/49/49 50/50/50 
f 182/182/182 61/61/61 180/180/180 
f 180/180/180 61/61/61 62/62/62 
f 63/63/63 51/51/51 64/64/64 
f 64/64/64 51/51/51 53/53/53 
f 65/65/65 55/55/55 66/66/66 
f 66/66/66 55/55/55 57/57/57 
f 67/67/67 59/59/59 68/68/68 
f 68/68/68 59/59/59 60/60/60 
f 69/69/69 63/63/63 70/70/70 
f 70/70/70 63/63/63 64/64/64 
f 71/71/71 65/65/65 72/72/72 
f 72/72/72 65/65/65 66/66/66 
f 73/73/73 67/67/67 74/74/74 
f 74/74/74 67/67/67 68/68/68 
f 62/62/62 75/75/75 15/15/15 
f 178/178/178 75/75/75 76/76/76 
f 77/77/77 69/69/69 78/78/78 
f 78/78/78 69/69/69 70/70/70 
f 79/79/79 71/71/71 80/80/80 
f 80/80/80 71/71/71 72/72/72 
f 81/81/81 73/73/73 82/82/82 
f 82/82/82 73/73/73 74/74/74 
f 83/83/83 77/77/77 84/84/84 
f 84/84/84 77/77/77 78/78/78 
f 85/85/85 79/79/79 86/86/86 
f 86/86/86 79/79/79 80/80/80 
f 87/87/87 81/81/81 88/88/88 
f 88/88/88 81/81/81 82/82/82 
f 76/76/76 89/89/89 179/179/179 
f 181/181/181 89/89/89 177/177/177 
f 2/2/2 83/83/83 4/4/4 
f 4/4/4 83/83/83 84/84/84 
f 6/6/6 85/85/85 8/8/8 
f 8/8/8 85/85/85 86/86/86 
f 10/10/10 87/87/87 12/12/12 
f 12/12/12 87/87/87 88/88/88 
f 90/90/90 91/91/91 92/92/92 
f 92/92/92 91/91/91 93/93/93 
f 93/93/93 91/91/91 94/94/94 
f 95/95/95 90/90/90 92/92/92 
f 95/95/95 96/96/96 90/90/90 
f 90/90/90 96/96/96 97/97/97 
f 97/97/97 98/98/98 90/90/90 
f 90/90/90 98/98/98 99/99/99 
f 99/99/99 98/98/98 100/100/100 
f 99/99/99 100/100/100 101/101/101 
f 102/102/102 103/103/103 104/104/104 
f 104/104/104 103/103/103 105/105/105 
f 106/106/106 107/107/107 108/108/108 
f 108/108/108 107/107/107 109/109/109 
f 110/110/110 111/111/111 106/106/106 
f 106/106/106 111/111/111 107/107/107 
f 112/112/112 111/111/111 113/113/113 
f 113/113/113 111/111/111 110/110/110 
f 113/113/113 114/114/114 112/112/112 
f 112/112/112 114/114/114 115/115/115 
f 114/114/114 116/116/116 115/115/115 
f 115/115/115 116/116/116 117/117/117 
f 118/118/118 119/119/119 116/116/116 
f 116/116/116 119/119/119 117/117/117 
f 120/120/120 121/121/121 118/118/118 
f 118/118/118 121/121/121 119/119/119 
f 122/122/122 123/123/123 120/120/120 
f 120/120/120 123/123/123 121/121/121 
f 124/124/124 123/123/123 125/125/125 
f 125/125/125 123/123/123 122/122/122 
f 126/126/126 127/127/127 128/128/128 
f 128/128/128 127/127/127 129/129/129 
f 127/127/127 130/130/130 129/129/129 
f 129/129/129 130/130/130 131/131/131 
f 132/132/132 133/133/133 102/102/102 
f 102/102/102 133/133/133 103/103/103 
f 105/105/105 134/134/134 104/104/104 
f 104/104/104 134/134/134 135/135/135 
f 136/136/136 107/107/107 111/111/111 
f 136/136/136 111/111/111 137/137/137 
f 137/137/137 111/111/111 112/112/112 
f 137/137/137 112/112/112 115/115/115 
f 138/138/138 117/117/117 139/139/139 
f 139/139/139 117/117/117 119/119/119 
f 119/119/119 121/121/121 139/139/139 
f 139/139/139 121/121/121 140/140/140 
f 140/140/140 121/121/121 123/123/123 
f 123/123/123 124/124/124 140/140/140 
f 140/140/140 124/124/124 141/141/141 
f 142/142/142 128/128/128 129/129/129 
f 129/129/129 131/131/131 142/142/142 
f 142/142/142 131/131/131 143/143/143 
f 144/144/144 109/109/109 136/136/136 
f 136/136/136 109/109/109 107/107/107 
f 143/143/143 131/131/131 144/144/144 
f 144/144/144 131/131/131 109/109/109 
f 137/137/137 115/115/115 138/138/138 
f 138/138/138 115/115/115 117/117/117 
f 109/109/109 131/131/131 108/108/108 
f 108/108/108 131/131/131 130/130/130 
f 145/145/145 146/146/146 147/147/147 
f 147/147/147 146/146/146 148/148/148 
f 149/149/149 145/145/145 150/150/150 
f 150/150/150 145/145/145 147/147/147 
f 151/151/151 149/149/149 152/152/152 
f 152/152/152 149/149/149 150/150/150 
f 153/153/153 151/151/151 154/154/154 
f 154/154/154 151/151/151 152/152/152 
f 155/155/155 153/153/153 156/156/156 
f 156/156/156 153/153/153 154/154/154 
f 157/157/157 155/155/155 158/158/158 
f 158/158/158 155/155/155 156/156/156 
f 159/159/159 160/160/160 161/161/161 
f 161/161/161 160/160/160 162/162/162 
f 162/162/162 160/160/160 163/163/163 
f 163/163/163 160/160/160 164/164/164 
f 160/160/160 165/165/165 164/164/164 
f 166/166/166 167/167/167 168/168/168 
f 168/168/168 167/167/167 169/169/169 
f 169/169/169 167/167/167 170/170/170 
f 170/170/170 167/167/167 171/171/171 
f 172/172/172 171/171/171 167/167/167 
f 173/173/173 174/174/174 175/175/175 
f 175/175/175 174/174/174 176/176/176 
